<svg width="82" height="16" viewBox="0 0 82 16" fill="none" xmlns="http://www.w3.org/2000/svg">
<path d="M1.78989 15.0864L7.76194 3.15673C8.53292 1.61661 10.7309 1.61661 11.5019 3.15672L15.604 11.3509C16.3749 12.891 18.5729 12.891 19.3439 11.3509L23.446 3.15673C24.217 1.61661 26.4149 1.61661 27.1859 3.15672L31.288 11.3509C32.059 12.891 34.257 12.891 35.028 11.3509L39.13 3.15673C39.901 1.61661 42.099 1.61661 42.87 3.15672L46.972 11.3509C47.743 12.891 49.941 12.891 50.712 11.3509L54.8141 3.15673C55.585 1.61661 57.783 1.61661 58.554 3.15672L62.6561 11.3509C63.4271 12.891 65.625 12.891 66.396 11.3509L70.4981 3.15673C71.2691 1.61661 73.4671 1.61661 74.2381 3.15672L80.2101 15.0864" stroke="#F1BC00" stroke-width="4"/>
</svg>
