<svg width="91" height="32" viewBox="0 0 91 32" fill="none" xmlns="http://www.w3.org/2000/svg">
<g clip-path="url(#clip0_47_5297)">
<path d="M15.7848 1.85768C12.133 1.97948 8.67523 3.53138 6.15696 6.17885C3.63868 8.82632 2.26157 12.3573 2.32248 16.0107C2.38338 19.6641 3.87743 23.1472 6.48256 25.7092C9.08768 28.2713 12.5952 29.7071 16.2491 29.7071C19.903 29.7071 23.4105 28.2713 26.0157 25.7092C28.6208 23.1472 30.1148 19.6641 30.1757 16.0107C30.2366 12.3573 28.8595 8.82632 26.3413 6.17885C23.823 3.53138 20.3652 1.97948 16.7134 1.85768H15.7848ZM35.2848 1.85768C31.633 1.97948 28.1752 3.53138 25.6569 6.17885C23.1387 8.82632 21.7616 12.3573 21.8225 16.0107C21.8834 19.6641 23.3774 23.1472 25.9825 25.7092C28.5877 28.2713 32.0952 29.7071 35.7491 29.7071C39.403 29.7071 42.9105 28.2713 45.5157 25.7092C48.1208 23.1472 49.6148 19.6641 49.6757 16.0107C49.7366 12.3573 48.3595 8.82632 45.8413 6.17885C43.323 3.53138 39.8652 1.97948 36.2134 1.85768H35.2848ZM54.7848 1.85768C51.133 1.97948 47.6752 3.53138 45.1569 6.17885C42.6387 8.82632 41.2616 12.3573 41.3225 16.0107C41.3834 19.6641 42.8774 23.1472 45.4825 25.7092C48.0877 28.2713 51.5952 29.7071 55.2491 29.7071C58.903 29.7071 62.4105 28.2713 65.0156 25.7092C67.6208 23.1472 69.1148 19.6641 69.1757 16.0107C69.2366 12.3573 67.8595 8.82632 65.3412 6.17885C62.823 3.53138 59.3652 1.97948 55.7134 1.85768H54.7848ZM74.2848 1.85768C70.633 1.97948 67.1752 3.53138 64.6569 6.17885C62.1387 8.82632 60.7615 12.3573 60.8225 16.0107C60.8834 19.6641 62.3774 23.1472 64.9825 25.7092C67.5877 28.2713 71.0952 29.7071 74.7491 29.7071C78.403 29.7071 81.9105 28.2713 84.5156 25.7092C87.1208 23.1472 88.6148 19.6641 88.6757 16.0107C88.7366 12.3573 87.3595 8.82632 84.8412 6.17885C82.323 3.53138 78.8652 1.97948 75.2134 1.85768H74.2848Z" stroke="#081630" stroke-width="2.95066"/>
</g>
<defs>
<clipPath id="clip0_47_5297">
<rect width="90.7182" height="31.4737" fill="white" transform="scale(1.00311)"/>
</clipPath>
</defs>
</svg>
