<svg width="100" height="24" viewBox="0 0 100 24" fill="none" xmlns="http://www.w3.org/2000/svg">
<path d="M58.021 20.9907C58.021 21.1818 58.0728 21.2861 58.1937 21.2861C58.2801 21.2861 58.3491 21.2513 58.4355 21.1992L89.5873 0.816691C90.1398 0.451786 90.6406 0.260646 91.3832 0.260646H98.2386C99.292 0.260646 100 0.973078 100 2.03304V15.187C100 16.7682 99.6546 17.6892 98.2386 18.5406L89.9326 23.5624C89.829 23.6319 89.7254 23.6667 89.6563 23.6667C89.5527 23.6667 89.4664 23.5972 89.4664 23.3018V7.94101C89.4664 7.76725 89.4146 7.64562 89.2937 7.64562C89.2074 7.64562 89.1383 7.68037 89.0519 7.7325L66.2752 22.6241C65.6363 23.0411 65.1183 23.1627 64.5311 23.1627H49.4215C48.3681 23.1627 47.6601 22.4503 47.6601 21.3903V2.45007C47.6601 2.31106 47.5911 2.18943 47.4875 2.18943C47.4011 2.18943 47.332 2.22418 47.2457 2.27631L32.2224 11.3642C32.067 11.451 32.0325 11.5379 32.0325 11.6074C32.0325 11.6769 32.0497 11.7291 32.1706 11.8333L42.8941 22.6241C43.0323 22.7631 43.1359 22.8847 43.1359 22.989C43.1359 23.1106 42.9805 23.1801 42.7905 23.1801H33.0858C32.326 23.1801 31.7389 23.0585 31.3245 22.6414L24.8144 16.0905C24.7453 16.021 24.6935 15.9863 24.6244 15.9863C24.5726 15.9863 24.4863 16.021 24.4172 16.0558L13.5382 22.6414C12.8821 23.0411 12.4331 23.1627 11.7769 23.1627H1.76135C0.707995 23.1627 0 22.4503 0 21.3903V8.47968C0 6.88105 0.345363 5.97748 1.76135 5.12604L10.1191 0.0695056C10.2055 0.0173764 10.2746 0 10.3436 0C10.4645 0 10.5336 0.139011 10.5336 0.417034V17.6892C10.5336 17.8629 10.5854 17.9498 10.7063 17.9498C10.7753 17.9498 10.8617 17.8977 10.948 17.8456L39.1815 0.764562C39.8549 0.364904 40.2694 0.24327 41.0464 0.24327H56.2424C57.2958 0.24327 58.0038 0.955702 58.0038 2.01566L58.021 20.9907Z" fill="#05141F"/>
</svg>
