<svg width="89" height="32" viewBox="0 0 89 32" fill="none" xmlns="http://www.w3.org/2000/svg">
<path d="M62.7904 19.5545C62.8065 19.6353 62.9036 19.708 63.0087 19.7483C63.0491 19.7645 63.0653 19.7887 63.0249 19.8695C62.7338 20.4914 62.4669 20.8468 62.1111 21.3799C61.7796 21.8807 61.3995 22.2684 60.9467 22.64C60.2593 23.2054 59.3051 23.8273 58.5207 23.4073C58.173 23.2296 58.0193 22.7369 58.0274 22.3411C58.0436 21.2265 58.5369 20.0876 59.4587 18.9648C60.5747 17.5917 61.8119 16.8809 62.6206 17.2686C63.4615 17.6644 63.1947 18.6337 62.8146 19.401C62.7823 19.4495 62.7823 19.506 62.7904 19.5545ZM71.7826 10.8796C71.8392 10.7746 71.7826 10.6938 71.6451 10.6938C70.9416 10.6938 70.0278 10.6938 69.3 10.6938C69.1302 10.6938 69.0332 10.718 68.9523 10.8796C68.6854 11.3965 65.4023 16.3075 64.7958 17.2606C64.6907 17.406 64.5694 17.3817 64.5532 17.2202C64.4885 16.6548 64.0033 16.0005 63.227 15.6936C62.6367 15.4593 62.0626 15.4109 61.4642 15.4917C60.3887 15.637 59.4264 16.2025 58.5773 16.8486C57.3077 17.8179 56.208 19.0699 54.7847 19.9987C54.0084 20.4995 52.9491 20.9438 52.2375 20.2895C51.5987 19.6918 51.6714 18.3752 52.6499 17.3494C52.755 17.2444 52.8763 17.3333 52.8601 17.4302C52.7712 17.8906 52.8844 18.351 53.2321 18.6741C53.6607 19.0618 54.2753 19.1022 54.8009 18.8437C55.4236 18.5368 55.7875 17.9471 55.8926 17.2767C56.0543 16.2348 55.2538 15.314 54.251 15.2413C53.4343 15.1847 52.6499 15.4674 51.8898 16.0974C51.5097 16.4125 51.2914 16.6467 50.9598 17.1152C50.879 17.2283 50.7577 17.2444 50.7577 17.0748C50.7981 15.7421 50.2401 14.9909 49.1404 14.9666C48.2832 14.9424 47.3694 15.4109 46.6497 15.9763C45.8653 16.6063 45.1861 17.4383 44.4502 18.2217C44.3612 18.3187 44.2804 18.3106 44.2561 18.1248C44.2319 17.2444 44.0135 16.3801 43.6011 15.7744C43.4555 15.5644 43.1483 15.4593 42.8976 15.6047C42.7763 15.6694 42.3639 15.8551 42.0647 16.0974C41.9191 16.2186 41.8544 16.3963 41.9272 16.6225C42.3234 17.9471 42.2345 19.4414 41.7008 20.7176C41.2075 21.8807 40.2533 22.9307 39.1212 23.2781C38.3772 23.5123 37.609 23.3992 37.1319 22.745C36.4769 21.8403 36.7437 20.2653 37.7141 18.9568C38.5794 17.8017 39.8247 17.0748 41.0619 16.5982C41.2075 16.5417 41.2398 16.4448 41.1994 16.3236C41.1347 16.1217 41.0215 15.839 40.9811 15.7178C40.8679 15.4109 40.5444 15.3624 40.1563 15.4109C39.2506 15.5159 38.4419 15.8228 37.6333 16.259C35.5227 17.3898 34.4714 19.5706 34.0024 20.7338C33.776 21.2911 33.59 21.6465 33.3393 21.9534C33.0078 22.3734 32.5873 22.753 31.8272 23.4154C31.7544 23.48 31.7059 23.6012 31.7625 23.7223C31.8433 23.8839 32.2396 24.4412 32.3528 24.4896C32.4741 24.5543 32.6196 24.4654 32.6762 24.425C33.21 24.0616 33.8488 23.4881 34.1642 23.1004C34.2774 22.9711 34.3825 23.0196 34.4472 23.2215C34.7383 24.2635 35.4984 25.1116 36.5578 25.467C38.4904 26.1212 40.4959 25.1762 42.0081 23.5365C42.9704 22.4946 43.3181 21.8242 43.682 21.3638C44.3046 20.5884 45.5419 18.8598 47.0055 17.7533C47.5473 17.3413 48.1781 17.0344 48.5015 17.2363C48.7603 17.406 48.8412 17.7856 48.4287 18.5368C46.9327 21.2668 44.7332 24.4735 44.3289 25.2489C44.2561 25.3862 44.3208 25.4912 44.4583 25.4912C45.2427 25.4912 46.019 25.4912 46.7306 25.4912C46.8519 25.4831 46.9004 25.4347 46.9651 25.3458C48.1134 23.5527 49.197 21.8403 50.3533 20.0714C50.418 19.9664 50.4746 20.0472 50.4827 20.0957C50.507 20.5076 50.604 21.0649 50.8547 21.4365C51.2914 22.115 51.914 22.4057 52.6014 22.4138C53.1513 22.4219 53.4262 22.333 54.0165 22.115C54.4936 21.9373 54.8818 21.703 55.181 21.493C55.3508 21.3719 55.3831 21.5738 55.3831 21.6061C55.1163 23.0277 55.4478 24.7239 56.863 25.4185C58.5611 26.2505 60.421 25.0793 61.4965 24.0212C61.6017 23.9162 61.7149 23.9323 61.723 24.1504C61.7472 24.5543 61.9251 25.0389 62.2647 25.3701C63.1624 26.2747 64.9818 25.9112 66.8013 24.5058C67.9738 23.6012 69.1949 22.333 70.2946 20.9841C70.3351 20.9357 70.3674 20.8468 70.2866 20.7661C70.1167 20.5884 69.8741 20.3864 69.7043 20.233C69.6315 20.1684 69.5183 20.1845 69.4536 20.233C68.3215 21.3072 67.3026 22.535 65.8309 23.5527C65.3376 23.9 64.5451 24.1746 64.1893 23.6981C64.0519 23.5123 64.068 23.2538 64.2055 22.9146C64.626 21.8242 71.4268 11.4854 71.7826 10.8796Z" fill="#081630"/>
<path d="M39.7859 12.1194C39.8183 12.2729 39.8749 12.3052 39.9476 12.289C40.2954 12.2163 40.6754 11.9336 40.8938 11.6025C41.0959 11.3036 41.193 10.8755 40.9908 10.6978C40.8129 10.5444 40.5137 10.5847 40.2954 10.7786C39.8587 11.1663 39.7293 11.7155 39.7859 12.1194ZM22.4485 25.4387C19.9093 25.4548 17.6774 23.8879 17.4186 21.182C17.2731 19.6797 17.7017 18.3388 18.5508 17.2403C19.3028 16.2549 20.5805 15.4391 21.6641 15.2453C22.0199 15.1807 22.4889 15.221 22.683 15.4553C22.9902 15.8107 22.9013 16.2065 22.594 16.3599C21.7692 16.7799 20.7745 17.4988 20.2894 18.4842C19.8931 19.2839 19.8123 20.2531 20.4187 21.1739C21.4376 22.7086 24.276 22.749 26.9122 20.3016C27.5672 19.7039 28.1494 19.1223 28.7478 18.4438C29.9123 17.1192 30.3004 16.6346 31.845 14.4941C31.8611 14.4699 31.8692 14.4376 31.8611 14.4214C31.845 14.3891 31.8288 14.3891 31.7803 14.381C30.7452 14.4133 29.8476 14.7203 28.9743 15.3664C28.7236 15.5522 28.3597 15.528 28.198 15.2857C28.0201 15.011 28.1494 14.6556 28.4406 14.4537C29.8476 13.4764 31.384 13.2987 32.9528 13.0321C32.9528 13.0321 33.0579 13.0402 33.155 12.919C33.8019 12.0952 34.2871 11.3521 34.9744 10.512C35.6699 9.66394 36.5594 8.88853 37.2387 8.2989C38.1929 7.4831 38.7994 7.20848 39.422 6.86924C39.5838 6.78039 39.3978 6.68346 39.3492 6.68346C35.8801 6.02921 32.2736 5.18918 28.8368 6.46538C26.4513 7.35387 25.4081 9.24393 25.9095 10.504C26.2653 11.4005 27.4459 11.5459 28.5538 11.0048C29.4675 10.5524 30.3166 9.83356 30.9231 8.90469C31.2627 8.38775 31.9663 8.7593 31.5862 9.65587C30.5754 12.0225 28.6508 13.8964 26.3057 13.9772C24.3083 14.0418 23.0226 12.5717 23.0226 10.7624C23.0307 7.19232 27.0092 4.84187 31.19 4.49455C36.2279 4.08261 40.9908 5.41534 45.9883 6.02113C49.8213 6.48153 53.4925 6.49769 57.3417 5.6092C57.7946 5.51227 58.118 5.80305 58.0857 6.26345C58.0452 6.92578 57.5358 7.56388 56.2662 8.25851C54.8268 9.05008 53.3146 9.28432 51.7378 9.30047C47.929 9.33278 44.379 7.84658 40.7078 7.05501C40.7159 7.21656 40.7563 7.41041 40.6188 7.50734C38.581 9.00969 36.7454 10.5282 35.5162 12.6687C35.4758 12.7171 35.492 12.7656 35.5728 12.7575C36.6403 12.701 37.6026 12.6767 38.6053 12.596C38.7832 12.5798 38.7832 12.5394 38.767 12.4102C38.6781 11.6752 38.8964 10.8351 39.5433 10.2536C40.2064 9.65587 41.0393 9.59125 41.5892 10.0193C42.2119 10.504 42.1633 11.3844 41.8156 12.0386C41.4679 12.709 40.8938 13.0644 40.3358 13.2341C40.3358 13.2341 40.2226 13.2583 40.2388 13.3633C40.263 13.5329 41.0151 13.9529 41.0798 14.0579C41.1444 14.1629 41.1121 14.3245 40.9989 14.4537C40.918 14.5426 40.7967 14.6314 40.635 14.6314C40.5056 14.6314 40.4247 14.5829 40.263 14.4941C39.9234 14.3083 39.5029 14.0095 39.2199 13.6541C39.1228 13.5329 39.0743 13.5329 38.8317 13.541C37.7481 13.6056 36.0661 13.7672 34.9259 13.9045C34.651 13.9368 34.6106 13.9933 34.5539 14.0822C32.7345 17.0788 30.7937 20.3097 28.6589 22.4744C26.3704 24.8087 24.4701 25.4225 22.4485 25.4387Z" fill="#081630"/>
<path d="M44.5 1.3085C20.7823 1.3085 1.56069 7.85103 1.56069 15.8636C1.56069 23.8762 20.7823 30.4187 44.5 30.4187C68.2096 30.4187 87.4312 23.8762 87.4312 15.8636C87.4312 7.8591 68.2096 1.3085 44.5 1.3085ZM44.5 31.7433C19.9251 31.7433 0 24.6354 0 15.8717C0 7.09985 19.9251 0 44.5 0C69.0749 0 89 7.10792 89 15.8717C89 24.6354 69.0749 31.7433 44.5 31.7433Z" fill="#081630"/>
</svg>
