<svg width="175" height="151" viewBox="0 0 175 151" fill="none" xmlns="http://www.w3.org/2000/svg">
<path fill-rule="evenodd" clip-rule="evenodd" d="M88.1704 11.9641C103.825 14.7547 108.687 31.9922 121.215 40.5678C132.898 48.565 151.335 48.8283 158.512 60.1141C166.049 71.9653 162.963 86.6485 158.811 99.6861C154.498 113.232 148.883 128.332 134.633 135.103C120.707 141.719 104.013 134.346 88.1704 133.249C73.9891 132.266 59.1074 135.22 46.8232 129.02C33.8889 122.493 25.9389 110.889 20.1876 98.9399C14.0135 86.1127 8.69185 72.1431 13.0055 58.7603C17.4057 45.109 30.1619 34.9939 43.4697 26.7087C56.7336 18.4508 72.1582 9.10973 88.1704 11.9641Z" fill="#F1BC00"/>
<g clip-path="url(#clip0_47_5448)">
<path d="M89.2616 56.1499C74.2425 56.1499 62.053 67.5529 62.053 81.603C62.053 95.6532 74.2425 107.056 89.2616 107.056C104.281 107.056 116.47 95.6532 116.47 81.603C116.47 67.5529 104.281 56.1499 89.2616 56.1499ZM99.0839 72.2872C101.995 72.2872 104.335 74.4762 104.335 77.1996C104.335 79.9231 101.995 82.1121 99.0839 82.1121C96.1726 82.1121 93.8326 79.9231 93.8326 77.1996C93.8054 74.4762 96.1726 72.2872 99.0839 72.2872ZM82.7587 68.2656C86.2959 68.2656 89.18 70.9636 89.18 74.2725C89.18 77.5814 86.2959 80.2795 82.7587 80.2795C79.2216 80.2795 76.3375 77.5814 76.3375 74.2725C76.3375 70.9382 79.1944 68.2656 82.7587 68.2656ZM82.7587 91.5043V101.049C76.2287 99.1403 71.0591 94.4314 68.7735 88.4245C71.6304 85.5737 78.7591 84.1229 82.7587 84.1229C84.2008 84.1229 86.0238 84.3265 87.9284 84.6829C83.4662 86.8973 82.7587 89.8244 82.7587 91.5043ZM89.2616 101.966C88.527 101.966 87.8195 101.94 87.1121 101.864V91.5043C87.1121 87.89 95.1114 86.0828 99.0839 86.0828C101.995 86.0828 107.029 87.0755 109.532 89.0099C106.349 96.5695 98.4853 101.966 89.2616 101.966Z" fill="white"/>
</g>
<defs>
<clipPath id="clip0_47_5448">
<rect width="65.2699" height="61.059" fill="white" transform="translate(56.6379 51.0591) scale(1.00047)"/>
</clipPath>
</defs>
</svg>
