<svg width="100" height="74" viewBox="0 0 100 74" fill="none" xmlns="http://www.w3.org/2000/svg">
<path fill-rule="evenodd" clip-rule="evenodd" d="M48.1717 0.0125251C69.6203 -0.341306 92.1651 6.79087 98.5536 22.7764C104.774 38.3419 89.9333 52.6795 73.0625 62.2948C56.0272 72.0039 33.8258 78.9735 16.5745 69.4997C-1.27531 59.6972 -3.35627 40.3914 3.94389 24.3372C10.6131 9.67052 28.2374 0.341377 48.1717 0.0125251Z" fill="#F1BC00"/>
<path d="M42.3005 10.086C40.8526 10.3778 39.9464 10.7113 38.811 11.3782C36.9152 12.4932 35.4361 14.5253 35.009 16.6199C34.884 17.2243 34.6445 20.6527 34.6445 21.7782C34.6445 22.0283 34.5507 22.2471 34.332 22.4868C33.8632 23.0078 33.7799 23.4768 33.8424 25.1962C33.8841 26.6343 33.9049 26.7489 34.2591 27.6034C34.6757 28.6247 35.134 29.4166 35.6861 30.094C36.2382 30.7713 36.5402 31.2924 36.884 32.1781C37.1965 33.0014 37.7173 33.9393 38.2277 34.627C38.5089 35.0126 39.8318 36.3569 40.1756 36.6174C40.4985 36.8571 41.613 37.4719 41.8422 37.5449C41.9776 37.5761 42.1859 37.6491 42.3005 37.7012C43.9463 38.4202 46.1233 38.191 48.0191 37.0968C48.769 36.6591 48.894 36.5653 49.6857 35.7733C50.4565 35.0022 50.769 34.6375 50.9148 34.304C50.9773 34.1685 51.071 34.0539 51.1231 34.0539C51.1648 34.0539 51.2065 34.0018 51.2065 33.9288C51.2065 33.8663 51.269 33.7309 51.3419 33.6475C51.4564 33.5016 51.6023 33.1994 52.1856 31.8447C52.2793 31.6363 52.3523 31.4383 52.3523 31.3966C52.3523 31.3132 52.9147 30.4796 53.1126 30.2816C53.2897 30.094 53.9355 29.0936 54.2064 28.583C54.998 27.1032 55.2063 26.2279 55.1438 24.571C55.0918 23.2371 55.0293 22.9974 54.5814 22.4555C54.3522 22.1846 54.3314 22.0595 54.3314 21.0383C54.3314 20.4235 54.2584 19.3605 54.1647 18.6832C53.946 16.9742 53.7376 16.3906 52.9772 15.3485C52.5918 14.8171 52.4668 14.5357 52.2585 13.7854C51.7794 11.9722 49.3211 10.4924 46.1545 10.086C45.2796 9.97138 42.8838 9.97138 42.3005 10.086Z" fill="white"/>
<path d="M64.3319 33.637C63.5715 33.71 62.9361 33.8663 61.6757 34.2831C61.082 34.4707 59.2591 35.3981 58.9466 35.6482C58.6133 35.9296 58.53 35.9921 58.155 36.2735C57.6342 36.6695 56.7384 37.5553 56.3634 38.0659C56.0509 38.4827 55.9676 38.5869 55.6967 38.8995C55.3947 39.2747 54.5613 41.0358 54.2905 41.9216C54.1239 42.4322 53.9572 42.9637 53.9051 43.0991C53.853 43.2346 53.7593 43.9015 53.6864 44.5789C53.5614 45.8502 53.6864 47.9969 53.9051 48.5596C53.9572 48.6951 54.1239 49.1953 54.2801 49.6851C54.603 50.7167 55.0926 51.738 55.7696 52.7592C56.2592 53.4887 57.8425 55.156 58.4779 55.6041C59.2695 56.1564 59.7174 56.4482 60.1133 56.6462C61.9257 57.5632 63.3423 57.9175 65.4256 57.9905C68.988 58.1155 71.8733 57.0109 74.3732 54.5516C76.0711 52.8843 76.9773 51.342 77.696 48.9035C77.9565 48.0386 78.0085 47.528 77.9981 45.7252C77.9877 43.9745 77.946 43.641 77.5919 42.328C77.3002 41.2963 76.4565 39.5039 75.9773 38.8995C75.9253 38.837 75.6753 38.5244 75.4253 38.1805C74.8732 37.4615 73.7691 36.3777 73.1545 35.9609C72.9149 35.8046 72.6962 35.6482 72.6649 35.617C72.6025 35.544 71.8525 35.1064 71.1754 34.7521C70.9046 34.6062 70.5088 34.429 70.29 34.3665C70.0817 34.304 69.8109 34.2102 69.6963 34.1685C68.4047 33.6474 66.3422 33.439 64.3319 33.637ZM63.9777 36.6174C64.5923 36.9092 64.6131 37.0446 64.6964 40.3063L64.7694 43.2867L64.3527 43.5785C63.7902 43.9641 63.4048 44.5789 63.2694 45.2875C63.1444 45.9753 63.0715 46.1524 62.8632 46.2671C62.7798 46.3087 62.0194 46.7568 61.1549 47.257C58.8216 48.6117 58.2175 48.8931 57.655 48.8931C56.655 48.8931 56.2175 48.1845 56.1342 46.4234C56.0092 43.8182 56.655 41.734 58.2071 39.7332C59.1445 38.5244 60.3112 37.6074 61.7382 36.9404C62.884 36.3985 63.3736 36.336 63.9777 36.6174ZM70.0713 36.9925C71.4879 37.6803 72.6858 38.6703 73.7899 40.0458C74.2066 40.5669 75.1649 42.5781 75.1649 42.9324C75.1649 43.0158 75.217 43.1304 75.2795 43.1929C75.4357 43.3492 75.5503 45.4751 75.4774 46.8819C75.4253 47.8823 75.394 48.0178 75.1336 48.3616C74.8107 48.7889 74.217 49.0077 73.7378 48.8931C73.217 48.7576 72.2275 48.2574 70.3838 47.1632C68.6338 46.1316 68.5713 46.0795 68.5297 45.7252C68.4567 44.9957 68.1755 44.3705 67.6964 43.9015C67.4464 43.641 67.186 43.4326 67.1235 43.4326C67.061 43.4326 67.0401 42.3593 67.061 40.3689C67.0922 37.4406 67.1026 37.2843 67.3109 37.0029C67.8422 36.2839 68.6026 36.2839 70.0713 36.9925ZM66.4881 44.8081C67.1235 45.2458 67.186 46.0899 66.6235 46.6735C66.061 47.2779 64.9881 46.9757 64.7381 46.1524C64.509 45.3917 65.0819 44.5789 65.8318 44.5789C65.9985 44.5789 66.3006 44.6831 66.4881 44.8081ZM65.1131 48.3304C65.8735 48.5284 65.9568 48.5284 66.5089 48.3721C67.4984 48.0907 67.6026 48.0907 68.0401 48.3408C68.2588 48.4658 68.5609 48.643 68.7067 48.716C69.4151 49.1119 71.7796 50.5396 72.1858 50.8105C73.5503 51.738 72.8108 53.2177 70.3317 54.4682C67.9255 55.6979 65.3006 55.9167 62.8632 55.0935C60.8007 54.4057 59.2904 53.3532 58.9675 52.3945C58.8112 51.936 58.8216 51.863 58.9779 51.4566C59.1237 51.0919 59.3008 50.9252 60.0508 50.4458C60.5403 50.1228 61.1861 49.7372 61.4674 49.5809C61.759 49.4246 62.2278 49.164 62.509 48.9973C63.4673 48.4554 64.0715 48.1428 64.186 48.1324C64.2485 48.122 64.6652 48.2158 65.1131 48.3304Z" fill="white"/>
<path d="M36.4688 35.2002C36.3542 35.2523 35.7918 35.4919 35.2189 35.7212C34.646 35.9609 34.0835 36.1901 33.9689 36.2422C33.8543 36.2943 33.2502 36.5549 32.6148 36.8154C30.344 37.7533 28.0212 38.9204 27.2608 39.504C26.6045 40.0146 25.5421 41.0879 25.0317 41.7653C23.9171 43.2555 22.8442 45.7252 22.4172 47.8198C22.3234 48.2574 22.2297 48.6847 22.1984 48.7576C22.1047 49.0286 21.9589 51.0919 22.0109 51.4254C22.063 51.7172 22.1463 51.8005 22.7088 52.0715C25.1463 53.2178 29.0524 54.0202 35.5313 54.6975C37.2084 54.8747 48.0414 54.9372 51.26 54.8017C53.7599 54.6871 55.062 54.5516 55.062 54.4162C55.062 54.364 54.7703 53.8847 54.6141 53.6971C54.4474 53.4783 54.0204 52.8009 54.0204 52.7488C54.0204 52.728 53.9162 52.53 53.7808 52.3111C53.6558 52.1027 53.437 51.6442 53.3016 51.3003C53.1662 50.9564 52.9891 50.5292 52.9162 50.3625C52.6558 49.758 52.3642 48.5805 52.2392 47.653C52.1142 46.6631 52.1767 43.7348 52.3433 42.9637C52.4892 42.3072 52.76 41.3172 52.8641 41.0879C53.1975 40.3168 53.8745 38.9933 53.937 38.9725C53.9891 38.9517 54.0204 38.8891 54.0204 38.837C54.0204 38.7432 55.2182 37.0238 55.4474 36.7841C55.5203 36.7008 55.562 36.607 55.5307 36.5549C55.5099 36.5132 55.0724 36.3048 54.5724 36.0964C54.062 35.8775 53.562 35.6691 53.4475 35.617C53.3329 35.5649 52.9891 35.419 52.6766 35.2939L52.1246 35.0647L51.8433 35.4086C50.5205 37.1176 48.7393 38.4306 46.8852 39.0663C46.2289 39.2851 45.9789 39.3164 44.3748 39.3164C43.2186 39.3164 42.5415 39.2747 42.4478 39.2018C42.3645 39.1392 42.1666 39.0559 41.9895 39.0142C41.8228 38.9725 41.5103 38.8579 41.3124 38.7745C40.8645 38.5661 39.5104 37.7949 39.4375 37.7012C39.4062 37.6699 39.1979 37.5032 38.9792 37.326C38.4479 36.9404 37.9584 36.4507 37.323 35.6899C36.7917 35.0647 36.7917 35.0543 36.4688 35.2002Z" fill="white"/>
</svg>
