<svg width="42" height="42" viewBox="0 0 42 42" fill="none" xmlns="http://www.w3.org/2000/svg">
<path d="M21 37.116C12.1116 37.116 4.88371 29.8881 4.88371 20.9997C4.88371 12.1114 12.1116 4.88347 21 4.88347C29.8884 4.88347 37.1163 12.1114 37.1163 20.9997C37.1163 29.8881 29.8884 37.116 21 37.116ZM21 7.8137C13.733 7.8137 7.81394 13.7328 7.81394 20.9997C7.81394 28.2667 13.733 34.1858 21 34.1858C28.267 34.1858 34.186 28.2667 34.186 20.9997C34.186 13.7328 28.267 7.8137 21 7.8137Z" fill="#F1BC00"/>
<path d="M21 28.3253C16.9563 28.3253 13.6744 25.0434 13.6744 20.9997C13.6744 16.956 16.9563 13.6741 21 13.6741C25.0437 13.6741 28.3256 16.956 28.3256 20.9997C28.3256 25.0434 25.0437 28.3253 21 28.3253ZM21 16.6043C18.5777 16.6043 16.6046 18.5774 16.6046 20.9997C16.6046 23.422 18.5777 25.395 21 25.395C23.4223 25.395 25.3953 23.422 25.3953 20.9997C25.3953 18.5774 23.4223 16.6043 21 16.6043Z" fill="#F1BC00"/>
<path d="M21 6.83721C20.1991 6.83721 19.5349 6.17302 19.5349 5.37209V1.46512C19.5349 0.664186 20.1991 0 21 0C21.801 0 22.4651 0.664186 22.4651 1.46512V5.37209C22.4651 6.17302 21.801 6.83721 21 6.83721Z" fill="#F1BC00"/>
<path d="M5.37209 22.4651H1.46512C0.664186 22.4651 0 21.8009 0 21C0 20.199 0.664186 19.5348 1.46512 19.5348H5.37209C6.17302 19.5348 6.83721 20.199 6.83721 21C6.83721 21.8009 6.17302 22.4651 5.37209 22.4651Z" fill="#F1BC00"/>
<path d="M21 41.9997C20.1991 41.9997 19.5349 41.3355 19.5349 40.5346V36.6276C19.5349 35.8267 20.1991 35.1625 21 35.1625C21.801 35.1625 22.4651 35.8267 22.4651 36.6276V40.5346C22.4651 41.3355 21.801 41.9997 21 41.9997Z" fill="#F1BC00"/>
<path d="M40.5349 22.4651H36.6279C35.827 22.4651 35.1628 21.8009 35.1628 21C35.1628 20.199 35.827 19.5348 36.6279 19.5348H40.5349C41.3358 19.5348 42 20.199 42 21C42 21.8009 41.3358 22.4651 40.5349 22.4651Z" fill="#F1BC00"/>
</svg>
