<svg width="20" height="20" viewBox="0 0 20 20" fill="none" xmlns="http://www.w3.org/2000/svg">
<path d="M11.667 9.16667H12.5003C13.4208 9.16667 14.167 9.91286 14.167 10.8333V13.3333C14.167 14.0237 14.7266 14.5833 15.417 14.5833C16.1073 14.5833 16.667 14.0237 16.667 13.3333V7.5L14.167 5" stroke="#081630" stroke-width="1.75" stroke-linecap="round" stroke-linejoin="round"/>
<path d="M3.33301 16.6666V4.99992C3.33301 4.07944 4.0792 3.33325 4.99967 3.33325H9.99967C10.9201 3.33325 11.6663 4.07944 11.6663 4.99992V16.6666" stroke="#081630" stroke-width="1.75" stroke-linecap="round" stroke-linejoin="round"/>
<path d="M2.5 16.6667H12.5" stroke="#081630" stroke-width="1.75" stroke-linecap="round" stroke-linejoin="round"/>
<path d="M15 5.83325V6.66659C15 7.12682 15.3731 7.49992 15.8333 7.49992H16.6667" stroke="#081630" stroke-width="1.75" stroke-linecap="round" stroke-linejoin="round"/>
<path d="M3.33301 9.16667H11.6663" stroke="#081630" stroke-width="1.75" stroke-linecap="round" stroke-linejoin="round"/>
</svg>
