<svg width="13" height="13" viewBox="0 0 13 13" fill="none" xmlns="http://www.w3.org/2000/svg">
<path d="M13 12.2112L9.16431 8.37213C9.86848 7.49192 10.2917 6.37135 10.2917 5.1526C10.2917 2.30547 7.98619 0 5.14583 0C2.30208 0 0 2.30885 0 5.1526C0 7.99634 2.30547 10.3052 5.14583 10.3052C6.37135 10.3052 7.4953 9.87525 8.3789 9.16093L12.2112 13L13 12.2112ZM1.88906 8.41614C1.01901 7.54609 0.541666 6.38827 0.541666 5.15598C0.541666 3.92369 1.02239 2.76588 1.88906 1.89583C2.75573 1.02578 3.91692 0.541666 5.14583 0.541666C6.37473 0.541666 7.53254 1.02239 8.40259 1.89245C9.27265 2.7625 9.74999 3.92031 9.74999 5.1526C9.74999 6.38489 9.26926 7.5427 8.40259 8.41275C7.53254 9.2828 6.37473 9.76353 5.14583 9.76353C3.91692 9.76692 2.75911 9.28619 1.88906 8.41614Z" fill="#081630" fill-opacity="0.48"/>
</svg>
