<svg width="17" height="17" viewBox="0 0 17 17" fill="none" xmlns="http://www.w3.org/2000/svg">
<path d="M13.0467 3.2585H11.9895V2.8335C11.9895 2.4085 11.7076 2.12517 11.2847 2.12517C10.8618 2.12517 10.5799 2.4085 10.5799 2.8335V3.2585H7.90162C7.47873 3.2585 7.19681 3.54183 7.19681 3.96683C7.19681 4.39183 7.47873 4.67516 7.90162 4.67516H10.6504V5.10016C10.6504 5.52516 10.9323 5.8085 11.3552 5.8085C11.7781 5.8085 12.06 5.52516 12.06 5.10016V4.67516H13.1172C13.6106 4.67516 14.1039 5.10016 14.1039 5.66683V6.6585H2.82699V5.66683C2.82699 5.10016 3.32036 4.67516 3.88421 4.67516H4.94142V5.10016C4.94142 5.52516 5.22334 5.8085 5.64623 5.8085C6.06911 5.8085 6.35104 5.52516 6.35104 5.10016V3.96683V2.8335C6.35104 2.4085 6.06911 2.12517 5.64623 2.12517C5.22334 2.12517 4.94142 2.4085 4.94142 2.8335V3.2585H3.88421C2.47459 3.2585 1.41738 4.321 1.41738 5.66683V12.4668C1.41738 13.8127 2.47459 14.8752 3.88421 14.8752H13.1172C14.4563 14.8752 15.584 13.8127 15.584 12.4668V5.66683C15.5136 4.321 14.4563 3.2585 13.0467 3.2585ZM13.0467 13.4585H3.88421C3.32036 13.4585 2.82699 13.0335 2.82699 12.4668V8.07516H14.1039V12.4668C14.1039 13.0335 13.6106 13.4585 13.0467 13.4585Z" fill="#081630"/>
</svg>
