<svg width="100" height="40" viewBox="0 0 100 40" fill="none" xmlns="http://www.w3.org/2000/svg">
<g clip-path="url(#clip0_47_5341)">
<path d="M92.0567 13.961L70.8732 11.9842C70.3088 11.9842 69.6021 11.7015 69.0368 11.5602L54.2088 4.49904C49.2666 2.09821 43.617 0.827137 38.1096 0.827137C28.2228 0.827137 18.7616 4.49904 11.5583 10.9957C11.2757 11.1362 10.9939 11.2784 10.7104 11.2784L6.89718 11.4189C5.34429 11.2784 3.79057 11.9842 2.66082 13.1131C1.53107 14.2437 0.826106 15.6561 0.826106 17.3511V22.4354C0.826106 28.3668 5.62776 33.309 11.7005 33.309H12.8294C14.3831 36.5569 17.6311 38.9585 21.4451 38.9585C25.2575 38.9585 28.6476 36.699 30.06 33.309H74.5443C76.098 36.5569 79.3459 38.9585 83.1592 38.9585C87.255 38.9585 90.6443 36.4164 92.0567 32.8866C96.5757 31.6147 99.8236 27.3784 99.8236 22.5767C100.107 17.6346 96.5757 14.1032 92.0567 13.961ZM12.5476 31.8957H11.8418C10.0131 31.8897 8.22285 31.3704 6.67482 30.3969C5.12679 29.4233 3.88319 28.0347 3.08561 26.3891H12.6889C12.4079 27.237 12.2658 28.2255 12.2658 29.2139C12.1253 30.0618 12.2658 30.9081 12.5476 31.8974V31.8957ZM29.636 31.8957C29.4955 32.3197 29.3534 32.6023 29.2121 33.0255C28.4946 34.3891 27.4183 35.5308 26.0992 36.3273C24.7802 37.1237 23.2686 37.5446 21.7278 37.5445C18.4798 37.5445 15.655 35.7081 14.384 33.0255C14.2435 32.7437 14.1013 32.3197 13.96 31.8957C13.6773 31.0486 13.3955 30.0602 13.3955 29.0709C13.3955 28.0825 13.536 27.0941 13.96 26.247C14.1005 25.823 14.2426 25.5412 14.384 25.1172C15.7964 22.4346 18.6211 20.5982 21.7278 20.5982C24.9757 20.5982 27.6592 22.4346 29.0707 25.1172C29.2121 25.3999 29.3542 25.823 29.4947 26.247C29.7773 27.0941 30.06 28.0825 30.06 29.0718C30.06 30.0602 29.9195 31.0486 29.636 31.8957ZM74.4038 31.8957H30.7658C31.0484 31.0486 31.1889 30.0602 31.1889 29.0709C31.1889 28.0825 31.0484 27.0941 30.7658 26.247H74.4038C74.122 27.0941 73.9798 28.0825 73.9798 29.0718C73.9798 30.0602 74.122 30.9073 74.4038 31.8957ZM91.3509 31.6147C91.2088 32.0379 91.0683 32.4618 90.9269 32.7437C89.5145 35.5685 86.6897 37.404 83.4426 37.404C80.1947 37.404 77.3691 35.5676 76.0988 32.8842C75.9567 32.6032 75.8162 32.1792 75.6749 31.7552C75.3922 30.9073 75.1104 29.9189 75.1104 28.9304C75.1104 27.942 75.2509 26.9536 75.6749 26.1056C75.8154 25.6817 75.9567 25.3999 76.0988 24.9759C77.5112 22.2924 80.3352 20.4569 83.4426 20.4569C86.6897 20.4569 89.374 22.2932 90.7856 24.9759C90.9269 25.2594 91.0682 25.6817 91.2088 26.1056C91.4914 26.9536 91.7749 27.942 91.7749 28.9304C91.7829 29.8422 91.6397 30.7499 91.3509 31.6147ZM92.6211 31.1899C92.7633 30.4842 92.9038 29.7784 92.9038 29.0718C92.9038 28.0833 92.7633 27.0949 92.4807 26.2478H97.9881C96.9997 28.5073 95.022 30.3428 92.6211 31.1899ZM92.0567 25.118C90.503 21.8701 87.255 19.4693 83.4426 19.4693C79.6302 19.4693 76.2402 21.7296 74.8278 25.118H30.341C28.7873 21.8701 25.5393 19.4693 21.7261 19.4693C17.9129 19.4693 14.5236 21.7296 13.1112 25.118H2.66247C2.37342 24.2535 2.23014 23.3469 2.2385 22.4354H5.0633C5.20964 22.4248 5.34728 22.3619 5.45095 22.258C5.55463 22.1542 5.6174 22.0165 5.62776 21.8701C5.61721 21.7239 5.55436 21.5864 5.4507 21.4827C5.34704 21.379 5.20951 21.3162 5.0633 21.3056H2.2385V17.7751H5.0633C5.20951 17.7645 5.34704 17.7017 5.4507 17.598C5.55436 17.4943 5.61721 17.3568 5.62776 17.2106C5.6174 17.0642 5.55463 16.9265 5.45095 16.8227C5.34728 16.7189 5.20964 16.6559 5.0633 16.6453H2.37983C2.52115 15.5156 2.94511 14.3858 3.79305 13.5387C4.64016 12.6924 5.9104 12.2676 7.04098 12.2676H7.18148L10.9955 12.1271C11.4963 12.1183 11.985 11.9716 12.4079 11.7032C19.4691 5.3478 28.7889 1.81722 38.393 1.81722C43.7592 1.81722 49.1261 3.08829 54.0683 5.3478L68.8972 12.409C69.603 12.6916 70.3096 12.9742 71.0154 12.9742L92.198 14.9511C94.741 15.0916 96.8592 16.3643 97.9889 18.3404H92.4815C92.3352 18.3512 92.1976 18.4143 92.0939 18.518C91.9901 18.6218 91.9271 18.7593 91.9162 18.9056C91.9274 19.0518 91.9906 19.189 92.0943 19.2926C92.198 19.3961 92.3353 19.4591 92.4815 19.4701H98.5534C98.836 20.318 99.1187 21.1643 99.1187 22.1528C99.1187 23.2825 98.9773 24.2709 98.5534 25.2602H92.0575V25.1189L92.0567 25.118Z" fill="#081630" stroke="#081630" stroke-width="0.295066"/>
<path d="M87.2555 25.1189C86.267 24.1305 84.9951 23.5652 83.4422 23.5652C82.029 23.5652 80.6175 24.1305 79.629 25.1189C79.3472 25.4015 79.0637 25.8247 78.7811 26.2486C78.2237 27.0851 77.9263 28.0678 77.9263 29.073C77.9263 30.0782 78.2237 31.0609 78.7811 31.8974C79.0637 32.3214 79.3464 32.604 79.629 33.0272C80.6175 34.0156 82.0299 34.5809 83.4422 34.5809C84.9951 34.5809 86.267 34.0156 87.2555 33.0272C87.5373 32.7445 87.8199 32.3214 88.1026 31.8974C88.5257 31.0503 88.9497 30.2032 88.9497 29.0734C88.9521 28.0689 88.6573 27.0861 88.1026 26.2486C87.8199 25.8247 87.5373 25.5429 87.2555 25.1189ZM86.6902 31.8974C86.267 32.3214 85.8431 32.7453 85.2778 33.0272C84.7133 33.309 84.0067 33.5924 83.3009 33.5924C82.5951 33.5924 81.8885 33.4511 81.3241 33.0272C80.7588 32.7445 80.3356 32.3214 79.9108 31.8974C79.2727 31.0944 78.9246 30.0992 78.9232 29.0734C78.9232 27.9429 79.3472 27.0957 79.9117 26.2486C80.3356 25.8247 80.7588 25.4007 81.3241 25.1189C81.8885 24.8371 82.5943 24.6949 83.3009 24.6949C84.0075 24.6949 84.5712 24.8354 85.2778 25.1189C85.8431 25.4015 86.267 25.8247 86.6902 26.2486C87.396 26.9544 87.6786 27.9429 87.6786 29.0734C87.8199 30.2024 87.396 31.0503 86.6902 31.8974ZM36.8398 16.3619H34.015C33.8686 16.3724 33.731 16.4354 33.6273 16.5392C33.5236 16.6431 33.4609 16.7808 33.4505 16.9272C33.4611 17.0734 33.5239 17.2109 33.6276 17.3146C33.7312 17.4182 33.8688 17.4811 34.015 17.4916H36.8398C36.986 17.4811 37.1235 17.4182 37.2272 17.3146C37.3308 17.2109 37.3937 17.0734 37.4042 16.9272C37.3939 16.7808 37.3311 16.6431 37.2274 16.5392C37.1238 16.4354 36.9861 16.3724 36.8398 16.3619ZM25.5423 25.1189C24.5538 24.1305 23.2819 23.5652 21.729 23.5652C20.1753 23.5652 18.9042 24.1305 17.9158 25.1189C17.6332 25.4015 17.3505 25.8247 17.0679 26.2486C16.5132 27.0861 16.2184 28.0689 16.2208 29.0734C16.2208 30.0619 16.5034 31.0503 17.0679 31.8974C17.3505 32.3214 17.6332 32.604 17.9158 33.0272C18.9042 34.0156 20.3166 34.5809 21.729 34.5809C23.2827 34.5809 24.5538 34.0156 25.5423 33.0272C25.8241 32.7453 26.1067 32.3214 26.3894 31.8974C26.8133 31.0503 27.2373 30.2032 27.2373 29.0734C27.2393 28.0688 26.9443 27.0861 26.3894 26.2486C26.1067 25.8247 25.8249 25.5429 25.5423 25.1189ZM24.977 31.8974C24.5538 32.3214 24.1299 32.7453 23.5646 33.0272C23.0001 33.309 22.2935 33.5924 21.5877 33.5924C20.8819 33.5924 20.1753 33.4511 19.6108 33.0272C19.0456 32.7453 18.6224 32.3214 18.1985 31.8974C17.5599 31.0945 17.2116 30.0993 17.21 29.0734C17.21 27.9429 17.634 27.0957 18.1985 26.2486C18.6224 25.8247 19.0464 25.4007 19.6108 25.1189C20.1753 24.8371 20.8819 24.6949 21.5877 24.6949C22.2935 24.6949 22.8588 24.8354 23.5646 25.1189C24.1299 25.4015 24.5538 25.8247 24.9778 26.2486C25.6836 26.9544 25.9662 27.9429 25.9662 29.0734C26.1067 30.2024 25.6827 31.0503 24.977 31.8974ZM62.5431 11.9867L50.1158 6.33707C48.2794 5.48914 46.4431 4.92468 44.6075 4.50071C41.5018 3.7941 38.2522 3.6536 35.0042 4.36021L33.8745 4.50071C29.6381 5.34864 25.6844 7.46683 22.7175 10.5734C22.2943 10.9966 22.153 11.7032 22.4356 12.2677C22.7166 12.8321 23.1414 13.2561 23.8472 13.2561L61.9778 14.104C62.4018 14.104 62.8257 13.8205 62.967 13.3974C63.2497 12.5495 62.967 12.1255 62.5431 11.9842V11.9867ZM31.3323 12.1272L23.9885 11.9867C23.7059 11.9867 23.5646 11.7032 23.5646 11.7032C23.5646 11.7032 23.4241 11.4205 23.7051 11.28C25.8241 9.01972 28.5075 7.3255 31.3323 6.33707V12.1272ZM32.3208 12.1272V5.91311C32.8852 5.77261 33.5918 5.63046 34.1571 5.48914L35.2861 5.34864C36.6993 5.066 37.9704 4.92468 39.3819 4.92468C41.0761 4.92468 42.7703 5.06517 44.4654 5.48914C46.3018 5.91311 48.1365 6.4784 49.8315 7.3255L61.6943 12.8329L32.3199 12.1263L32.3208 12.1272Z" fill="#081630" stroke="#081630" stroke-width="0.295066"/>
</g>
<defs>
<clipPath id="clip0_47_5341">
<rect width="99.1749" height="39.3421" fill="white" transform="scale(1.00832)"/>
</clipPath>
</defs>
</svg>
