<svg width="175" height="151" viewBox="0 0 175 151" fill="none" xmlns="http://www.w3.org/2000/svg">
<path fill-rule="evenodd" clip-rule="evenodd" d="M88.1703 11.9641C103.825 14.7547 108.687 31.9922 121.215 40.5678C132.898 48.565 151.335 48.8283 158.512 60.1141C166.049 71.9653 162.963 86.6485 158.811 99.6861C154.498 113.232 148.883 128.332 134.633 135.103C120.707 141.719 104.013 134.346 88.1703 133.249C73.9891 132.266 59.1073 135.22 46.8232 129.02C33.8888 122.493 25.9388 110.889 20.1876 98.9399C14.0135 86.1127 8.69179 72.1431 13.0054 58.7603C17.4056 45.109 30.1618 34.9939 43.4697 26.7087C56.7335 18.4508 72.1581 9.10973 88.1703 11.9641Z" fill="#F1BC00"/>
<g clip-path="url(#clip0_47_5425)">
<g clip-path="url(#clip1_47_5425)">
<path d="M108.515 64.4611H100.353V59.3705C100.353 56.5452 97.931 54.2798 94.9109 54.2798H78.5858C75.5656 54.2798 73.144 56.5452 73.144 59.3705V64.4611H64.9815C61.9613 64.4611 59.5398 66.7264 59.5398 69.5518V97.5502C59.5398 100.376 61.9613 102.641 64.9815 102.641H108.515C111.535 102.641 113.957 100.376 113.957 97.5502V69.5518C113.957 66.7264 111.535 64.4611 108.515 64.4611ZM78.5858 59.3705H94.9109V64.4611H78.5858V59.3705ZM108.515 97.5502H64.9815V92.4596H108.515V97.5502ZM108.515 84.8237H64.9815V69.5518H73.144V74.6424H78.5858V69.5518H94.9109V74.6424H100.353V69.5518H108.515V84.8237Z" fill="white"/>
</g>
</g>
<defs>
<clipPath id="clip0_47_5425">
<rect width="56.0268" height="53.74" fill="white" transform="translate(59.8171 49.1891) scale(1.00047)"/>
</clipPath>
<clipPath id="clip1_47_5425">
<rect width="65.2699" height="61.059" fill="white" transform="translate(54.0978 49.1891) scale(1.00047)"/>
</clipPath>
</defs>
</svg>
