<svg width="42" height="42" viewBox="0 0 42 42" fill="none" xmlns="http://www.w3.org/2000/svg">
<path d="M26.8604 41.9999H15.1395C4.53209 41.9999 0 37.4678 0 26.8604V15.1395C0 4.53209 4.53209 0 15.1395 0H26.8604C37.4678 0 41.9999 4.53209 41.9999 15.1395V26.8604C41.9999 37.4678 37.4678 41.9999 26.8604 41.9999ZM15.1395 2.93023C6.13394 2.93023 2.93023 6.13394 2.93023 15.1395V26.8604C2.93023 35.866 6.13394 39.0697 15.1395 39.0697H26.8604C35.866 39.0697 39.0697 35.866 39.0697 26.8604V15.1395C39.0697 6.13394 35.866 2.93023 26.8604 2.93023H15.1395Z" fill="#F1BC00"/>
<path d="M21 32.7401C14.8074 32.7401 9.76744 27.7001 9.76744 21.5075C9.76744 15.315 14.8074 10.275 21 10.275C22.2502 10.275 23.5004 10.4508 24.6921 10.822C25.4735 11.0564 25.9032 11.8768 25.6688 12.6582C25.4344 13.4396 24.6139 13.8694 23.8325 13.635C22.9339 13.3615 21.9767 13.2247 21 13.2247C16.4288 13.2247 12.6977 16.9559 12.6977 21.5271C12.6977 26.0982 16.4288 29.8294 21 29.8294C25.5711 29.8294 29.3023 26.0982 29.3023 21.5271C29.3023 19.8666 28.8139 18.2843 27.9153 16.9168C27.466 16.2527 27.6418 15.3345 28.3255 14.8852C28.9897 14.4359 29.9079 14.6117 30.3572 15.2954C31.5879 17.1513 32.252 19.3001 32.252 21.5271C32.2325 27.7196 27.1925 32.7401 21 32.7401Z" fill="#F1BC00"/>
<path d="M25.6496 13.9673C25.2394 13.9673 24.8291 13.7915 24.5361 13.4594L21.2738 9.72826C20.7463 9.12268 20.8049 8.185 21.4105 7.65756C22.0161 7.13011 22.9538 7.18872 23.4812 7.7943L26.7435 11.5255C27.271 12.131 27.2124 13.0687 26.6068 13.5962C26.3333 13.8501 26.0012 13.9673 25.6496 13.9673Z" fill="#F1BC00"/>
<path d="M21.8593 16.7413C21.41 16.7413 20.9607 16.5264 20.6677 16.1357C20.1988 15.4911 20.3356 14.5729 20.9802 14.0845L24.77 11.3106C25.4146 10.8418 26.3328 10.9785 26.8211 11.6231C27.29 12.2678 27.1533 13.1859 26.5086 13.6743L22.7188 16.4483C22.4649 16.6436 22.1523 16.7413 21.8593 16.7413Z" fill="#F1BC00"/>
</svg>
