<svg width="100" height="74" viewBox="0 0 100 74" fill="none" xmlns="http://www.w3.org/2000/svg">
<path fill-rule="evenodd" clip-rule="evenodd" d="M48.1717 0.0125251C69.6203 -0.341306 92.1651 6.79087 98.5536 22.7764C104.774 38.3419 89.9333 52.6795 73.0625 62.2948C56.0272 72.0039 33.8258 78.9735 16.5745 69.4997C-1.27531 59.6972 -3.35627 40.3914 3.94389 24.3372C10.6131 9.67052 28.2374 0.341377 48.1717 0.0125251Z" fill="#F1BC00"/>
<path d="M57.8984 13.363C54.3642 14.5661 51.5819 17.01 50.1156 20.2058C48.9501 22.8377 48.9501 26.9735 50.1156 29.6054C51.2436 32.0493 53.9506 34.7939 56.3569 35.8467C59.0264 37.0498 63.1622 37.0498 65.8692 35.8467C68.3507 34.7563 71.2458 31.7109 72.2233 29.2294C73.1633 26.7479 73.1633 23.0633 72.2233 20.5818C71.2458 18.0627 68.3507 15.0549 65.8692 14.0021C63.5005 12.987 59.9287 12.6862 57.8984 13.363ZM62.5982 21.1458V23.4017H64.8541H67.11V24.9056V26.4095H64.8541H62.5982V28.6654V30.9213H61.0943H59.5903V28.6654V26.4095H57.3345H55.0786V24.9056V23.4017H57.3345H59.5903V21.1458V18.8899H61.0943H62.5982V21.1458Z" fill="white"/>
<path d="M37.3698 29.6056C32.9708 30.3575 33.1588 30.2071 31.8053 33.7414L30.6021 36.9372H27.7823H25V38.4411C25 39.6819 25.1504 39.9826 25.8648 40.133C36.4674 42.6897 42.5959 43.3289 50.078 42.6145C52.9354 42.3513 56.2817 41.9378 57.5224 41.6746L59.7783 41.1858L58.0864 40.7346C53.8378 39.6067 51.4315 38.2155 49.1004 35.5837C47.7093 33.9669 45.679 30.3951 45.679 29.4928C45.679 28.8912 41.1296 28.9664 37.3698 29.6056Z" fill="white"/>
<path d="M26.5791 44.72C25.2256 46.6751 25 48.179 25 54.6459V61H26.9927H28.9854L30.0006 58.9321L31.0157 56.8642H45.0774H59.1767L60.1167 58.9321L61.0566 61H62.9365H64.854V54.1195C64.854 47.5775 64.8164 47.1263 63.9517 45.5472C62.9741 43.6673 63.0117 43.6673 58.8383 44.5696C53.5746 45.6976 48.7244 46.0735 42.4831 45.8479C37.2946 45.66 30.7901 44.7576 27.9703 43.8928C27.5567 43.7425 27.0679 44.0056 26.5791 44.72ZM35.0763 51.4877L35.1891 53.1044H32.5572H29.8878V51.6757C29.8878 50.8861 30.0006 50.0965 30.1509 49.9461C30.3013 49.7958 31.4293 49.7206 32.7076 49.7958L34.9635 49.9085L35.0763 51.4877ZM51.1307 51.4125V52.9164L45.0398 53.0292L38.9113 53.1044V51.6757C38.9113 50.8861 39.0241 50.0965 39.1745 49.9461C39.3249 49.8334 42.0696 49.7582 45.2654 49.7958L51.1307 49.9085V51.4125ZM59.9663 51.4125V53.1044H57.5224H55.0785V51.4125V49.7206H57.5224H59.9663V51.4125Z" fill="white"/>
</svg>
