<svg width="24" height="24" viewBox="0 0 24 24" fill="none" xmlns="http://www.w3.org/2000/svg">
<path d="M15.0007 8.99785H15.0107M9.00068 8.99785H9.01068M22.0007 11.9971C22.0007 17.5185 17.5235 21.9944 12.0007 21.9944C6.47783 21.9944 2.00068 17.5185 2.00068 11.9971C2.00068 6.47566 6.47783 1.99969 12.0007 1.99969C17.5235 1.99969 22.0007 6.47566 22.0007 11.9971ZM15.5007 8.99785C15.5007 9.27392 15.2768 9.49771 15.0007 9.49771C14.7245 9.49771 14.5007 9.27392 14.5007 8.99785C14.5007 8.72178 14.7245 8.49798 15.0007 8.49798C15.2768 8.49798 15.5007 8.72178 15.5007 8.99785ZM9.50068 8.99785C9.50068 9.27392 9.27682 9.49771 9.00068 9.49771C8.72454 9.49771 8.50068 9.27392 8.50068 8.99785C8.50068 8.72178 8.72454 8.49798 9.00068 8.49798C9.27682 8.49798 9.50068 8.72178 9.50068 8.99785ZM12.0007 17.4956C14.5012 17.4956 16.5007 15.6631 16.5007 13.9965H7.50068C7.50068 15.6631 9.50018 17.4956 12.0007 17.4956Z" stroke="#081630" stroke-width="1.96711" stroke-linecap="round" stroke-linejoin="round"/>
</svg>
