<svg width="54" height="36" viewBox="0 0 54 36" fill="none" xmlns="http://www.w3.org/2000/svg">
<path d="M39.05 1.74166C35.6969 0.639793 31.5404 0 27.0346 0C22.5289 0 18.3724 0.639793 15.0192 1.74166C6.11248 4.65628 0 10.6988 0 17.6654C0 27.4756 12.0852 35.4375 26.9997 35.4375C41.9142 35.4375 53.9994 27.4756 53.9994 17.6654C54.0693 10.6988 47.9568 4.65628 39.05 1.74166ZM27.0346 27.831C24.7992 27.831 22.9829 23.388 22.8781 17.7721C24.2054 17.8787 25.6026 17.9498 27.0346 17.9498C28.4667 17.9498 29.8289 17.8787 31.1911 17.7721C31.0863 23.3525 29.27 27.831 27.0346 27.831ZM23.1576 13.3646C23.7514 9.41919 25.2533 6.64675 27.0346 6.64675C28.781 6.64675 30.283 9.41919 30.9117 13.3646C29.6892 13.4712 28.3619 13.5423 27.0346 13.5423C25.7073 13.5423 24.415 13.5068 23.1576 13.3646ZM33.2868 13.0802C32.3787 6.89556 29.9337 2.48809 27.0346 2.48809C24.1356 2.48809 21.6906 6.89556 20.7824 13.0802C15.2987 12.1916 11.4565 10.2367 11.4565 7.92634C11.4565 4.79845 18.4073 2.27482 26.9997 2.27482C35.5921 2.27482 42.5429 4.79845 42.5429 7.92634C42.6127 10.2367 38.7706 12.2272 33.2868 13.0802ZM3.98184 17.0256C3.98184 14.0044 5.13448 11.1964 7.09048 8.7794C7.05555 8.95712 7.05555 9.13484 7.05555 9.27702C7.05555 13.0802 12.6441 16.2792 20.4331 17.4522C20.4331 17.7365 20.4331 18.0209 20.4331 18.3052C20.4331 25.343 22.3542 31.3144 25.0088 33.3759C13.203 32.6651 3.98184 25.6273 3.98184 17.0256ZM29.0954 33.3759C31.75 31.3144 33.671 25.343 33.671 18.3052C33.671 18.0209 33.671 17.7365 33.671 17.4522C41.4601 16.2792 47.0486 13.0447 47.0486 9.27702C47.0486 9.0993 47.0486 8.92157 47.0137 8.7794C49.0046 11.1964 50.1223 14.0399 50.1223 17.0256C50.1223 25.6273 40.8663 32.6651 29.0954 33.3759Z" fill="#081630"/>
</svg>
