<svg width="40" height="40" viewBox="0 0 40 40" fill="none" xmlns="http://www.w3.org/2000/svg">
<g clip-path="url(#clip0_47_5256)">
<path d="M19.9936 39.6571L25.571 8.38632C30.8813 8.38632 32.5623 8.96628 32.798 11.3331C32.798 11.3331 36.3644 10.0008 38.1554 7.32044C31.1484 4.0758 24.0942 3.93473 24.0942 3.93473L19.9779 8.93493H19.9936L15.8931 3.93473C15.8931 3.93473 8.83885 4.0758 1.83178 7.32044C3.62282 10.0165 7.1892 11.3331 7.1892 11.3331C7.42487 8.96628 9.10593 8.38632 14.3848 8.37064L19.9936 39.6571Z" fill="#081630"/>
<path d="M19.9935 2.49341C25.6651 2.44639 32.1537 3.37119 38.7994 6.25531C39.695 4.6565 39.9149 3.95115 39.9149 3.95115C32.6565 1.0827 25.8536 0.110871 19.9935 0.0795219C14.149 0.110871 7.34616 1.0827 0.0720012 3.95115C0.0720012 3.95115 0.401931 4.81325 1.18748 6.25531C7.8332 3.35551 14.3218 2.44639 19.9935 2.49341Z" fill="#081630"/>
</g>
<defs>
<clipPath id="clip0_47_5256">
<rect width="39.6044" height="39.3421" fill="white" transform="scale(1.00999)"/>
</clipPath>
</defs>
</svg>
