<svg width="102" height="40" viewBox="0 0 102 40" fill="none" xmlns="http://www.w3.org/2000/svg">
<path d="M93.2478 13.9249L78.6369 13.3514C77.9204 13.3514 77.0615 13.0651 76.489 12.7789L65.4592 5.33114C60.7321 2.17942 55.2884 0.459993 49.7015 0.459993H14.4644C11.8861 0.459993 9.45094 1.60514 7.87551 3.75399L1.85923 11.6329C1.14266 12.4917 0.85637 13.6386 0.85637 14.7837V22.2323C0.85637 28.2494 5.72666 33.262 11.8861 33.262H13.0321C14.6075 36.556 17.9024 38.992 21.7698 38.992C25.6364 38.992 29.0752 36.7 30.5075 33.262H72.3335C73.909 36.556 77.2038 38.992 81.0712 38.992C84.9395 38.992 88.3767 36.7 89.8089 33.262H90.0952C96.1115 33.262 101.125 28.3917 101.125 22.2323C101.411 17.6491 97.831 14.0671 93.2478 13.9249ZM12.7449 32.116H12.0292C8.16094 32.116 4.7238 29.824 3.14751 26.53H12.8881C12.6018 27.3897 12.4578 28.3926 12.4578 29.3954C12.3147 30.2543 12.4578 31.2571 12.7449 32.116ZM29.9341 32.116C29.7918 32.5463 29.6478 32.8326 29.5047 33.262C28.7769 34.6454 27.685 35.8036 26.3468 36.6115C25.0087 37.4194 23.4752 37.8463 21.9121 37.846C18.6172 37.846 15.7535 35.9834 14.4635 33.262C14.3204 32.9757 14.1772 32.5454 14.0341 32.116C13.7478 31.2571 13.4615 30.2543 13.4615 29.2514C13.4615 28.2486 13.6047 27.2457 14.0341 26.3869C14.1764 25.9566 14.3204 25.6703 14.4644 25.2409C15.8958 22.5194 18.7612 20.6577 21.9129 20.6577C25.2069 20.6577 27.9284 22.5194 29.3615 25.2409C29.5047 25.5271 29.6469 25.9574 29.7901 26.3869C30.0772 27.2457 30.3644 28.2486 30.3644 29.2514C30.3644 30.2543 30.2212 31.2571 29.9341 32.116ZM72.1912 32.116H31.0801C31.3664 31.2571 31.5104 30.2543 31.5104 29.2514C31.5104 28.2486 31.3664 27.2457 31.0801 26.3869H72.1904C71.9041 27.2457 71.7618 28.2486 71.7618 29.2514C71.7618 30.2543 71.9049 31.2571 72.1912 32.116ZM89.3804 32.116C89.2372 32.5463 89.0932 32.8326 88.951 33.262C87.5178 35.9834 84.6532 37.846 81.5024 37.846C79.9393 37.8462 78.4058 37.4193 77.0677 36.6114C75.7296 35.8035 74.6376 34.6453 73.9098 33.262C73.7667 32.9757 73.6235 32.5454 73.4804 32.116C73.1941 31.2571 72.9069 30.2543 72.9069 29.2514C72.9069 28.2486 73.0509 27.2457 73.4804 26.3869C73.6235 25.9566 73.7667 25.6703 73.9098 25.2409C75.3421 22.5194 78.2075 20.6577 81.3584 20.6577C84.6532 20.6577 87.3747 22.5194 88.807 25.2409C88.951 25.5271 89.0932 25.9574 89.2372 26.3869C89.5235 27.2457 89.8098 28.2486 89.8098 29.2514C89.8098 30.2543 89.6667 31.2571 89.3804 32.116ZM90.5264 32.116C90.8127 31.2571 90.9558 30.2543 90.9558 29.2514C90.9558 28.2486 90.8127 27.2457 90.5264 26.3869H99.2641C98.4702 28.049 97.2359 29.4619 95.6955 30.4719C94.155 31.482 92.3673 32.0506 90.5264 32.116ZM90.0961 25.384C88.5207 22.0891 85.2267 19.654 81.3584 19.654C77.491 19.654 74.0529 21.946 72.6207 25.384H30.6507C29.0752 22.0891 25.7812 19.654 21.9129 19.654C18.0455 19.654 14.6075 21.946 13.1752 25.384H2.5758C2.28245 24.507 2.13704 23.5873 2.14551 22.6626H5.01094C5.15951 22.6522 5.2993 22.5884 5.40453 22.483C5.50976 22.3776 5.57333 22.2377 5.58351 22.0891C5.57313 21.9407 5.50947 21.801 5.40426 21.6958C5.29905 21.5906 5.15937 21.527 5.01094 21.5166H2.14551V17.9354H5.01094C5.15951 17.925 5.2993 17.8612 5.40453 17.7558C5.50976 17.6505 5.57333 17.5106 5.58351 17.362C5.57313 17.2136 5.50947 17.0739 5.40426 16.9687C5.29905 16.8635 5.15937 16.7998 5.01094 16.7894H2.14551V14.7837C2.14674 13.8981 2.45001 13.0394 3.00523 12.3494L9.02151 4.47056C10.3107 2.75114 12.4587 1.60514 14.6075 1.60514H49.8455C55.2884 1.60514 60.4449 3.18142 65.0298 6.18914L76.0595 13.6377C76.9184 14.0671 77.7781 14.3543 78.7809 14.4966L93.3918 15.0691C95.9701 15.2123 98.119 16.5014 99.265 18.5071H93.6781C93.5297 18.5179 93.3901 18.5818 93.2849 18.6871C93.1797 18.7924 93.1161 18.9321 93.1055 19.0806C93.1164 19.2288 93.1803 19.3682 93.2854 19.4733C93.3905 19.5784 93.5299 19.6422 93.6781 19.6531H99.8375C100.124 20.512 100.41 21.3726 100.41 22.3746C100.41 23.5197 100.268 24.5226 99.8375 25.5254H90.097V25.3823L90.0961 25.384Z" fill="#081630" stroke="#081630" stroke-width="0.295066"/>
<path d="M48.4141 3.8971L14.8956 3.75396C12.8898 3.75396 11.1713 4.75682 10.0253 6.33225L7.0167 10.7731C6.73127 11.3457 6.58727 11.9191 6.87355 12.4917C7.15984 13.0642 7.73327 13.3514 8.30498 13.3514L22.3433 13.6377H22.6296L70.1864 14.7828C70.4727 14.7828 70.759 14.6397 70.759 14.3534V13.9231L67.1779 10.9145C62.3076 6.47453 55.4324 3.89625 48.4133 3.89625L48.4141 3.8971ZM22.3441 12.634L8.59298 12.3477C8.3067 12.3477 8.1627 12.0605 8.1627 12.0605C8.1627 11.9174 8.02041 11.7742 8.1627 11.488L11.1713 7.04796C12.0301 5.75796 13.4633 5.04225 15.0387 5.04225H25.3518L22.3441 12.634ZM23.4901 12.7771L26.4978 5.04225L41.6813 5.18539L43.1136 13.3505L23.4901 12.7771ZM44.1164 13.2074L42.6858 5.0431H48.2718C55.0038 5.0431 61.5927 7.47825 66.7501 11.776L69.0421 13.7817L44.1181 13.2091V13.2082L44.1164 13.2074ZM85.2284 25.384C84.2256 24.3811 82.9356 23.8077 81.3601 23.8077C79.9287 23.8077 78.4956 24.3811 77.4927 25.384C77.2056 25.6702 76.9193 26.1005 76.633 26.5291C76.0676 27.3776 75.7659 28.3745 75.7659 29.3941C75.7659 30.4137 76.0676 31.4106 76.633 32.2591C76.9193 32.6894 77.2056 32.9757 77.4927 33.4051C78.4956 34.408 79.9279 34.9805 81.3601 34.9805C82.9356 34.9805 84.2256 34.408 85.2284 33.4051C85.5147 33.1188 85.801 32.6885 86.0873 32.2591C86.5176 31.4002 86.9461 30.5405 86.9461 29.3945C86.9487 28.3756 86.6498 27.3787 86.0873 26.5291C85.801 26.0997 85.5147 25.6702 85.2284 25.384ZM84.7981 32.1168C84.3679 32.5462 83.9384 32.9757 83.3667 33.262C82.7924 33.5482 82.0767 33.8354 81.361 33.8354C80.6436 33.8354 79.9279 33.6914 79.3553 33.262C78.781 32.9757 78.3524 32.5454 77.9221 32.1168C77.2744 31.302 76.921 30.2923 76.9193 29.2514C76.9193 28.1054 77.3496 27.2457 77.9221 26.3868C78.3524 25.9565 78.7819 25.5271 79.3544 25.2408C79.927 24.9545 80.6436 24.8105 81.3601 24.8105C82.0767 24.8105 82.6493 24.9537 83.3659 25.2408C83.9384 25.5271 84.3687 25.9574 84.7973 26.3868C85.5147 27.1025 85.801 28.1062 85.801 29.2514C85.7993 30.2923 85.4459 31.302 84.7981 32.1168ZM54.8607 17.2197H51.9944C51.846 17.2301 51.7063 17.2937 51.6011 17.3989C51.4959 17.5041 51.4322 17.6438 51.4219 17.7922C51.432 17.9408 51.4956 18.0807 51.6008 18.1861C51.7061 18.2915 51.8459 18.3553 51.9944 18.3657H54.8598C55.0084 18.3553 55.1482 18.2915 55.2534 18.1861C55.3587 18.0807 55.4222 17.9408 55.4324 17.7922C55.422 17.6438 55.3584 17.5041 55.2532 17.3989C55.148 17.2937 55.0091 17.2301 54.8607 17.2197ZM33.3747 17.2197H30.5101C30.3616 17.2299 30.2217 17.2934 30.1163 17.3987C30.0109 17.5039 29.9471 17.6437 29.9367 17.7922C29.9469 17.941 30.0106 18.081 30.116 18.1864C30.2214 18.2918 30.3614 18.3555 30.5101 18.3657H33.3747C33.5233 18.3553 33.6631 18.2915 33.7683 18.1861C33.8735 18.0807 33.9371 17.9408 33.9473 17.7922C33.9369 17.6438 33.8732 17.5041 33.768 17.3989C33.6628 17.2937 33.5231 17.2301 33.3747 17.2197ZM25.783 25.384C24.7801 24.3811 23.4918 23.8077 21.9156 23.8077C20.4841 23.8077 19.051 24.3811 18.0481 25.384C17.761 25.6702 17.4747 26.1005 17.1884 26.5291C16.6258 27.3786 16.3269 28.3756 16.3296 29.3945C16.3296 30.3974 16.6158 31.4002 17.1884 32.2591C17.4747 32.6894 17.761 32.9757 18.0481 33.4051C19.051 34.408 20.4824 34.9805 21.9156 34.9805C23.491 34.9805 24.781 34.408 25.7838 33.4051C26.0701 33.1188 26.3564 32.6885 26.6427 32.2591C27.073 31.4002 27.5024 30.5405 27.5024 29.3945C27.5024 28.3917 27.2153 27.3888 26.6427 26.5291C26.3564 26.0997 26.0693 25.6702 25.783 25.384ZM25.2104 32.1168C24.781 32.5462 24.3516 32.9757 23.779 33.262C23.2056 33.5482 22.489 33.8354 21.7733 33.8354C21.0584 33.8354 20.3418 33.6914 19.7676 33.262C19.195 32.9757 18.7647 32.5454 18.3361 32.1168C17.6881 31.3022 17.3347 30.2923 17.3333 29.2514C17.3333 28.1054 17.7627 27.2457 18.3361 26.3868C18.7656 25.9565 19.195 25.5271 19.7676 25.2408C20.341 24.9545 21.0576 24.8105 21.7733 24.8105C22.4898 24.8105 23.0633 24.9537 23.779 25.2408C24.3516 25.5271 24.7818 25.9574 25.2104 26.3868C25.927 27.1025 26.2133 28.1062 26.2133 29.2514C26.3564 30.3974 25.927 31.4002 25.2104 32.1168Z" fill="#081630" stroke="#081630" stroke-width="0.295066"/>
</svg>
