<svg width="40" height="40" viewBox="0 0 40 40" fill="none" xmlns="http://www.w3.org/2000/svg">
<path d="M19.9456 38.0681C9.96806 38.0681 1.87818 29.9782 1.87818 20.0007C1.87818 10.0232 9.96806 1.93329 19.9456 1.93329C29.9231 1.93329 38.013 10.0232 38.013 20.0007C38.013 29.9782 29.9231 38.0681 19.9456 38.0681ZM19.9456 0.98048C9.43772 0.98048 0.925375 9.49283 0.925375 20.0007C0.925375 30.5085 9.43772 39.0209 19.9456 39.0209C30.4534 39.0209 38.9658 30.5085 38.9658 20.0007C38.9658 9.49283 30.4444 0.98048 19.9456 0.98048ZM19.9456 38.2209C22.4085 38.2209 24.7905 37.7355 27.0377 36.7917C29.204 35.8748 31.1545 34.5625 32.8265 32.8905C34.4984 31.2186 35.8107 29.2681 36.7276 27.1018C37.6804 24.8546 38.1568 22.4726 38.1568 20.0097C38.1568 17.5467 37.6714 15.1647 36.7276 12.9175C35.8107 10.7513 34.4984 8.80069 32.8265 7.12879C31.1545 5.45688 29.204 4.14452 27.0377 3.22767C24.7905 2.27486 22.4085 1.79846 19.9456 1.79846C17.4827 1.79846 15.1006 2.28385 12.8534 3.22767C10.6872 4.14452 8.7366 5.45688 7.06469 7.12879C5.39278 8.80069 4.08043 10.7513 3.16357 12.9175C2.21077 15.1647 1.73436 17.5467 1.73436 20.0097C1.73436 22.4726 2.21976 24.8546 3.16357 27.1018C4.08043 29.2681 5.39278 31.2186 7.06469 32.8905C8.7366 34.5625 10.6872 35.8748 12.8534 36.7917C15.1006 37.7355 17.4827 38.2209 19.9456 38.2209ZM19.9456 1.13329C22.4894 1.13329 24.9613 1.62767 27.2894 2.61643C29.5366 3.56924 31.559 4.92654 33.2849 6.66137C35.0197 8.3962 36.377 10.4097 37.3298 12.6569C38.3096 14.985 38.813 17.4569 38.813 20.0007C38.813 22.5445 38.3186 25.0164 37.3298 27.3445C36.377 29.5917 35.0197 31.6052 33.2849 33.34C31.5501 35.0748 29.5366 36.4321 27.2894 37.3849C24.9613 38.3647 22.4894 38.8681 19.9456 38.8681C17.4018 38.8681 14.9298 38.3737 12.6018 37.3849C10.3546 36.4321 8.33211 35.0748 6.60627 33.34C4.88043 31.6052 3.51414 29.5917 2.56133 27.3445C1.58155 25.0164 1.07818 22.5445 1.07818 20.0007C1.07818 17.4569 1.58155 14.985 2.56133 12.6569C3.51414 10.4097 4.87144 8.3962 6.60627 6.66137C8.34109 4.92654 10.3546 3.56924 12.6018 2.61643C14.9209 1.62767 17.3928 1.13329 19.9456 1.13329Z" fill="#081630"/>
<path d="M8.73625 8.3775C8.50254 8.17975 8.13401 8.17076 7.97221 8.36851L6.56996 10.0404L7.43288 10.7685L8.81715 9.11458C8.99693 8.89885 8.99693 8.59323 8.73625 8.3775ZM10.4351 10.3101C10.6329 10.0764 10.5969 9.71683 10.3183 9.48312C10.0666 9.27638 9.69805 9.33031 9.53625 9.52806L8.0621 11.2809L8.97895 12.0449L10.4351 10.3101Z" fill="#081630"/>
<path d="M19.9459 1.93167C9.96843 1.93167 1.87855 10.0215 1.87855 19.9991C1.87855 29.9766 9.96843 38.0664 19.9459 38.0664C29.9235 38.0664 38.0133 29.9766 38.0133 19.9991C38.0133 10.0215 29.9235 1.93167 19.9459 1.93167ZM17.1774 2.59684H18.6156L19.919 6.00357L21.2134 2.59684H22.6516V7.36986H21.6987V4.03504L20.4403 7.36986H19.3976L18.1392 4.03504V7.36986H17.1864L17.1774 2.59684ZM5.13248 10.453L7.46056 7.67548C7.94596 7.1002 8.62011 6.64178 9.25831 7.1811C9.45607 7.35189 9.53697 7.40582 9.77966 7.83728C9.8336 7.99009 9.87854 8.27773 9.77067 8.54739C10.328 8.20582 10.9212 8.31368 11.3078 8.69121C11.901 9.26649 11.8111 9.93166 11.2538 10.5968L8.79989 13.5272L5.13248 10.453ZM19.9459 32.1159C13.2583 32.1159 7.8291 26.6957 7.8291 19.9991C7.8291 13.3114 13.2493 7.88222 19.9459 7.88222C26.6336 7.88222 32.0628 13.3024 32.0628 19.9991C32.0538 26.6867 26.6336 32.1159 19.9459 32.1159ZM31.1459 13.3564L30.3279 12.3676L31.892 10.0126L31.883 10.0036L29.2763 11.1182L28.4493 10.1384L31.1729 6.53391L31.865 7.36986L30.1572 9.662L32.8088 8.48447L33.5549 9.38335L31.919 11.7654L34.4807 10.5069L35.1729 11.3429L31.1459 13.3564Z" fill="#081630"/>
<path d="M8.54783 20.0001H19.9366V8.61135C13.6534 8.61135 8.54783 13.708 8.54783 20.0001ZM19.9456 20.0001V31.3888C26.2377 31.3888 31.3343 26.2922 31.3343 20.0001H19.9456Z" fill="#081630"/>
</svg>
