<svg width="110" height="40" viewBox="0 0 110 40" fill="none" xmlns="http://www.w3.org/2000/svg">
<g clip-path="url(#clip0_47_5397)">
<path d="M108.566 18.2889C107.173 15.5028 104.231 13.7986 100.517 13.6451L77.6054 11.4779C75.5918 11.4779 73.7349 10.8573 72.0316 9.61941L64.1362 4.2015C63.8275 4.04553 63.5172 3.73687 63.0526 3.42739C59.1821 0.641276 58.4088 0.330977 57.9442 0.641276C57.6347 0.796425 57.4804 1.1059 57.3252 1.56971L57.1693 1.87919C56.8606 2.49896 56.8606 3.27224 57.4796 3.89202L65.3749 10.3935L65.5301 10.703L65.2206 10.8573L39.8328 9.92971L37.6648 4.97478C37.3553 4.2015 36.5812 3.73523 35.8071 3.73523C35.1873 3.73523 34.5692 4.04553 34.2589 4.50933C34.0919 4.75623 33.9782 5.03519 33.9249 5.32844C33.8716 5.6217 33.88 5.92284 33.9494 6.21269L34.8787 9.77374L13.0511 9.00045H7.47718C5.77465 9.00045 4.07129 9.61941 2.83338 10.8573C1.59547 12.096 0.820542 13.6443 0.820542 15.5028V21.075C0.820542 27.5765 6.08412 32.9944 12.7399 32.9944H13.9787C15.6812 36.5554 19.2423 39.1872 23.4223 39.1872C27.6023 39.1872 31.3176 36.7098 32.8658 32.9952H78.0693C79.7718 36.5554 83.332 39.1872 87.512 39.1872C91.8463 39.1872 95.4074 36.5554 97.1107 32.9952C101.135 32.5306 104.696 30.6729 107.018 27.5765C107.482 26.9567 107.791 26.3369 108.102 25.7188H108.256V25.5637C109.495 22.7775 109.65 20.3009 108.566 18.2881V18.2889ZM35.1881 5.12993C35.4968 4.6653 36.2717 4.82045 36.5812 5.28508L38.4381 9.77538L35.9614 9.61941L35.033 5.74971C35.033 5.59374 35.0338 5.44023 35.1881 5.12993ZM13.3605 31.6022H12.5864C8.40644 31.6022 4.69106 29.1247 2.98853 25.5637H13.5149C13.2054 26.4929 13.0502 27.5765 13.0502 28.6601C12.8959 29.5893 13.207 30.5178 13.3605 31.6022ZM32.0909 31.6022C31.9366 32.066 31.7822 32.3754 31.6271 32.8401C30.0789 35.7813 26.9833 37.7942 23.5774 37.7942C20.0164 37.7942 16.9208 35.7813 15.5277 32.8401C15.3717 32.5306 15.2182 32.066 15.0631 31.6022C14.7536 30.6729 14.4433 29.5893 14.4433 28.5049C14.4433 27.4213 14.5993 26.3378 15.0631 25.4085C15.2182 24.9447 15.3726 24.6352 15.5277 24.1706C17.0759 21.2293 20.1715 19.2165 23.5774 19.2165C27.1384 19.2165 30.0789 21.2293 31.6271 24.1706C31.7822 24.4801 31.9366 24.9447 32.0917 25.4085C32.4004 26.3378 32.7107 27.4213 32.7107 28.5049C32.5555 29.5885 32.4012 30.5178 32.0909 31.6022ZM77.6046 31.6022H33.3305C33.6399 30.6729 33.7943 29.5893 33.7943 28.5049C33.7943 27.4213 33.6399 26.3378 33.3305 25.4085H77.7598C77.4495 26.3378 77.2952 27.4213 77.2952 28.5049C77.2952 29.5885 77.4495 30.5178 77.6046 31.6022ZM96.3358 31.4462C96.1815 31.9108 96.0272 32.2203 95.872 32.6857C95.0853 34.1805 93.9053 35.432 92.4593 36.3051C91.0133 37.1781 89.3563 37.6397 87.6672 37.6398C84.1069 37.6398 81.0097 35.627 79.6175 32.6857C79.4615 32.3763 79.3072 31.9116 79.1528 31.4462C78.8425 30.5186 78.5331 29.4342 78.5331 28.3514C78.5331 27.2678 78.689 26.1834 79.1528 25.255C79.3072 24.7904 79.4623 24.4809 79.6175 24.0154C81.1657 21.0742 84.2613 19.0613 87.6672 19.0613C91.073 19.0613 94.1695 21.0742 95.7169 24.0154C95.872 24.3249 96.0272 24.7896 96.1815 25.255C96.491 26.1826 96.8004 27.267 96.8004 28.3514C96.8004 29.5893 96.6461 30.5186 96.3358 31.4462ZM106.089 26.4929C104.077 29.1239 101.135 30.8272 97.5754 31.2919C97.8916 30.3436 98.0483 29.3494 98.0392 28.3498C98.0392 27.2662 97.884 26.1826 97.5754 25.2534H106.863C106.553 25.718 106.398 26.1834 106.089 26.4929ZM107.482 24.1706H97.1107C95.4074 20.6096 91.8463 17.9786 87.6672 17.9786C83.4872 17.9786 79.7718 20.4552 78.2244 24.1706H32.8658C31.1625 20.6096 27.6023 17.9786 23.4223 17.9786C19.2414 17.9786 15.5269 20.4552 13.9795 24.1706H2.5239C2.20717 23.2227 2.05016 22.2287 2.05927 21.2293H5.15569C5.31628 21.2179 5.46736 21.1489 5.5812 21.0351C5.69505 20.9212 5.76402 20.7701 5.77547 20.6096C5.76367 20.4492 5.69456 20.2984 5.58076 20.1847C5.46697 20.0711 5.31609 20.0022 5.15569 19.9906H2.06009V16.1201H5.15651C5.31704 16.1085 5.46803 16.0394 5.58184 15.9256C5.69565 15.8118 5.76468 15.6608 5.77629 15.5003C5.76465 15.3399 5.6956 15.189 5.58177 15.0753C5.46795 14.9616 5.31697 14.8928 5.15651 14.8813H2.21442C2.37039 13.6434 2.8342 12.4039 3.76263 11.4755C4.69188 10.547 6.08494 10.0824 7.32367 10.0824H12.8967L65.2222 12.0952C65.8412 12.0952 66.4618 11.7857 66.6153 11.166C66.6961 10.8665 66.6956 10.5509 66.6139 10.2517C66.5323 9.95245 66.3724 9.68038 66.1507 9.46344L58.2553 3.11627C58.1812 3.03018 58.1405 2.92037 58.1405 2.8068C58.1405 2.69322 58.1812 2.58341 58.2553 2.49732L58.4113 2.18784L58.5656 1.87836C59.3397 2.18784 61.5069 3.73605 62.4361 4.35583C62.8999 4.66448 63.2094 4.97478 63.5197 5.12911L71.4151 10.3927C73.2728 11.7857 75.4399 12.4055 77.6071 12.5599L100.519 14.727C103.15 14.8822 105.472 15.9649 106.865 17.6683H100.984C100.823 17.6794 100.672 17.7483 100.558 17.8622C100.444 17.9761 100.375 18.1273 100.364 18.2881C100.375 18.4486 100.444 18.5997 100.558 18.7134C100.672 18.8272 100.823 18.8959 100.984 18.907H107.64C108.258 20.4552 108.259 22.3137 107.484 24.1706H107.482Z" fill="#081630" stroke="#081630" stroke-width="0.295066"/>
<path d="M91.8492 24.1767C90.7656 23.0932 89.3725 22.4734 87.67 22.4734C86.1218 22.4734 84.5736 23.0932 83.49 24.1767C83.1805 24.4862 82.871 24.9508 82.5607 25.4146C81.9529 26.3328 81.6299 27.41 81.6323 28.5111C81.6323 29.5946 81.9418 30.679 82.5607 31.6083C82.871 32.0721 83.1805 32.3816 83.49 32.8462C84.5736 33.9298 86.1218 34.5496 87.67 34.5496C89.3725 34.5496 90.7656 33.9298 91.8492 32.8462C92.1595 32.5367 92.4689 32.0721 92.7784 31.6083C93.2422 30.679 93.7068 29.7506 93.7068 28.5111C93.7068 27.4275 93.3974 26.3439 92.7784 25.4146C92.4689 24.9508 92.1595 24.6414 91.8492 24.1767ZM91.2302 31.6083C90.7656 32.0721 90.3009 32.5367 89.6828 32.8462C89.0639 33.1557 88.2898 33.4652 87.5148 33.4652C86.7399 33.4652 85.9666 33.3108 85.3477 32.8462C84.7287 32.5367 84.2641 32.0721 83.7995 31.6083C83.0992 30.7277 82.7173 29.6361 82.7159 28.5111C82.7159 27.2723 83.1805 26.3439 83.7995 25.4146C84.2641 24.9508 84.7287 24.4862 85.3477 24.1767C85.9674 23.8673 86.7415 23.7121 87.5148 23.7121C88.2889 23.7121 88.9079 23.8681 89.6828 24.1767C90.3009 24.4862 90.7656 24.9508 91.2302 25.4146C92.0043 26.1888 92.3138 27.2723 92.3138 28.5111C92.4689 29.5946 92.0043 30.679 91.2302 31.6083ZM43.3942 14.5739H40.2978C40.1373 14.5855 39.9864 14.6546 39.8727 14.7684C39.7591 14.8822 39.6902 15.0332 39.6788 15.1937C39.6906 15.3539 39.7596 15.5046 39.8732 15.6182C39.9868 15.7319 40.1375 15.8009 40.2978 15.8126H43.3942C43.5546 15.8012 43.7056 15.7324 43.8194 15.6187C43.9333 15.505 44.0023 15.3541 44.0139 15.1937C44.0023 15.0331 43.9333 14.8822 43.8195 14.7684C43.7057 14.6545 43.5547 14.5855 43.3942 14.5739ZM27.6042 24.1767C26.5207 23.0932 25.1276 22.4734 23.4251 22.4734C21.8769 22.4734 20.3287 23.0932 19.2459 24.1767C18.9364 24.4862 18.6261 24.9508 18.3166 25.4146C17.7084 26.3326 17.3854 27.4099 17.3882 28.5111C17.3882 29.5946 17.6977 30.679 18.3166 31.6083C18.6261 32.0721 18.9364 32.3816 19.2451 32.8462C20.3287 33.9298 21.8777 34.5496 23.4251 34.5496C24.9725 34.5496 26.5215 33.9298 27.6042 32.8462C27.9137 32.5367 28.224 32.0721 28.5335 31.6083C28.9973 30.679 29.4619 29.7506 29.4619 28.5111C29.4646 27.4099 29.1416 26.3326 28.5335 25.4146C28.224 24.9508 27.9137 24.6414 27.6042 24.1767ZM26.9853 31.6083C26.5207 32.0721 26.056 32.5367 25.4371 32.8462C24.8173 33.1557 24.044 33.4652 23.2691 33.4652C22.4942 33.4652 21.7209 33.3108 21.1019 32.8462C20.483 32.5367 20.0184 32.0721 19.5537 31.6083C18.8533 30.7278 18.4714 29.6362 18.4701 28.5111C18.4701 27.2723 18.9348 26.3439 19.5537 25.4146C20.0184 24.9508 20.483 24.4862 21.1019 24.1767C21.7217 23.8673 22.495 23.7121 23.2691 23.7121C24.0424 23.7121 24.6622 23.8681 25.4363 24.1767C26.056 24.4862 26.5198 24.9508 26.9853 25.4146C27.7586 26.1888 28.0689 27.2723 28.0689 28.5111C28.224 29.5946 27.7594 30.679 26.9853 31.6083Z" fill="#081630" stroke="#081630" stroke-width="0.295066"/>
</g>
<defs>
<clipPath id="clip0_47_5397">
<rect width="109.83" height="39.3421" fill="white" transform="scale(1.00155)"/>
</clipPath>
</defs>
</svg>
