<svg width="42" height="42" viewBox="0 0 42 42" fill="none" xmlns="http://www.w3.org/2000/svg">
<path d="M21.0003 30.2096C20.2207 30.2096 19.4411 30.1511 18.7005 30.0147C14.5686 29.4105 10.807 27.0327 8.42922 23.505C6.77257 21.0103 5.89551 18.1063 5.89551 15.1048C5.89551 6.78254 12.6781 0 21.0003 0C29.3226 0 36.1051 6.78254 36.1051 15.1048C36.1051 18.1063 35.2281 21.0103 33.5714 23.505C31.1741 27.0522 27.4125 29.4105 23.2417 30.0342C22.5595 30.1511 21.7799 30.2096 21.0003 30.2096ZM21.0003 2.92351C14.2762 2.92351 8.81902 8.38072 8.81902 15.1048C8.81902 17.5411 9.52066 19.8799 10.846 21.8678C12.7755 24.7134 15.7965 26.6234 19.1488 27.1107C20.3961 27.3251 21.624 27.3251 22.7739 27.1107C26.1847 26.6234 29.2056 24.6939 31.1351 21.8483C32.4605 19.8604 33.1621 17.5215 33.1621 15.0853C33.1816 8.38071 27.7244 2.92351 21.0003 2.92351Z" fill="#F1BC00"/>
<path d="M10.222 41.5916C9.94913 41.5916 9.69576 41.5527 9.4229 41.4942C8.15604 41.2019 7.18154 40.2273 6.88919 38.9605L6.20704 36.0954C6.16806 35.92 6.03163 35.7836 5.83673 35.7251L2.62087 34.965C1.41248 34.6727 0.457471 33.7761 0.12614 32.5872C-0.205191 31.3983 0.12614 30.112 1.00319 29.2349L8.60432 21.6338C8.91616 21.322 9.34494 21.1661 9.77372 21.2051C10.2025 21.244 10.5923 21.4779 10.8457 21.8482C12.7752 24.6937 15.7961 26.6233 19.1679 27.1105C20.4153 27.3249 21.6432 27.3249 22.7931 27.1105C26.2038 26.6233 29.2248 24.6937 31.1543 21.8482C31.3882 21.4779 31.7975 21.244 32.2263 21.2051C32.655 21.1661 33.0838 21.322 33.3957 21.6338L40.9968 29.2349C41.8738 30.112 42.2052 31.3983 41.8738 32.5872C41.5425 33.7761 40.568 34.6922 39.3791 34.965L36.1633 35.7251C35.9879 35.7641 35.8514 35.9005 35.7929 36.0954L35.1108 38.9605C34.8184 40.2273 33.8439 41.2019 32.5771 41.4942C31.3102 41.8061 30.0044 41.3577 29.1858 40.3638L21 30.9501L12.8142 40.3833C12.1515 41.1629 11.216 41.5916 10.222 41.5916ZM9.48137 24.9082L3.06914 31.3204C2.89373 31.4958 2.91322 31.6907 2.9522 31.8077C2.97169 31.9051 3.06914 32.1 3.30302 32.1389L6.51888 32.8991C7.78573 33.1914 8.76024 34.1659 9.05259 35.4328L9.73474 38.2978C9.79321 38.5512 9.98811 38.6292 10.1051 38.6681C10.222 38.6876 10.4169 38.7071 10.5923 38.5122L18.057 29.9171C14.7437 29.2739 11.7032 27.5003 9.48137 24.9082ZM23.943 29.8976L31.4077 38.4732C31.5831 38.6876 31.7975 38.6876 31.9144 38.6486C32.0314 38.6291 32.2068 38.5317 32.2847 38.2784L32.9669 35.4133C33.2592 34.1465 34.2337 33.1719 35.5006 32.8796L38.7165 32.1195C38.9503 32.061 39.0478 31.8856 39.0673 31.7881C39.1063 31.6907 39.1257 31.4763 38.9503 31.3009L32.5381 24.8886C30.2968 27.4808 27.2758 29.2544 23.943 29.8976Z" fill="#F1BC00"/>
<path d="M24.6842 22.6862C24.1775 22.6862 23.5733 22.5497 22.8522 22.121L21.0006 21.01L19.1491 22.1014C17.4534 23.1149 16.3425 22.5302 15.9332 22.2379C15.5239 21.9455 14.6469 21.0685 15.0951 19.139L15.5629 17.1315L14.0037 15.6892C13.1461 14.8316 12.8343 13.7987 13.1266 12.8632C13.419 11.9276 14.2766 11.265 15.4849 11.0701L17.5704 10.7193L18.5644 8.53638C19.1296 7.42544 20.0066 6.80173 21.0006 6.80173C21.9946 6.80173 22.8912 7.44495 23.4369 8.55589L24.5868 10.8557L26.5163 11.0896C27.7052 11.2845 28.5628 11.9471 28.8746 12.8826C29.167 13.8181 28.8551 14.8511 27.9976 15.7087L26.3799 17.3264L26.8866 19.139C27.3349 21.0685 26.4578 21.9455 26.0486 22.2379C25.8342 22.4133 25.3664 22.6862 24.6842 22.6862ZM16.3425 13.9157L17.6873 15.2604C18.311 15.8841 18.6228 16.9366 18.4279 17.7942L18.0576 19.3533L19.6168 18.4373C20.4549 17.95 21.5853 17.95 22.4039 18.4373L23.9631 19.3533L23.6123 17.7942C23.4174 16.9171 23.7097 15.8841 24.3334 15.2604L25.6782 13.9157L23.9826 13.6233C23.164 13.4868 22.3454 12.8827 21.9751 12.142L21.0006 10.232L20.0261 12.181C19.6753 12.9021 18.8567 13.5258 18.0381 13.6623L16.3425 13.9157Z" fill="#F1BC00"/>
</svg>
