<svg width="42" height="36" viewBox="0 0 42 36" fill="none" xmlns="http://www.w3.org/2000/svg">
<g clip-path="url(#clip0_47_5285)">
<path fill-rule="evenodd" clip-rule="evenodd" d="M30.9025 3.13699C29.87 7.47787 29.5369 9.51474 28.7708 12.6535C28.0048 15.7255 27.4052 18.5304 26.406 19.866C25.4068 21.2017 24.0412 21.569 23.0087 21.6358C22.5091 21.736 22.176 21.736 21.1435 21.736C20.111 21.736 19.7113 21.736 19.2783 21.6358C18.3457 21.5356 16.9802 21.2017 15.881 19.866C14.8485 18.497 14.2823 15.6921 13.5162 12.6535C12.7502 9.51474 12.3172 7.47787 11.3846 3.13699C11.3846 3.13699 10.452 3.13699 9.9524 3.23717C9.35287 3.23717 8.91988 3.23717 8.42028 3.33734C8.42028 3.33734 9.0198 12.353 9.25295 16.0928C9.51941 20.0998 10.019 26.778 10.452 31.8869C10.452 31.8869 11.2847 32.0539 12.6503 32.0539C14.0158 32.2208 14.682 32.321 14.682 32.321C15.2815 30.1172 16.0476 26.9784 16.8136 25.6093C17.4798 24.5074 18.5123 24.4073 19.1118 24.3405C20.0444 24.2403 20.8105 24.1735 21.1435 24.1735C21.4766 24.1735 22.2427 24.1735 23.1753 24.3405C23.7748 24.4407 24.774 24.5074 25.4734 25.6093C26.3061 26.9784 27.0056 30.017 27.6051 32.321C27.6051 32.321 28.2046 32.321 29.6368 32.2208C31.0024 32.1207 31.8351 32.0539 31.8351 32.0539C32.2681 26.945 32.7677 20.2333 33.0341 16.2598C33.3006 12.4532 33.8668 3.5043 33.8668 3.5043C33.3672 3.40413 32.9342 3.40413 32.3347 3.33734C31.935 3.13699 30.9025 3.13699 30.9025 3.13699Z" fill="#081630"/>
<path fill-rule="evenodd" clip-rule="evenodd" d="M39.8292 18.4306C39.4961 23.1054 39.0631 25.9771 38.5635 28.014C38.0639 29.7837 37.4644 30.9858 36.5318 31.8206C34.9997 33.2564 32.9013 33.5903 31.7023 33.7906C29.071 34.2247 24.5746 34.3917 21.1107 34.3917C17.6468 34.3917 13.1503 34.2247 10.5191 33.7906C9.32002 33.6237 7.22168 33.2898 5.68956 31.8206C4.75697 30.9858 4.15744 29.7837 3.65784 28.014C3.05831 25.9771 2.69194 23.1722 2.35887 18.4306C2.19233 15.6258 2.19233 10.951 2.5254 8.48004C2.95839 4.84038 4.72366 2.97047 8.45404 2.26925C10.0528 1.93534 12.4509 1.66821 14.6491 1.60143C16.4477 1.53464 19.412 1.43447 21.0107 1.43447C22.6095 1.43447 25.5738 1.53464 27.3724 1.60143C29.5706 1.7016 31.9354 1.93534 33.734 2.26925C37.4644 2.93708 39.2296 4.80699 39.6626 8.48004C39.8958 11.0512 39.9957 15.6258 39.8292 18.4306ZM41.8609 8.58021C41.2614 2.70334 37.531 1.43447 34.2336 0.866817C32.5349 0.599686 29.6705 0.365947 27.7054 0.265773C26.0734 0.0988165 22.1765 -0.00135747 21.0107 -0.00135747C19.8117 -0.00135747 15.9148 0.0988165 14.3161 0.165599C12.4509 0.265773 9.48655 0.499512 7.7879 0.833425C4.49051 1.43447 0.760136 2.60317 0.160611 8.54682C-0.00592351 10.1496 -0.00592351 12.2866 -0.00592351 14.4905C0.0939973 18.2303 0.327146 20.768 0.49368 22.471C0.593601 23.6731 1.09321 27.3127 1.69273 29.0825C2.5254 31.6202 3.29146 32.3882 4.15744 33.1562C5.75618 34.5253 8.48734 34.926 9.08687 35.1263C12.1511 35.7273 18.2463 35.7941 20.9441 35.7941C23.642 35.7941 29.7705 35.694 32.8014 35.1263C33.4009 35.0261 36.0322 34.6254 37.7308 33.1562C38.6634 32.3882 39.3296 31.6202 40.1955 29.0825C40.7951 27.2126 41.2947 23.6397 41.3946 22.471C41.5611 20.7013 41.8942 18.2303 41.8942 14.4905C42.0274 12.2199 42.0274 10.183 41.8609 8.58021Z" fill="#081630"/>
</g>
<defs>
<clipPath id="clip0_47_5285">
<rect width="41.5453" height="35.4079" fill="white" transform="scale(1.01095)"/>
</clipPath>
</defs>
</svg>
