<svg width="82" height="40" viewBox="0 0 82 40" fill="none" xmlns="http://www.w3.org/2000/svg">
<g clip-path="url(#clip0_47_5355)">
<path d="M72.0645 16.0975L65.2916 15.6312C64.2405 15.5144 63.423 15.1632 62.7223 14.3465L57.9348 8.97429C52.9121 3.48526 45.9048 0.331988 38.4304 0.331988H36.0946C35.6801 0.330234 35.2693 0.410604 34.886 0.56846C34.5027 0.726316 34.1544 0.95853 33.8613 1.2517C33.5682 1.54487 33.3361 1.89319 33.1784 2.27655C33.0206 2.65991 32.9403 3.07072 32.9422 3.48526V12.7107H2.34627C2.11269 12.7107 1.87912 12.9442 1.87912 13.1787C1.87912 13.4122 2.11269 13.6458 2.34627 13.6458H4.79881V15.9816H4.44845C2.57984 15.9816 1.17839 17.383 1.0616 19.2508L0.828026 25.9085C0.82386 26.8759 1.01133 27.8345 1.37961 28.7291C1.74789 29.6236 2.28969 30.4364 2.97374 31.1205C3.65779 31.8045 4.47055 32.3463 5.3651 32.7146C6.25965 33.0829 7.21828 33.2703 8.18566 33.2662H10.5214C11.2213 36.8858 14.3754 39.5727 18.2286 39.5727C21.9658 39.5727 25.2359 36.8866 25.9358 33.2662H58.9851C59.6858 36.8858 62.8391 39.5727 66.6931 39.5727C70.5471 39.5727 73.7003 36.8866 74.4002 33.2662C76.2765 33.1541 78.0356 32.3164 79.3053 30.9304C80.7068 29.529 81.4075 27.6603 81.4075 25.675C81.0572 20.6531 77.0864 16.5663 72.0645 16.0992V16.0975ZM29.4394 13.7618H32.8262V14.6961C32.8262 15.5136 32.2423 16.0975 31.4248 16.0975H29.4394V13.7618ZM17.5279 13.7618H28.5051V16.0975H17.5279V13.7618ZM5.6155 13.7618H16.5927V16.0975H5.61633L5.6155 13.7618ZM1.64554 22.8712H4.09726C4.33166 22.8712 4.56524 22.6376 4.56524 22.4041C4.56524 22.1713 4.33166 21.9369 4.09809 21.9369H1.64554L1.7615 19.3676C1.87912 18.0829 2.92938 17.0318 4.21487 17.0318H31.192C31.811 17.0301 32.4041 16.7834 32.8417 16.3458C33.2794 15.9081 33.526 15.315 33.5278 14.6961V3.60205C33.5295 2.98311 33.7762 2.39001 34.2139 1.95235C34.6515 1.51469 35.2446 1.26804 35.8636 1.26629H38.1985C45.3217 1.26629 52.213 4.30278 57.0005 9.5574L61.788 14.9296C62.6055 15.8639 63.7742 16.4479 64.9413 16.4479L71.7149 16.9159C74.0507 17.1494 76.1529 18.1997 77.6703 19.8347H72.9988C72.766 19.8347 72.5325 20.0683 72.5325 20.3019C72.5325 20.5355 72.766 20.7699 72.9996 20.7699H78.3719C79.3062 22.1713 79.8893 23.6896 80.0069 25.5573H70.8974C69.6136 24.5071 67.9786 23.9231 66.2259 23.9231C64.4741 23.9231 62.8399 24.5062 61.5544 25.5573H22.5506C21.2659 24.5071 19.6309 23.9231 17.8791 23.9231C16.1272 23.9231 14.4922 24.5062 13.2075 25.5573H1.52875L1.64637 22.8712H1.64554ZM10.1711 32.447H7.95126C4.56524 32.447 1.76233 29.7609 1.52875 26.4916H12.1556C10.8718 27.8931 10.0543 29.7609 10.0543 31.8631C10.1711 31.9798 10.1711 32.2142 10.1711 32.447ZM24.8847 32.447V32.9141C24.8847 33.0318 24.8847 33.2653 24.7687 33.3821C24.068 36.4178 21.2651 38.7535 17.995 38.7535C14.725 38.7535 11.922 36.4178 11.2213 33.3821C11.2213 33.2653 11.2213 33.0318 11.1054 32.9141V32.447C11.1054 32.2134 10.9877 31.9807 10.9877 31.7471C10.9877 29.5273 12.0397 27.6587 13.5571 26.3749C13.7907 26.2589 13.9083 26.0245 14.141 25.9077C14.3738 25.7909 14.7241 25.5573 14.9585 25.4406C15.8928 24.9726 16.8263 24.7398 17.8774 24.7398C18.9285 24.7398 19.9796 24.9734 20.7971 25.4406C21.0307 25.5565 21.381 25.6741 21.6146 25.9077C21.8482 26.0237 21.965 26.2581 22.1985 26.3749C23.7168 27.6595 24.7679 29.5281 24.7679 31.7471C25.0015 31.9807 24.8838 32.2134 24.8838 32.447H24.8847ZM58.7523 32.447H25.9358V31.7471C25.9368 29.7556 25.1863 27.8371 23.8344 26.3749H60.8537C59.5698 27.7763 58.7523 29.6449 58.7523 31.7471C58.6948 31.8548 58.6646 31.975 58.6646 32.097C58.6646 32.2191 58.6948 32.3393 58.7523 32.447ZM73.3492 32.447V32.9141C73.3492 33.0318 73.3492 33.2653 73.2332 33.3821C72.5325 36.4178 69.7296 38.7535 66.4595 38.7535C63.1894 38.7535 60.3865 36.4178 59.6858 33.3821C59.6858 33.2653 59.6858 33.0318 59.5698 32.9141V32.447C59.5698 32.2134 59.4522 31.9807 59.4522 31.7471C59.4522 29.5273 60.5041 27.6587 62.0216 26.3749C62.2551 26.2589 62.3719 26.0245 62.6055 25.9077C62.8382 25.7909 63.1894 25.5573 63.423 25.4406C64.3573 24.9726 65.2916 24.7398 66.3427 24.7398C67.3938 24.7398 68.4449 24.9734 69.2624 25.4406C69.4952 25.5565 69.8463 25.6741 70.0799 25.9077C70.3135 26.0237 70.4303 26.2581 70.663 26.3749C72.1813 27.6595 73.2324 29.5281 73.2324 31.7471C73.4659 31.9807 73.4659 32.2134 73.3492 32.447ZM78.4878 30.4624C77.4359 31.6303 75.9185 32.2134 74.4002 32.447V31.8639C74.4002 29.7617 73.5827 27.8931 72.2981 26.4916H80.3564C80.1228 27.8931 79.5389 29.2946 78.4878 30.4624Z" fill="#081630" stroke="#081630" stroke-width="0.295066"/>
<path d="M66.4603 27.3111C64.0078 27.3111 61.9048 29.2965 61.9048 31.8667C61.9048 32.0994 61.9048 32.333 62.0224 32.5666C62.0224 32.6825 62.0224 32.9169 62.1392 33.0337C62.1392 33.1505 62.256 33.3841 62.256 33.5009C62.8399 35.2535 64.5917 36.4206 66.4603 36.4206C68.4457 36.4206 70.0799 35.1367 70.6647 33.5009C70.6647 33.3849 70.7807 33.1505 70.7807 33.0337C70.7807 32.9169 70.8974 32.6833 70.8974 32.5666C70.8974 32.333 71.0142 32.0994 71.0142 31.8658C71.0142 29.2965 69.0297 27.3111 66.4603 27.3111ZM70.0799 32.4498C70.0799 32.5665 69.964 32.801 69.964 32.9177C69.964 33.0337 69.8463 33.2681 69.7296 33.3849C69.1464 34.5528 67.9786 35.3703 66.4595 35.3703C65.0597 35.3703 63.7742 34.5528 63.1903 33.3849C63.0735 33.2681 63.0735 33.0345 62.9567 32.9177C62.9567 32.801 62.8399 32.5665 62.8399 32.4498C62.8399 32.2162 62.7239 31.9826 62.7239 31.7499C62.7239 29.7645 64.3581 28.1294 66.3435 28.1294C68.3281 28.1294 69.9631 29.7645 69.9631 31.749C70.0799 31.9834 70.0799 32.217 70.0799 32.4498ZM17.9958 27.3111C15.5433 27.3111 13.4411 29.2965 13.4411 31.8667C13.4411 32.0994 13.4411 32.333 13.5579 32.5666C13.5579 32.6825 13.5579 32.9169 13.6747 33.0337C13.6747 33.1505 13.7915 33.3841 13.7915 33.5009C14.3762 35.2535 16.1272 36.4206 17.9958 36.4206C19.9804 36.4206 21.6154 35.1367 22.1994 33.5009C22.1994 33.3849 22.3162 33.1505 22.3162 33.0337C22.3162 32.9169 22.433 32.6833 22.433 32.5666C22.433 32.333 22.5497 32.0994 22.5497 31.8658C22.5497 29.2965 20.5652 27.3111 17.9958 27.3111ZM21.6154 32.4498C21.6154 32.5665 21.4995 32.801 21.4995 32.9177C21.4995 33.0337 21.3819 33.2681 21.2651 33.3849C20.682 34.5528 19.5133 35.3703 17.9958 35.3703C16.5944 35.3703 15.3097 34.5528 14.7258 33.3849C14.609 33.2681 14.609 33.0345 14.4922 32.9177C14.4922 32.801 14.3754 32.5665 14.3754 32.4498C14.3754 32.2162 14.2586 31.9826 14.2586 31.7499C14.2586 29.7645 15.8937 28.1294 17.8782 28.1294C19.8636 28.1294 21.4987 29.7645 21.4987 31.749C21.6163 31.9834 21.6154 32.217 21.6154 32.4498ZM38.3144 17.1489L58.7507 17.0329C59.2178 17.0329 59.685 16.6817 59.9186 16.2154C60.1521 15.7483 60.0353 15.1635 59.685 14.8131L56.4149 11.0768C51.9778 5.93809 45.6713 3.13518 38.8976 3.13518H37.1466C36.6786 3.13518 36.2123 3.60233 36.2123 4.06948V15.1643C36.2101 15.4252 36.2606 15.6837 36.3608 15.9246C36.461 16.1654 36.6088 16.3835 36.7954 16.5658C37.3793 16.9161 37.8473 17.1489 38.3144 17.1489ZM37.2625 3.95269H39.0143C45.4377 3.95269 51.6266 6.7556 55.8318 11.6599L59.101 15.3971C59.2178 15.6307 59.2178 15.7474 59.2178 15.8642C59.2178 15.8642 59.1019 16.0986 58.8675 16.0986L38.4312 16.2146C38.08 16.2146 37.8473 16.0986 37.6137 15.8642C37.3801 15.6307 37.2634 15.3971 37.2634 15.0475L37.2625 3.95269ZM41.3509 20.0653H39.0152C38.7816 20.0653 38.548 20.2989 38.548 20.5316C38.548 20.7652 38.7816 20.9988 39.0152 20.9988H41.3509C41.5845 20.9988 41.8181 20.7652 41.8181 20.5316C41.8181 20.298 41.5845 20.0653 41.3509 20.0653Z" fill="#081630" stroke="#081630" stroke-width="0.295066"/>
</g>
<defs>
<clipPath id="clip0_47_5355">
<rect width="81.1431" height="39.3421" fill="white" transform="scale(1.01056)"/>
</clipPath>
</defs>
</svg>
