<svg width="85" height="40" viewBox="0 0 85 40" fill="none" xmlns="http://www.w3.org/2000/svg">
<g clip-path="url(#clip0_47_5334)">
<path d="M78.6316 15.3346L63.4859 13.5026C63.2408 13.5026 63.1195 13.3805 62.9974 13.2583L54.3249 3.12022C53.6039 2.27039 52.7051 1.58926 51.6919 1.12496C50.6788 0.66066 49.576 0.424523 48.4616 0.433233H15.7275C14.5431 0.437863 13.3758 0.715804 12.3165 1.24541C11.2571 1.77502 10.3343 2.542 9.61986 3.48663L1.92448 13.7469C1.20185 14.6934 0.815091 15.8537 0.825252 17.0445V26.5728C0.825252 29.7492 3.39093 32.1919 6.44433 32.1919H10.1084C11.2076 35.9773 14.7504 38.7864 18.903 38.7864C23.0556 38.7864 26.5984 35.9773 27.6976 32.191H59.0874C60.1883 35.9773 63.7302 38.7864 67.8828 38.7864C72.0355 38.7864 75.5782 35.9773 76.6774 32.191H81.1965C83.2728 32.191 84.8614 30.4811 84.8614 28.527V22.7849C85.1048 18.9987 82.2957 15.8232 78.6316 15.3346ZM9.742 29.5041C9.742 30.1147 9.742 30.6033 9.86496 31.214H6.44433C3.87948 31.214 1.9253 29.2598 1.80316 26.6949H10.2314C9.86496 27.5499 9.742 28.527 9.742 29.5041ZM27.087 31.214C27.087 31.3361 26.9648 31.5804 26.9648 31.7025C26.9648 31.8246 26.8419 32.0689 26.8419 32.1919C26.3001 33.8345 25.2516 35.2632 23.847 36.2727C22.4424 37.2821 20.754 37.8204 19.0243 37.8101C17.2947 37.8201 15.6064 37.2817 14.2019 36.2721C12.7975 35.2625 11.7492 33.8337 11.2076 32.191C11.2076 32.0689 11.0847 31.8246 11.0847 31.7025C11.0847 31.5804 10.9625 31.3361 10.9625 31.214C10.8404 30.6033 10.8404 30.1147 10.8404 29.5041C10.8404 28.527 10.9617 27.5499 11.3289 26.6949C11.3289 26.572 11.4511 26.3285 11.4511 26.2056C11.574 26.0834 11.574 25.8392 11.6953 25.717C13.0388 23.03 15.848 21.198 19.1465 21.198C22.322 21.198 25.1311 23.03 26.5976 25.717C26.7197 25.8392 26.7197 26.0834 26.8419 26.2056C26.9632 26.3285 26.964 26.572 26.964 26.6949C27.3304 27.5499 27.4525 28.527 27.4525 29.5041C27.2083 30.1147 27.2083 30.6033 27.0861 31.214H27.087ZM58.8448 29.5041C58.8448 30.1147 58.8448 30.6033 58.9661 31.214H28.064C28.1862 30.6033 28.1862 30.1147 28.1862 29.5041C28.1862 28.527 28.064 27.672 27.8198 26.6949H59.3333C58.9669 27.5499 58.8448 28.527 58.8448 29.5041ZM76.1889 31.214C76.1889 31.3361 76.0668 31.5804 76.0668 31.7025C76.0668 31.8246 75.9446 32.0689 75.9446 32.1919C75.4029 33.8345 74.3544 35.2632 72.9498 36.2727C71.5452 37.2821 69.8568 37.8204 68.1271 37.8101C66.3974 37.8204 64.709 37.282 63.3045 36.2724C61.9 35.2628 60.8517 33.8339 60.3104 32.191C60.3104 32.0689 60.1883 31.8246 60.1883 31.7025C60.1883 31.5804 60.0653 31.3361 60.0653 31.214C59.944 30.6033 59.944 30.1147 59.944 29.5041C59.944 28.527 60.0653 27.5499 60.4317 26.6949C60.4317 26.572 60.5547 26.3285 60.5547 26.2056C60.6768 26.0834 60.676 25.8392 60.7981 25.717C62.1416 23.03 64.9516 21.198 68.2501 21.198C71.4248 21.198 74.2347 23.03 75.7004 25.717C75.8225 25.8392 75.8225 26.0834 75.9446 26.2056C76.0659 26.3285 76.0668 26.572 76.0668 26.6949C76.4332 27.5499 76.5553 28.527 76.5553 29.5041C76.311 30.1147 76.311 30.6033 76.1889 31.214ZM84.1286 28.4048C84.1286 29.8705 82.9072 31.091 81.4416 31.091H77.1668C77.2881 30.4803 77.2881 29.9918 77.2881 29.3811C77.2881 28.4048 77.166 27.5491 76.9209 26.572H84.2507V28.404L84.1286 28.4048ZM84.1286 25.7178H76.4332C74.9675 22.4193 71.792 20.2217 68.005 20.2217C64.2188 20.2217 61.0424 22.5415 59.5776 25.7178H27.3312C25.8648 22.4193 22.6892 20.2217 18.903 20.2217C15.1168 20.2217 11.9413 22.5415 10.4748 25.7178H1.68103V22.5415H4.36802C4.61147 22.5415 4.85656 22.298 4.85656 22.0529C4.85656 21.8078 4.61229 21.5644 4.36802 21.5644H1.68103V18.511H4.36802C4.61147 18.511 4.85656 18.2667 4.85656 18.0216C4.85656 17.7774 4.61229 17.5331 4.36802 17.5331H1.68103V16.9224C1.68103 15.9453 2.04744 14.9674 2.53598 14.2354L10.2314 3.97517C11.4527 2.26527 13.4069 1.28818 15.6053 1.28818H48.3403C50.2944 1.28818 52.1265 2.14396 53.47 3.60877L62.1408 13.7469C62.3859 14.1133 62.8736 14.3576 63.24 14.3576L78.3865 16.1896C80.4628 16.4339 82.1736 17.6552 83.1506 19.3651H78.8759C78.6308 19.3651 78.3865 19.6094 78.3865 19.8545C78.3865 20.0988 78.6308 20.343 78.8751 20.343H83.6384C83.8835 21.0759 84.0048 21.8087 84.0048 22.5415V25.7178H84.1286Z" fill="#081630" stroke="#081630" stroke-width="0.295066"/>
<path d="M72.1571 26.2041C72.035 26.0812 71.9137 25.8377 71.7907 25.7148C70.8136 24.7385 69.471 24.127 68.0045 24.127C67.3 24.1296 66.6029 24.2712 65.9532 24.5437C65.3035 24.8161 64.7139 25.2141 64.2183 25.7148C64.0962 25.8377 63.974 26.0812 63.8519 26.2041C63.7306 26.3263 63.6076 26.5705 63.4855 26.6927C62.9969 27.5484 62.6305 28.4026 62.6305 29.5018C62.6305 30.1125 62.7527 30.7231 62.9969 31.2117C62.9969 31.3347 63.1191 31.5781 63.1191 31.7011C63.2404 31.8232 63.2404 32.0675 63.3633 32.1896C64.3404 33.7774 65.9282 34.7545 67.8824 34.7545C69.8365 34.7545 71.5464 33.6552 72.4014 32.1896C72.5235 32.0675 72.5235 31.8232 72.6465 31.7011C72.7686 31.5781 72.7678 31.3347 72.7678 31.2117C73.0129 30.7231 73.1342 30.1125 73.1342 29.5018C73.1342 28.5247 72.8899 27.5484 72.2801 26.6927C72.4014 26.5705 72.2801 26.4484 72.1571 26.2041ZM72.035 31.2117C71.9137 31.3347 71.9137 31.5781 71.7907 31.7011C71.6686 31.8232 71.5464 32.0675 71.4243 32.1896C71.0261 32.7205 70.5098 33.1514 69.9162 33.4482C69.3227 33.745 68.6681 33.8995 68.0045 33.8995C66.5389 33.8995 65.4397 33.2888 64.5847 32.1896C64.4626 32.0675 64.3404 31.8232 64.2183 31.7011C64.097 31.5781 63.974 31.3347 63.974 31.2117C63.7298 30.7231 63.6068 30.1125 63.6068 29.5018C63.6068 28.4026 63.974 27.5484 64.5847 26.6927C64.7068 26.5705 64.829 26.3263 65.0732 26.2041C65.3175 26.0812 65.4397 25.8377 65.6839 25.7148C66.3468 25.3132 67.1074 25.1019 67.8824 25.1041C68.6574 25.1017 69.4181 25.313 70.0808 25.7148C70.3251 25.8377 70.5702 25.959 70.6915 26.2041C70.8136 26.3263 71.0579 26.4476 71.18 26.6927C71.7907 27.4255 72.1571 28.4026 72.1571 29.5018C72.4014 30.1125 72.2801 30.601 72.035 31.2117ZM23.1773 26.2041C23.0544 26.0812 22.933 25.8377 22.8109 25.7148C21.8338 24.7385 20.4903 24.127 19.0239 24.127C18.3194 24.1296 17.6223 24.2712 16.9726 24.5437C16.3229 24.8161 15.7333 25.2141 15.2377 25.7148C15.1155 25.8377 14.9934 26.0812 14.8712 26.2041C14.7491 26.3263 14.627 26.5705 14.5048 26.6927C14.0163 27.5484 13.6499 28.4026 13.6499 29.5018C13.6499 30.1125 13.772 30.7231 14.0163 31.2117C14.0163 31.3347 14.1384 31.5781 14.1384 31.7011C14.2606 31.8232 14.2606 32.0675 14.3827 32.1896C15.3598 33.7774 16.9476 34.7545 18.9017 34.7545C20.8559 34.7545 22.5658 33.6552 23.4208 32.1896C23.5437 32.0675 23.5437 31.8232 23.665 31.7011C23.7872 31.5781 23.7872 31.3347 23.7872 31.2117C24.0314 30.7231 24.1544 30.1125 24.1544 29.5018C24.1544 28.5247 23.9101 27.5484 23.2994 26.6927C23.2994 26.5705 23.2995 26.4484 23.1773 26.2041ZM22.933 31.2117C22.8109 31.3347 22.8109 31.5781 22.6888 31.7011C22.5675 31.8232 22.4445 32.0675 22.3224 32.1896C21.9242 32.7205 21.4079 33.1514 20.8143 33.4482C20.2207 33.745 19.5662 33.8995 18.9026 33.8995C17.4369 33.8995 16.3377 33.2888 15.4827 32.1896C15.3606 32.0675 15.2385 31.8232 15.1163 31.7011C14.9934 31.5781 14.8721 31.3347 14.8721 31.2117C14.6278 30.7231 14.5057 30.1125 14.5057 29.5018C14.5057 28.4026 14.8721 27.5484 15.4827 26.6927C15.6049 26.5705 15.727 26.3263 15.9713 26.2041C16.2164 26.0812 16.3377 25.8377 16.582 25.7148C17.245 25.3129 18.006 25.1016 18.7812 25.1041C19.6362 25.1041 20.3682 25.3483 20.9797 25.7148C21.224 25.8377 21.4682 25.959 21.5904 26.2041C21.7125 26.3263 21.9568 26.4476 22.0789 26.6927C22.6896 27.4255 23.056 28.4026 23.056 29.5018C23.3003 30.1125 23.1773 30.601 22.933 31.2117ZM43.5757 15.5783H41.1329C40.8887 15.5783 40.6436 15.8217 40.6436 16.0668C40.6436 16.3111 40.8878 16.5554 41.1329 16.5554H43.5757C43.8199 16.5554 44.0642 16.3111 44.0642 16.0668C44.0642 15.8217 43.8208 15.5775 43.5757 15.5775V15.5783ZM26.5971 15.5783H24.1544C23.911 15.5783 23.6659 15.8217 23.6659 16.0668C23.6659 16.3111 23.9101 16.5554 24.1544 16.5554H26.5971C26.8414 16.5554 27.0865 16.3111 27.0865 16.0668C27.0865 15.8217 26.8422 15.5775 26.5971 15.5775V15.5783ZM53.2244 5.07295C52.1244 3.60732 50.2923 2.75237 48.4603 2.75237H18.5345C16.5803 2.75237 14.8704 3.60815 13.6491 5.19509L8.51935 12.0364C8.15294 12.5249 8.15294 13.0126 8.39721 13.5012C8.64066 13.9905 9.13003 14.2348 9.61857 14.2348H57.6213C58.232 14.2348 58.7205 13.8684 58.9648 13.379C59.2099 12.8905 59.0869 12.2798 58.8427 11.9134L53.2244 5.07295ZM9.86285 13.379C9.61857 13.379 9.49644 13.2569 9.3743 13.1348C9.25134 13.0134 9.25134 12.7683 9.3743 12.6462L14.504 5.80577C15.4803 4.46227 16.9467 3.72946 18.5345 3.72946H22.1986L19.7559 13.379H9.86367H9.86285ZM20.8551 13.379L23.2994 3.73028H37.4689L38.6902 13.3798H20.8567L20.8551 13.379ZM39.5444 13.379L38.3222 3.73028H48.4603C48.8267 3.73028 49.1931 3.73028 49.4374 3.85242L53.1014 13.3798H39.5452L39.5444 13.379ZM58.1098 13.1348C57.9877 13.2577 57.8656 13.379 57.6213 13.379H54.2015L50.6596 4.21883C51.37 4.56758 51.9954 5.06787 52.4916 5.68446L57.9885 12.6462C58.1107 12.7683 58.232 12.8905 58.1098 13.1348Z" fill="#081630" stroke="#081630" stroke-width="0.295066"/>
</g>
<defs>
<clipPath id="clip0_47_5334">
<rect width="84.4216" height="39.3421" fill="white" transform="scale(1.00685)"/>
</clipPath>
</defs>
</svg>
