<svg width="100" height="74" viewBox="0 0 100 74" fill="none" xmlns="http://www.w3.org/2000/svg">
<path fill-rule="evenodd" clip-rule="evenodd" d="M48.1717 0.0125251C69.6203 -0.341306 92.1651 6.79087 98.5536 22.7764C104.774 38.3419 89.9333 52.6795 73.0625 62.2948C56.0272 72.0039 33.8258 78.9735 16.5745 69.4997C-1.27531 59.6972 -3.35627 40.3914 3.94389 24.3372C10.6131 9.67052 28.2374 0.341377 48.1717 0.0125251Z" fill="#F1BC00"/>
<path d="M46.2621 8.97618C41.4228 11.2948 39.5736 16.7863 41.9736 21.7491C43.1146 24.1491 45.6326 26.2236 47.8359 26.5897C49.0949 26.7931 49.1736 26.9152 49.2916 28.705C49.3703 30.0474 49.567 30.5762 49.9998 30.5762C50.4326 30.5762 50.6293 30.0474 50.708 28.705C50.8261 26.9152 50.9048 26.7931 52.1638 26.5897C57.0425 25.7762 60.5048 18.9016 58.5375 13.9796C57.1605 10.6033 53.4228 7.9999 49.9998 7.9999C48.9769 7.9999 47.4031 8.40668 46.2621 8.97618ZM50.6687 11.6202C50.7867 12.0677 51.2195 12.5152 51.6523 12.5965C53.0687 13.0033 52.1638 13.8982 50.1572 14.1016C48.6621 14.2643 48.19 14.4677 48.072 15.0779C47.9146 16.0948 49.0556 16.9491 50.59 16.9491C52.0851 16.9491 53.2654 18.1287 53.2654 19.5931C53.2654 20.6914 52.1638 22.2372 51.3769 22.2372C51.1015 22.2372 50.7867 22.6033 50.6687 23.0507C50.5507 23.4982 50.2752 23.8643 50.0785 23.8643C49.8818 23.8643 49.6064 23.4982 49.4884 23.0507C49.3703 22.5626 48.9375 22.2372 48.4654 22.2372C47.9933 22.2372 47.6392 21.9931 47.6392 21.627C47.6392 21.1796 48.072 21.0169 49.331 21.0169C51.4162 21.0169 52.0851 20.5694 51.8884 19.3491C51.7703 18.4948 51.4949 18.3321 49.8425 18.1287C47.7179 17.8846 46.8523 17.0711 46.8523 15.3219C46.8523 14.2236 47.6785 13.2067 48.9375 12.7592C49.2916 12.5965 49.6064 12.1084 49.6064 11.6609C49.6064 10.644 50.3933 10.6033 50.6687 11.6202Z" fill="white"/>
<path d="M34.3013 36.3526C29.3833 41.7627 29.58 41.2339 30.4062 47.4983L30.8784 51.1187H50.039H69.1997L69.6718 47.661C69.9472 45.7898 70.1439 43.5932 70.1833 42.7797C70.2226 41.2339 70.1439 41.1119 64.1636 34.7254L61.2128 31.5932H49.9603H38.6685L34.3013 36.3526ZM61.4489 35.3356C62.2751 36.3119 62.9439 37.2068 62.9833 37.3695C62.9833 37.5729 57.1603 37.6949 49.9997 37.6949C42.8784 37.6949 37.0161 37.5729 37.0161 37.4509C37.0161 37.2881 37.6849 36.3932 38.5112 35.4576L39.9669 33.7085L49.9603 33.6678L59.9144 33.6271L61.4489 35.3356ZM40.321 43.3492C41.1866 43.4712 41.9341 43.8373 42.0521 44.122C42.1702 44.5288 41.3833 44.6102 38.5112 44.5288C35.0489 44.4068 34.8521 44.3661 34.7341 43.4712C34.6161 42.5763 34.6554 42.5356 36.7013 42.8203C37.8423 42.9831 39.4948 43.1864 40.321 43.3492ZM65.3439 43.5932V44.6509L61.7243 44.5288C59.5997 44.4475 58.0653 44.2441 58.0653 44C58.0653 43.7559 59.403 43.3898 61.0161 43.1458C65.4226 42.4542 65.3439 42.4542 65.3439 43.5932Z" fill="white"/>
<path d="M28.8328 36.9628C28.9115 37.7357 29.1869 37.8984 30.4853 37.8984C31.6262 37.8984 32.1377 37.6544 32.6098 36.9628C33.1607 36.0679 33.1607 36.0679 30.9574 36.0679C28.8328 36.0679 28.7148 36.1086 28.8328 36.9628Z" fill="white"/>
<path d="M66.9177 36.3929C66.9177 37.2471 68.4914 38.1421 69.7505 38.02C70.7341 37.9387 71.0882 37.6946 71.1668 36.9624C71.2849 36.1082 71.1668 36.0675 69.1209 36.0675C67.9013 36.0675 66.9177 36.2302 66.9177 36.3929Z" fill="white"/>
<path d="M30.8 53.3559L30.9574 54.7797H28.4787C26.5508 54.7797 26 54.9017 26 55.3898C26 55.9186 28.9115 56 50 56C71.0885 56 74 55.9186 74 55.3898C74 54.9017 73.4492 54.7797 71.482 54.7797H68.9246L69.1607 53.3559L69.3967 51.9322H65.7771H62.1967V53.3559V54.7797H49.882H37.5672L37.7246 53.3559L37.882 51.9322H34.2623H30.6426L30.8 53.3559Z" fill="white"/>
</svg>
