<svg width="40" height="40" viewBox="0 0 40 40" fill="none" xmlns="http://www.w3.org/2000/svg">
<g clip-path="url(#clip0_47_5264)">
<path d="M20.4074 19.9009L21.2788 19.3668L32.4102 26.9845L20.4074 19.9009ZM19.7609 19.4793L18.9457 19.0014L19.8733 4.46876L19.7609 19.4793ZM18.777 19.4231L15.0947 22.487L19.5079 19.8728L18.777 19.4231Z" fill="#081630"/>
<path d="M19.9864 0.167923C9.02362 0.167923 0.140991 9.05055 0.140991 20.0133C0.140991 30.976 9.02362 39.8587 19.9864 39.8587C30.9491 39.8587 39.8317 30.976 39.8317 20.0133C39.8317 9.05055 30.9491 0.167923 19.9864 0.167923ZM19.9864 38.7624C15.4607 38.7624 11.2162 37.2445 8.03978 34.4897C4.97584 31.7912 2.58652 27.4904 1.99622 22.9367C3.4017 31.6225 10.907 38.2283 19.9864 38.2283C30.0496 38.2283 38.2014 30.0765 38.2014 20.0133C38.2014 15.825 36.6553 11.7491 34.266 8.68513C36.6553 10.5404 38.7355 15.7969 38.7355 20.0133C38.7636 30.3857 30.3588 38.7624 19.9864 38.7624ZM18.2717 18.5797L19.8739 2.13559H20.0145L20.1831 19.4511L22.9379 17.7926L20.1831 2.13559C29.9653 2.21992 37.8641 10.203 37.8641 19.9852C37.8641 23.1335 37.0489 26.085 35.6153 28.671L23.219 18.2986L22.0384 18.9732L35.531 28.8397C35.5028 28.8959 35.4747 28.9521 35.4185 29.0084L20.2393 20.2663V23.3302L35.3061 29.1489C32.1859 34.3492 26.4797 37.8348 19.9864 37.8348C13.493 37.8348 7.7868 34.3492 4.66663 29.177L19.7334 23.3302V20.2382L4.5542 28.9521C4.52609 28.8959 4.49798 28.8397 4.44176 28.7835L17.8781 18.9451L16.6975 18.2705L4.32932 28.5867C2.92384 26.0287 2.10866 23.1053 2.10866 19.9571C2.10866 10.2312 9.89502 2.33236 19.5647 2.10748L17.1473 17.9332L18.2717 18.5797ZM19.9864 1.23609C9.64203 1.23609 1.23726 9.64085 1.23726 19.9852C1.23726 24.2016 2.75518 28.1651 5.08828 31.6226C5.87535 33.1124 6.71863 34.0119 7.87113 35.2206C3.4017 31.6507 0.506415 26.1412 0.506415 19.9852C0.506415 9.21921 9.22039 0.505238 19.9864 0.505238C30.7523 0.505238 39.635 9.61274 39.2976 19.9852C39.0447 9.86573 30.1901 1.23609 19.9864 1.23609Z" fill="#081630"/>
</g>
<defs>
<clipPath id="clip0_47_5264">
<rect width="39.3421" height="39.3421" fill="white" transform="scale(1.01672)"/>
</clipPath>
</defs>
</svg>
