<svg width="101" height="40" viewBox="0 0 101 40" fill="none" xmlns="http://www.w3.org/2000/svg">
<g clip-path="url(#clip0_47_5369)">
<path d="M92.5468 13.5885L78.0668 13.0212C77.3564 13.0212 76.5047 12.7368 75.9374 12.4531L66.7094 6.20795C61.0315 2.37332 54.3596 0.386144 47.4032 0.386144H34.0594C30.9368 0.386144 27.9548 1.23791 25.2581 2.7992L11.6299 10.6073C11.3462 10.7487 11.0617 10.891 10.7781 10.891L6.94514 11.0324C5.38301 11.0324 3.82256 11.6005 2.68631 12.7359C1.55006 13.873 0.840532 15.2929 0.840532 16.9964V22.107C0.840532 28.0686 5.66665 33.0378 11.7713 33.0378H12.9075C14.468 36.3034 17.7328 38.7156 21.5657 38.7156C25.3987 38.7156 28.8057 36.444 30.2248 33.0378H71.6777C73.2407 36.3034 76.5047 38.7156 80.3385 38.7156C84.1714 38.7156 87.5785 36.444 88.9975 33.0378H89.282C95.2444 33.0378 100.213 28.2108 100.213 22.107C100.639 17.2801 97.0893 13.7299 92.5468 13.5885ZM12.623 31.6179H11.9127C8.07971 31.6179 4.67264 29.347 3.11135 26.0814H12.7653C12.4808 26.9331 12.3385 27.9272 12.3385 28.9203C12.3385 29.7721 12.4816 30.7661 12.623 31.6179ZM29.8006 31.6179C29.6592 32.0437 29.517 32.3282 29.3747 32.7541C27.9557 35.4508 25.1159 37.2957 21.9933 37.2957C18.8707 37.2957 15.8887 35.45 14.4696 32.7533C14.3266 32.4696 14.186 32.0437 14.0438 31.6179C13.7601 30.7661 13.4765 29.7721 13.4765 28.7789C13.4765 27.7858 13.6179 26.7917 14.0438 25.94C14.186 25.5141 14.3282 25.2296 14.4696 24.8037C15.8887 22.107 18.7285 20.2621 21.8519 20.2621C24.9762 20.2621 27.8143 22.1079 29.2333 24.8046C29.3747 25.0882 29.5178 25.5141 29.66 25.94C29.9437 26.7917 30.2273 27.7858 30.2273 28.7789C30.2273 29.7721 30.0851 30.7661 29.8006 31.6179ZM71.6786 31.6179H30.936C31.2196 30.7661 31.3627 29.7721 31.3627 28.7789C31.3627 27.7858 31.2196 26.7917 30.936 25.94H71.6786C71.3949 26.7917 71.2535 27.7858 71.2535 28.7789C71.2535 29.7721 71.3949 30.7661 71.6786 31.6179ZM88.7139 31.6179C88.5725 32.0437 88.4303 32.3282 88.288 32.7541C86.869 35.4508 84.0292 37.2957 80.9066 37.2957C77.6409 37.2957 74.802 35.45 73.5252 32.7533C73.3821 32.4696 73.2407 32.0437 73.0985 31.6179C72.814 30.7661 72.5303 29.7721 72.5303 28.7789C72.5303 27.7858 72.6734 26.7917 73.0985 25.94C73.2407 25.5141 73.3821 25.2296 73.5243 24.8037C74.9442 22.107 77.7832 20.2621 80.9058 20.2621C84.0283 20.2621 86.869 22.1079 88.288 24.8046C88.4303 25.0882 88.5725 25.5141 88.7139 25.94C88.9975 26.7917 89.282 27.7858 89.282 28.7789C89.1398 29.7729 88.9975 30.7661 88.7139 31.6179ZM89.8493 31.6179C90.1338 30.7661 90.276 29.7721 90.276 28.7789C90.276 27.7858 90.1338 26.7917 89.8493 25.94H98.5092C97.7223 27.5873 96.499 28.9875 94.9723 29.9885C93.4456 30.9895 91.6738 31.553 89.8493 31.6179ZM89.4243 24.946C87.8621 21.6803 84.5965 19.2673 80.7644 19.2673C76.9322 19.2673 73.5243 21.5389 72.1053 24.946H30.5093C28.9471 21.6803 25.6823 19.2673 21.8494 19.2673C18.0164 19.2673 14.6094 21.5389 13.1903 24.946H2.68547C2.39519 24.0766 2.25155 23.165 2.26042 22.2484H5.09937C5.24652 22.238 5.38497 22.1748 5.48921 22.0704C5.59345 21.966 5.65646 21.8275 5.66665 21.6803C5.65627 21.5333 5.59317 21.3949 5.48895 21.2907C5.38473 21.1865 5.24639 21.1234 5.09937 21.113H2.26042V17.5646H5.09937C5.24652 17.5542 5.38497 17.4909 5.48921 17.3865C5.59345 17.2821 5.65646 17.1436 5.66665 16.9964C5.65646 16.8493 5.59345 16.7107 5.48921 16.6063C5.38497 16.5019 5.24652 16.4387 5.09937 16.4283H2.40182C2.54322 15.2929 2.96911 14.1575 3.82087 13.3057C4.67264 12.454 5.95029 12.0272 7.08654 12.0272H7.22878L11.0617 11.8858C11.4885 11.8858 12.0557 11.7444 12.4816 11.46L26.1099 3.51041C28.6652 2.09136 31.5041 1.23959 34.3439 1.23959H47.6877C54.3596 1.23959 60.7478 3.22593 66.2843 6.91748L75.5115 13.1626C76.357 13.5941 77.2683 13.8822 78.2082 14.0153L92.6882 14.5825C95.2444 14.7239 97.373 16.0024 98.5092 17.9896H92.9727C92.8256 18.0003 92.6872 18.0636 92.5829 18.1679C92.4786 18.2722 92.4153 18.4106 92.4046 18.5577C92.4148 18.7049 92.478 18.8435 92.5824 18.9478C92.6869 19.052 92.8255 19.115 92.9727 19.125H99.0765C99.361 19.9768 99.6446 20.8285 99.6446 21.8225C99.6446 22.9588 99.5032 23.952 99.0765 24.9451H89.4234L89.4243 24.946Z" fill="#081630"/>
<path d="M12.623 31.6179H11.9127C8.07971 31.6179 4.67264 29.347 3.11135 26.0814H12.7653C12.4808 26.9331 12.3385 27.9272 12.3385 28.9203C12.3385 29.7721 12.4816 30.7661 12.623 31.6179ZM12.623 31.6179H12.6239M92.5468 13.5885L78.0668 13.0212C77.3564 13.0212 76.5047 12.7368 75.9374 12.4531L66.7094 6.20795C61.0315 2.37332 54.3596 0.386144 47.4032 0.386144H34.0594C30.9368 0.386144 27.9548 1.23791 25.2581 2.7992L11.6299 10.6073C11.3462 10.7487 11.0617 10.891 10.7781 10.891L6.94514 11.0324C5.38301 11.0324 3.82256 11.6005 2.68631 12.7359C1.55006 13.873 0.840532 15.2929 0.840532 16.9964V22.107C0.840532 28.0686 5.66665 33.0378 11.7713 33.0378H12.9075C14.468 36.3034 17.7328 38.7156 21.5657 38.7156C25.3987 38.7156 28.8057 36.444 30.2248 33.0378H71.6777C73.2407 36.3034 76.5047 38.7156 80.3385 38.7156C84.1714 38.7156 87.5785 36.444 88.9975 33.0378H89.282C95.2444 33.0378 100.213 28.2108 100.213 22.107C100.639 17.2801 97.0893 13.7299 92.5468 13.5885ZM29.8006 31.6179C29.6592 32.0437 29.517 32.3282 29.3747 32.7541C27.9557 35.4508 25.1159 37.2957 21.9933 37.2957C18.8707 37.2957 15.8887 35.45 14.4696 32.7533C14.3266 32.4696 14.186 32.0437 14.0438 31.6179C13.7601 30.7661 13.4765 29.7721 13.4765 28.7789C13.4765 27.7858 13.6179 26.7917 14.0438 25.94C14.186 25.5141 14.3282 25.2296 14.4696 24.8037C15.8887 22.107 18.7285 20.2621 21.8519 20.2621C24.9762 20.2621 27.8143 22.1079 29.2333 24.8046C29.3747 25.0882 29.5178 25.5141 29.66 25.94C29.9437 26.7917 30.2273 27.7858 30.2273 28.7789C30.2273 29.7721 30.0851 30.7661 29.8006 31.6179ZM71.6786 31.6179H30.936C31.2196 30.7661 31.3627 29.7721 31.3627 28.7789C31.3627 27.7858 31.2196 26.7917 30.936 25.94H71.6786C71.3949 26.7917 71.2535 27.7858 71.2535 28.7789C71.2535 29.7721 71.3949 30.7661 71.6786 31.6179ZM88.7139 31.6179C88.5725 32.0437 88.4303 32.3282 88.288 32.7541C86.869 35.4508 84.0292 37.2957 80.9066 37.2957C77.6409 37.2957 74.802 35.45 73.5252 32.7533C73.3821 32.4696 73.2407 32.0437 73.0985 31.6179C72.814 30.7661 72.5303 29.7721 72.5303 28.7789C72.5303 27.7858 72.6734 26.7917 73.0985 25.94C73.2407 25.5141 73.3821 25.2296 73.5243 24.8037C74.9442 22.107 77.7832 20.2621 80.9058 20.2621C84.0283 20.2621 86.869 22.1079 88.288 24.8046C88.4303 25.0882 88.5725 25.5141 88.7139 25.94C88.9975 26.7917 89.282 27.7858 89.282 28.7789C89.1398 29.7729 88.9975 30.7661 88.7139 31.6179ZM89.8493 31.6179C90.1338 30.7661 90.276 29.7721 90.276 28.7789C90.276 27.7858 90.1338 26.7917 89.8493 25.94H98.5092C97.7223 27.5873 96.499 28.9875 94.9723 29.9885C93.4456 30.9895 91.6738 31.553 89.8493 31.6179ZM89.4243 24.946C87.8621 21.6803 84.5965 19.2672 80.7644 19.2672C76.9322 19.2672 73.5243 21.5389 72.1053 24.946H30.5093C28.9471 21.6803 25.6823 19.2672 21.8494 19.2672C18.0164 19.2672 14.6094 21.5389 13.1903 24.946H2.68547C2.39519 24.0766 2.25155 23.165 2.26042 22.2484H5.09936C5.24652 22.238 5.38497 22.1748 5.48921 22.0704C5.59345 21.966 5.65646 21.8275 5.66665 21.6803C5.65627 21.5333 5.59317 21.3949 5.48895 21.2907C5.38473 21.1865 5.24639 21.1234 5.09936 21.113H2.26042V17.5646H5.09936C5.24652 17.5542 5.38497 17.4909 5.48921 17.3865C5.59345 17.2821 5.65646 17.1436 5.66665 16.9964C5.65646 16.8493 5.59345 16.7107 5.48921 16.6063C5.38497 16.5019 5.24652 16.4387 5.09936 16.4283H2.40182C2.54322 15.2929 2.96911 14.1575 3.82087 13.3057C4.67264 12.454 5.95029 12.0272 7.08654 12.0272H7.22878L11.0617 11.8858C11.4885 11.8858 12.0557 11.7444 12.4816 11.4599L26.1099 3.51041C28.6652 2.09136 31.5041 1.23959 34.3439 1.23959H47.6877C54.3596 1.23959 60.7478 3.22593 66.2843 6.91748L75.5115 13.1626C76.357 13.5941 77.2683 13.8822 78.2082 14.0153L92.6882 14.5825C95.2444 14.7239 97.373 16.0024 98.5092 17.9896H92.9727C92.8256 18.0003 92.6872 18.0636 92.5829 18.1679C92.4786 18.2722 92.4153 18.4106 92.4046 18.5577C92.4148 18.7049 92.478 18.8435 92.5824 18.9478C92.6869 19.052 92.8255 19.115 92.9727 19.125H99.0765C99.361 19.9768 99.6446 20.8285 99.6446 21.8225C99.6446 22.9588 99.5032 23.952 99.0765 24.9451H89.4234L89.4243 24.946Z" stroke="#081630" stroke-width="0.295066"/>
<path d="M48.1137 3.65241H35.9062C32.9242 3.65241 29.9438 4.9309 27.8144 7.20172C27.3282 7.69747 27.0008 8.32699 26.8743 9.00978C26.7477 9.69257 26.8277 10.3976 27.1041 11.0347C27.6722 12.3123 28.8076 13.1641 30.2266 13.1641L69.976 14.4434C70.2605 14.4434 70.5442 14.3012 70.5442 14.0175V13.5908L66.9948 10.6096C61.8842 6.20855 55.0701 3.65241 48.1137 3.65241ZM30.2266 12.1701C29.2335 12.1701 28.3809 11.602 28.0972 10.6079C27.6722 9.75618 27.9558 8.76217 28.6653 7.9104C30.5111 5.92323 33.2078 4.78782 35.9054 4.78782H46.1266L48.9655 12.7365L30.2266 12.1692V12.1701ZM50.1009 12.8796L47.262 4.78866H48.1137C54.7865 4.78866 61.3161 7.20172 66.4267 11.4606L68.6984 13.4477L50.1009 12.8796ZM84.5983 24.9466C83.6051 23.9526 82.3275 23.3844 80.7654 23.3844C79.2032 23.3844 77.9264 23.9526 76.9332 24.9466C76.6496 25.2302 76.3651 25.6561 76.0815 26.082C75.5238 26.9236 75.2275 27.9113 75.2297 28.9209C75.2274 29.9305 75.5237 30.9183 76.0815 31.7599C76.3651 32.1858 76.6496 32.4694 76.9332 32.8961C77.9264 33.8893 79.3463 34.4574 80.7654 34.4574C82.1852 34.4574 83.6051 33.8901 84.5983 32.8953C84.8828 32.6116 85.1664 32.1858 85.4501 31.7599C85.8768 30.9081 86.3018 30.0563 86.3018 28.9209C86.3043 27.9113 86.008 26.9235 85.4501 26.082C85.1664 25.6561 84.8828 25.2311 84.5983 24.9466ZM84.031 31.6185C83.6051 32.0435 83.1792 32.4702 82.6111 32.7547C82.0438 33.0384 81.3335 33.322 80.624 33.322C79.9144 33.322 79.2049 33.1806 78.6368 32.7539C78.0687 32.4702 77.6428 32.0444 77.2169 31.6185C76.5751 30.8112 76.2251 29.8108 76.2237 28.7795C76.2237 27.6433 76.6496 26.7924 77.2169 25.9406C77.6428 25.5147 78.0687 25.0888 78.6368 24.8043C79.2041 24.5207 79.9136 24.3793 80.624 24.3793C81.3343 24.3793 81.9008 24.5207 82.6111 24.8043C83.1792 25.0888 83.6051 25.5147 84.031 25.9406C84.7414 26.6501 85.025 27.6441 85.025 28.7795C85.1664 29.9158 84.7414 30.9089 84.031 31.6185ZM54.3623 16.8548H51.5233C51.376 16.865 51.2374 16.9281 51.133 17.0325C51.0285 17.137 50.9654 17.2756 50.9552 17.4229C50.9656 17.5701 51.0288 17.7085 51.1332 17.8128C51.2376 17.917 51.3762 17.98 51.5233 17.9902H54.3623C54.5094 17.98 54.648 17.917 54.7524 17.8128C54.8568 17.7085 54.92 17.5701 54.9304 17.4229C54.9304 17.1384 54.789 16.8548 54.3623 16.8548ZM33.2103 16.8548H30.3714C30.2241 16.865 30.0854 16.9281 29.981 17.0325C29.8766 17.137 29.8135 17.2756 29.8033 17.4229C29.8137 17.5701 29.8769 17.7085 29.9813 17.8128C30.0857 17.917 30.2242 17.98 30.3714 17.9902H33.2103C33.3574 17.9798 33.4957 17.9167 33.5999 17.8125C33.7042 17.7083 33.7673 17.5699 33.7776 17.4229C33.7674 17.2757 33.7044 17.1372 33.6002 17.0328C33.496 16.9284 33.3575 16.8652 33.2103 16.8548ZM25.685 24.9466C24.6918 23.9526 23.4142 23.3844 21.8521 23.3844C20.4322 23.3844 19.0131 23.9526 18.0191 24.9466C17.7355 25.2302 17.451 25.6561 17.1673 26.082C16.6097 26.9236 16.3133 27.9113 16.3156 28.9209C16.3132 29.9305 16.6096 30.9183 17.1673 31.7599C17.451 32.1858 17.7355 32.4694 18.0191 32.8961C19.0131 33.8893 20.4322 34.4574 21.8521 34.4574C23.4142 34.4574 24.691 33.8901 25.685 32.8953C25.9695 32.6116 26.2531 32.1858 26.5368 31.7599C26.9635 30.9081 27.3885 30.0563 27.3885 28.9209C27.3909 27.9113 27.0945 26.9236 26.5368 26.082C26.2531 25.6561 25.9695 25.2311 25.685 24.9466ZM25.1177 31.6185C24.691 32.0435 24.266 32.4702 23.6978 32.7547C23.1305 33.0384 22.4202 33.322 21.7107 33.322C21.0011 33.322 20.2908 33.1806 19.7235 32.7539C19.1554 32.4702 18.7303 32.0444 18.3036 31.6185C17.6618 30.8112 17.3118 29.8108 17.3104 28.7795C17.3104 27.6433 17.7355 26.7924 18.3036 25.9406C18.7295 25.5147 19.1554 25.0888 19.7235 24.8043C20.2908 24.5207 21.0011 24.3793 21.7098 24.3793C22.4202 24.3793 22.9891 24.5207 23.6978 24.8043C24.266 25.0888 24.6918 25.5147 25.1177 25.9406C25.8272 26.6501 26.1109 27.6441 26.1109 28.7795C26.2531 29.9158 25.8272 30.9089 25.1177 31.6185Z" fill="#081630" stroke="#081630" stroke-width="0.295066"/>
</g>
<defs>
<clipPath id="clip0_47_5369">
<rect width="100.448" height="39.3421" fill="white" transform="scale(1.0055)"/>
</clipPath>
</defs>
</svg>
