<svg width="24" height="24" viewBox="0 0 24 24" fill="none" xmlns="http://www.w3.org/2000/svg">
<path d="M21.0004 9.99709H3.0004M21.0004 12.4964V8.7974C21.0004 7.11769 21.0004 6.27783 20.6734 5.63626C20.3858 5.07192 19.9269 4.6131 19.3624 4.32556C18.7206 3.99866 17.8806 3.99866 16.2004 3.99866H7.8004C6.12024 3.99866 5.28016 3.99866 4.63843 4.32556C4.07394 4.6131 3.615 5.07192 3.32738 5.63626C3.0004 6.27783 3.0004 7.11769 3.0004 8.7974V17.1952C3.0004 18.8749 3.0004 19.7148 3.32738 20.3563C3.615 20.9207 4.07394 21.3795 4.63843 21.667C5.28016 21.9939 6.12024 21.9939 7.8004 21.9939H12.0004M16.0004 1.99919V5.99814M8.0004 1.99919V5.99814M14.5004 18.9947L16.5004 20.9942L21.0004 16.4954" stroke="#081630" stroke-width="1.96711" stroke-linecap="round" stroke-linejoin="round"/>
</svg>
