<svg width="50" height="42" viewBox="0 0 50 42" fill="none" xmlns="http://www.w3.org/2000/svg">
<g clip-path="url(#clip0_47_5303)">
<path d="M7.09074 14.6284C9.69278 7.08451 16.8867 1.98725 24.9989 1.98725C33.1112 1.98725 40.305 7.08451 42.9071 14.6284V14.6794H48.6214V14.0168L46.2744 13.7619C44.7948 13.609 44.4887 12.9464 44.0805 12.1308L43.9785 11.9269C40.5601 4.68879 33.1112 -0.00068098 24.9989 -0.00068098C16.8867 -0.00068098 9.43768 4.68879 5.96829 11.9269L5.86625 12.1308C5.50911 12.9464 5.15196 13.609 3.72339 13.7619L1.32543 14.0168V14.6794H7.03972L7.09074 14.6284Z" fill="#081630"/>
<path d="M42.9581 27.2192V27.2702C40.305 34.8141 33.1112 39.9114 24.9989 39.9114C16.8867 39.9114 9.69278 34.8141 7.09074 27.2702V27.2192H1.32543V27.8818L3.72339 28.1367C5.20299 28.2896 5.50911 28.9523 5.91727 29.7678L6.01931 29.9717C9.38666 37.2098 16.8867 41.8993 24.9989 41.8993C33.1112 41.8993 40.5601 37.2098 44.0295 29.9717L44.1316 29.7678C44.5397 28.9523 44.8458 28.3406 46.3254 28.1367L48.7234 27.8818V27.2192H42.9581Z" fill="#081630"/>
<path d="M11.5794 18.2992H10.2528V24.11H11.5794V18.2992Z" fill="#081630"/>
<path d="M7.141 24.0591V18.2992H5.86549V22.6318L1.6308 18.2992H-0.00185722V24.0591H1.27365V19.7264L5.55937 24.0591H7.141Z" fill="#081630"/>
<path d="M36.1734 18.2991L32.602 24.11H34.1326L34.7448 23.0905H38.8775L39.4897 24.11H41.0203L37.4489 18.2991H36.1734ZM38.2652 21.9691H35.4081L36.8367 19.6244L38.2652 21.9691Z" fill="#081630"/>
<path d="M28.9773 22.885C28.9263 22.885 28.7732 22.885 28.7222 22.885H23.3651V24.0574H28.7732C28.8242 24.0574 29.1304 24.0574 29.1814 24.0574C30.3038 23.9555 30.763 23.0889 30.763 22.2734C30.763 21.4578 30.2528 20.6422 29.2324 20.5403C29.0793 20.5403 28.9263 20.5403 28.8242 20.5403H25.3038C25.1508 20.5403 25.0487 20.5403 24.8957 20.4893C24.6406 20.4384 24.4875 20.2345 24.5385 19.9796C24.5385 19.7247 24.6916 19.5209 24.9467 19.4699C25.0487 19.4189 25.2018 19.4189 25.3038 19.4189H30.4059V18.2465H25.2528C25.0998 18.2465 24.8957 18.2465 24.7426 18.2975C23.8753 18.3995 23.212 19.1131 23.212 19.9796C23.212 20.6932 23.6712 21.5598 24.6916 21.6617C24.8957 21.6617 25.0487 21.7127 25.2528 21.6617H28.6712C28.7222 21.6617 28.8753 21.6617 28.9263 21.6617C29.2324 21.7127 29.4365 21.9675 29.4365 22.2224C29.4365 22.5792 29.2324 22.8341 28.9773 22.885Z" fill="#081630"/>
<path d="M19.5901 22.8866C19.539 22.8866 19.386 22.8866 19.335 22.8866H14.0288V24.059H19.386C19.437 24.059 19.7431 24.059 19.7941 24.059C20.9166 23.9571 21.4268 23.0905 21.4268 22.3259C21.4268 21.5613 20.9166 20.6948 19.8962 20.5929C19.7431 20.5929 19.5901 20.5929 19.488 20.5929H15.9676C15.8145 20.5929 15.7125 20.5929 15.5594 20.5419C15.3043 20.4909 15.1513 20.287 15.2023 20.0322C15.2023 19.7773 15.3554 19.5734 15.6105 19.5224C15.7125 19.4715 15.8656 19.4715 15.9676 19.4715H21.0697V18.2991H15.8656C15.7125 18.2991 15.5084 18.2991 15.3554 18.3501C14.488 18.452 13.8248 19.1656 13.8248 20.0322C13.8248 20.7458 14.2839 21.6123 15.3043 21.7143C15.5084 21.7143 15.6615 21.7652 15.8656 21.7143H19.2839C19.335 21.7143 19.488 21.7143 19.539 21.7143C19.8452 21.7652 20.0492 22.0201 20.0492 22.275C20.1003 22.5808 19.8452 22.8357 19.5901 22.8866Z" fill="#081630"/>
<path d="M49.9967 24.059V18.2991H48.7211V22.6318L44.4865 18.2991H42.8538V24.059H44.1293V19.7263L48.415 24.059H49.9967Z" fill="#081630"/>
<path d="M46.6811 38.382C47.2933 38.382 47.8035 38.8917 47.8035 39.5034C47.8035 40.115 47.2933 40.6248 46.6811 40.6248C46.0689 40.6248 45.5587 40.115 45.5587 39.5034C45.5587 39.1975 45.6607 38.9427 45.9158 38.6878C46.0689 38.4839 46.375 38.331 46.6811 38.382ZM46.6811 40.3699C46.9362 40.3699 47.1403 40.268 47.2933 40.115C47.4464 39.9621 47.5484 39.7073 47.5484 39.5034C47.5484 39.0446 47.1403 38.6368 46.6811 38.6878C46.2219 38.6878 45.8138 39.0956 45.8138 39.5543C45.8138 39.9621 46.1709 40.3699 46.6811 40.3699ZM46.2219 40.0641V38.9427C46.375 38.9427 46.477 38.8917 46.6301 38.8917C46.8342 38.8917 47.1403 38.9427 47.1403 39.1975C47.1403 39.3504 47.0382 39.4524 46.8852 39.4524C46.9872 39.5034 47.0382 39.6053 47.0893 39.7073C47.0893 39.8092 47.1403 39.9111 47.1913 39.9621H46.9362C46.8852 39.8602 46.8852 39.7582 46.8342 39.7073C46.7831 39.5543 46.6811 39.5543 46.477 39.5543V40.0131L46.2219 40.0641ZM46.477 39.4014C46.6811 39.4014 46.8852 39.4014 46.8852 39.2485C46.8852 39.1466 46.8342 39.0956 46.6301 39.0956C46.5791 39.0956 46.528 39.0956 46.477 39.0956V39.4014Z" fill="#081630"/>
</g>
<defs>
<clipPath id="clip0_47_5303">
<rect width="49.2957" height="41.3092" fill="white" transform="scale(1.01429)"/>
</clipPath>
</defs>
</svg>
