<svg width="20" height="20" viewBox="0 0 20 20" fill="none" xmlns="http://www.w3.org/2000/svg">
<g clip-path="url(#clip0_47_4818)">
<path d="M10.0003 1.66675V3.75008M10.0003 1.66675C5.39795 1.66675 1.66699 5.39771 1.66699 10.0001M10.0003 1.66675C14.6027 1.66675 18.3337 5.39771 18.3337 10.0001M10.0003 16.2501V18.3334M10.0003 18.3334C14.6027 18.3334 18.3337 14.6025 18.3337 10.0001M10.0003 18.3334C5.39795 18.3334 1.66699 14.6025 1.66699 10.0001M3.75033 10.0001H1.66699M18.3337 10.0001H16.2503M15.899 15.8988L14.4209 14.4207M4.10168 15.8988L5.58129 14.4192M4.10168 4.16675L5.54873 5.61379M15.899 4.16675L11.2502 8.75008M11.667 10.0001C11.667 10.9206 10.9208 11.6667 10.0003 11.6667C9.07985 11.6667 8.33366 10.9206 8.33366 10.0001C8.33366 9.07961 9.07985 8.33342 10.0003 8.33342C10.9208 8.33342 11.667 9.07961 11.667 10.0001Z" stroke="#081630" stroke-width="1.5" stroke-linecap="round" stroke-linejoin="round"/>
</g>
<defs>
<clipPath id="clip0_47_4818">
<rect width="20" height="20" fill="white"/>
</clipPath>
</defs>
</svg>
