<svg width="175" height="151" viewBox="0 0 175 151" fill="none" xmlns="http://www.w3.org/2000/svg">
<path fill-rule="evenodd" clip-rule="evenodd" d="M88.1703 11.9641C103.825 14.7547 108.687 31.9922 121.215 40.5678C132.898 48.565 151.335 48.8283 158.512 60.1141C166.049 71.9653 162.963 86.6485 158.811 99.6861C154.498 113.232 148.883 128.332 134.633 135.103C120.707 141.719 104.013 134.346 88.1703 133.249C73.9891 132.266 59.1073 135.22 46.8232 129.02C33.8888 122.493 25.9388 110.889 20.1876 98.9399C14.0135 86.1127 8.69179 72.1431 13.0054 58.7603C17.4056 45.109 30.1618 34.9939 43.4697 26.7087C56.7335 18.4508 72.1581 9.10973 88.1703 11.9641Z" fill="#F1BC00"/>
<g clip-path="url(#clip0_47_5437)">
<path d="M106.701 77.666C106.799 76.9024 106.864 76.1083 106.864 75.2836C106.864 74.4589 106.799 73.6648 106.668 72.9012L112.186 68.8694C112.676 68.5029 112.807 67.8309 112.513 67.3117L107.289 58.851C106.962 58.3012 106.277 58.118 105.689 58.3012L99.1915 60.7447C97.8201 59.7673 96.3835 58.9732 94.7837 58.3623L93.8042 51.887C93.7062 51.2762 93.1512 50.8485 92.4981 50.8485H82.0501C81.397 50.8485 80.8746 51.2762 80.7767 51.887L79.7972 58.3623C78.1973 58.9732 76.7281 59.7979 75.3894 60.7447L68.892 58.3012C68.3043 58.0874 67.6186 58.3012 67.2921 58.851L62.0681 67.3117C61.7416 67.8615 61.8722 68.5029 62.3946 68.8694L67.9125 72.9012C67.7819 73.6648 67.6839 74.4895 67.6839 75.2836C67.6839 76.0777 67.7492 76.9024 67.8798 77.666L62.3619 81.6978C61.8722 82.0643 61.7416 82.7363 62.0354 83.2555L67.2595 91.7162C67.586 92.266 68.2716 92.4492 68.8593 92.266L75.3567 89.8225C76.7281 90.7999 78.1647 91.594 79.7645 92.2049L80.744 98.6802C80.8746 99.291 81.397 99.7186 82.0501 99.7186H92.4981C93.1512 99.7186 93.7062 99.291 93.7715 98.6802L94.751 92.2049C96.3509 91.594 97.8201 90.7693 99.1588 89.8225L105.656 92.266C106.244 92.4798 106.93 92.266 107.256 91.7162L112.48 83.2555C112.807 82.7057 112.676 82.0643 112.154 81.6978L106.701 77.666ZM87.2741 84.4467C81.8868 84.4467 77.479 80.3233 77.479 75.2836C77.479 70.2439 81.8868 66.1205 87.2741 66.1205C92.6614 66.1205 97.0692 70.2439 97.0692 75.2836C97.0692 80.3233 92.6614 84.4467 87.2741 84.4467Z" fill="white"/>
</g>
<defs>
<clipPath id="clip0_47_5437">
<rect width="65.2699" height="61.059" fill="white" transform="translate(54.6233 44.7397) scale(1.00047)"/>
</clipPath>
</defs>
</svg>
