<svg width="89" height="40" viewBox="0 0 89 40" fill="none" xmlns="http://www.w3.org/2000/svg">
<g clip-path="url(#clip0_47_5348)">
<path d="M87.5166 16.1115C86.9927 15.3164 85.9457 14.7857 84.3731 14.5196C81.8844 14.1216 77.3001 13.8563 73.6318 13.5918C71.1423 13.4591 69.0475 13.1938 68.2607 13.1938C67.6058 13.0611 67.0819 12.9285 66.558 12.5305L60.401 5.50369C57.5194 2.19054 53.3272 0.33329 49.004 0.33329H17.0421C12.4569 0.33329 8.26466 2.85216 6.03798 6.83029L2.36966 13.3265C0.798731 16.1115 0.537608 19.4255 1.58378 22.3423L3.54849 27.9099V29.2365C3.41751 30.694 3.41751 31.888 4.20424 32.6831C4.59718 33.0811 5.25209 33.3464 6.16896 33.3464H10.6232C11.933 36.6604 15.0765 39.0475 18.8766 39.0475C22.5441 39.0475 25.8186 36.6604 27.1285 33.3464H65.1172C66.427 36.6604 69.5714 39.0475 73.3707 39.0475C77.0381 39.0475 80.3135 36.6604 81.6225 33.3464H86.4696C86.6014 33.3464 86.7316 33.3464 86.8634 33.2138C86.9944 33.0803 86.9935 32.9484 86.9935 32.8158V27.2474C86.9935 25.2583 87.3873 23.4019 87.7794 21.8108C87.9113 19.4246 88.4352 17.4364 87.5175 16.1098L87.5166 16.1115ZM6.03798 32.2868C5.38307 32.2868 4.99013 32.1533 4.85915 31.8888C4.46536 31.4908 4.46536 30.4296 4.59718 29.2365V27.9107H10.2294C10.0984 28.574 9.96741 29.3691 9.96741 30.0324C9.96741 30.8275 10.0984 31.4908 10.2294 32.2868H6.03798ZM26.0798 32.2868C26.0798 32.4186 25.9488 32.6848 25.9488 32.8166C25.9488 32.9493 25.8178 33.2146 25.6868 33.3473C24.508 36.1306 21.7574 37.9878 18.613 37.9878C15.4695 37.9878 12.7189 36.1323 11.5392 33.3473C11.409 33.2138 11.4082 32.9493 11.2772 32.8166C11.2772 32.684 11.1462 32.4186 11.1462 32.2868C10.8843 31.6235 10.7525 30.8284 10.7525 30.0324C10.7525 29.2373 10.8834 28.574 11.1462 27.9107C11.1462 27.7789 11.2772 27.5127 11.2772 27.3809C11.2772 27.2482 11.409 26.9829 11.409 26.8502C12.5879 24.0661 15.3385 22.0778 18.4829 22.0778C21.6264 22.0778 24.377 24.0661 25.5567 26.8502C25.6868 26.9838 25.6868 27.2482 25.6868 27.3809C25.6868 27.5127 25.8186 27.7789 25.8186 27.9107C25.9496 28.574 26.2116 29.3691 26.2116 30.0324C26.4736 30.8275 26.3434 31.4908 26.0814 32.2868H26.0798ZM27.1285 32.2868C27.2594 31.6235 27.3904 30.8284 27.3904 30.0324C27.3904 29.2373 27.2586 28.574 27.1285 27.9107H64.4614C64.3313 28.574 64.1995 29.3691 64.1995 30.0324C64.1995 30.8275 64.3313 31.4908 64.4614 32.2868H27.1285ZM80.4428 32.2868C80.4428 32.4186 80.3127 32.6848 80.3127 32.8166C80.3127 32.9493 80.1809 33.2146 80.0507 33.3473C78.8719 36.1306 76.1213 37.9878 72.9769 37.9878C69.8325 37.9878 67.0819 36.1323 65.9031 33.3473C65.7721 33.2138 65.7721 32.9493 65.6411 32.8166C65.6411 32.684 65.5093 32.4186 65.5093 32.2868C65.2473 31.6235 65.1172 30.8284 65.1172 30.0324C65.1172 29.2373 65.2473 28.574 65.5093 27.9107C65.5093 27.7789 65.6411 27.5127 65.6411 27.3809C65.6411 27.2482 65.7721 26.9829 65.7721 26.8502C66.9509 24.0661 69.7015 22.0778 72.8451 22.0778C75.9886 22.0778 78.7401 24.0661 79.9189 26.8502C80.0507 26.9838 80.0507 27.2482 80.0507 27.3809C80.0507 27.5127 80.1809 27.7789 80.1809 27.9107C80.3127 28.574 80.5746 29.3691 80.5746 30.0324C80.8366 30.8275 80.7056 31.4908 80.4428 32.2868ZM85.5519 32.2868H81.4915C81.6225 31.6235 81.7535 30.8284 81.7535 30.0324C81.7535 29.2373 81.6225 28.574 81.4915 27.9107H85.5519V32.2868ZM86.4688 21.548C86.0758 23.1391 85.6837 24.9947 85.6837 26.8502H81.2295C79.9197 23.5363 76.7753 21.1492 72.976 21.1492C69.1784 21.1492 66.0341 23.5363 64.7234 26.8502H26.7347C25.4249 23.5363 22.2813 21.1492 18.4812 21.1492C14.6827 21.1492 11.5392 23.5363 10.2294 26.8502H4.07242L2.36966 21.9443C1.97588 20.8839 1.84574 19.8226 1.84574 18.8957H4.98929C5.25125 18.8957 5.51321 18.6303 5.51321 18.365C5.51321 18.0997 5.25125 17.8352 4.98929 17.8352H1.84574C1.97756 16.3768 2.36966 15.051 3.02541 13.7244L6.69204 7.22827C8.78858 3.51546 12.587 1.26191 16.7793 1.26191H48.7412C52.8024 1.26191 56.7327 2.98566 59.3523 6.03517L65.6403 13.1946L65.7713 13.3265C66.4262 13.7244 67.212 14.1216 67.9979 14.1216C68.7838 14.2551 71.0113 14.3869 73.5 14.5196C77.1674 14.7849 81.7526 15.1829 84.1103 15.4482C85.4209 15.5808 86.2068 15.9788 86.5998 16.6413C87.2538 17.7017 86.8617 19.4255 86.4679 21.5472L86.4688 21.548Z" fill="#081630" stroke="#081630" stroke-width="0.295066"/>
<path d="M42.8489 17.8354H40.2285C39.9665 17.8354 39.7045 18.1007 39.7045 18.3652C39.7045 18.6305 39.9665 18.8958 40.2285 18.8958H42.8481C43.1109 18.8958 43.3729 18.6305 43.3729 18.3652C43.3729 18.1007 43.1109 17.8354 42.8489 17.8354ZM77.2995 27.381C77.1685 27.2484 77.0375 26.983 76.9066 26.8512C75.9897 25.6573 74.5481 24.8613 72.9771 24.8613C71.4053 24.8613 69.9629 25.6573 69.0477 26.8512C68.9159 26.983 68.7849 27.2492 68.6531 27.381C68.5221 27.5129 68.5229 27.779 68.3919 27.9117C68.13 28.575 67.868 29.2366 67.868 30.0326C67.868 30.8294 68.13 31.6236 68.3919 32.2869C68.5229 32.4196 68.5229 32.6849 68.6539 32.8167C68.784 32.9494 68.9159 33.2147 69.0468 33.3474C69.9637 34.5405 71.4045 35.203 72.9763 35.203C74.5489 35.203 75.9897 34.4078 76.9066 33.3474C77.0688 33.1959 77.2019 33.0161 77.2995 32.8167C77.4305 32.6841 77.4305 32.4188 77.5615 32.2869C77.8234 31.6236 78.0854 30.8285 78.0854 30.0326C78.0854 29.2374 77.9544 28.5741 77.5615 27.9117C77.5615 27.6464 77.4305 27.5137 77.2995 27.381ZM76.3826 32.2869C76.2516 32.4196 76.1207 32.6849 75.9897 32.8167L75.4658 33.3474C74.8109 33.8772 73.8931 34.1425 72.9771 34.1425C72.0602 34.1425 71.2735 33.8772 70.4876 33.3474C70.2257 33.2147 70.0947 33.0821 69.9637 32.8167C69.8327 32.6841 69.7017 32.5523 69.5708 32.2869C69.1778 31.6236 68.9159 30.8285 68.9159 30.0326C68.9159 29.2374 69.1778 28.5741 69.5708 27.9117C69.7017 27.7782 69.8327 27.5137 69.9637 27.381L70.4876 26.8512C71.1425 26.3206 72.0594 25.9226 72.9771 25.9226C73.894 25.9226 74.8109 26.3206 75.4658 26.8504C75.5959 26.983 75.8579 27.1157 75.9897 27.381C76.1207 27.5129 76.2516 27.6464 76.3826 27.9117C76.7756 28.575 77.0375 29.2366 77.0375 30.0326C77.0375 30.8294 76.7756 31.6236 76.3826 32.2869ZM22.9381 27.381C22.8071 27.2484 22.6762 26.983 22.5452 26.8512C21.6275 25.6573 20.1858 24.8613 18.6149 24.8613C17.0431 24.8613 15.6023 25.6573 14.6855 26.8512C14.5537 26.983 14.4227 27.2492 14.2917 27.381C14.1607 27.5129 14.1607 27.779 14.0297 27.9117C13.7678 28.575 13.5058 29.2366 13.5058 30.0326C13.5058 30.8294 13.7678 31.6236 14.0297 32.2869C14.1615 32.4196 14.1615 32.6849 14.2917 32.8167C14.4227 32.9494 14.5537 33.2147 14.6846 33.3474C15.6023 34.5405 17.044 35.203 18.6149 35.203C20.1867 35.203 21.6275 34.4078 22.5443 33.3474C22.6753 33.2147 22.8071 33.0821 22.9381 32.8167C23.0691 32.6841 23.0691 32.4188 23.2001 32.2869C23.462 31.6236 23.724 30.8285 23.724 30.0326C23.724 29.2374 23.5922 28.5741 23.2001 27.9117C23.0691 27.6464 23.0691 27.5137 22.9381 27.381ZM22.0213 32.2869C21.8903 32.4196 21.7593 32.6849 21.6275 32.8167L21.1035 33.3474C20.4486 33.8772 19.5318 34.1425 18.6149 34.1425C17.698 34.1425 16.9122 33.8772 16.1263 33.3474C15.8913 33.2425 15.7042 33.0531 15.6023 32.8167C15.4399 32.6656 15.3065 32.486 15.2086 32.2869C14.8156 31.6236 14.5537 30.8285 14.5537 30.0326C14.5537 29.2374 14.8156 28.5741 15.2086 27.9117C15.3404 27.7782 15.4714 27.5137 15.6023 27.381L16.1263 26.8512C16.7812 26.3206 17.698 25.9226 18.6149 25.9226C19.5318 25.9226 20.4495 26.3206 21.1035 26.8504C21.2345 26.983 21.4973 27.1157 21.6275 27.381C21.7585 27.5129 21.8894 27.6464 22.0213 27.9117C22.4142 28.575 22.6762 29.2366 22.6762 30.0326C22.6762 30.8294 22.4142 31.6236 22.0213 32.2869ZM22.0204 17.8354H19.4008C19.138 17.8354 18.876 18.1007 18.876 18.3652C18.876 18.6305 19.138 18.8958 19.4 18.8958H22.0196C22.2824 18.8958 22.5443 18.6305 22.5443 18.3652C22.5443 18.1007 22.2824 17.8354 22.0204 17.8354ZM85.422 17.7086C85.2864 17.7063 85.1529 17.7424 85.0369 17.8127C84.9209 17.8829 84.8271 17.9845 84.7663 18.1057L83.9804 22.2165C83.9775 22.3527 84.0128 22.487 84.0822 22.6042C84.1516 22.7214 84.2525 22.8169 84.3733 22.8798H84.5043C84.7663 22.8798 84.8972 22.7472 85.0282 22.4827L85.8141 18.3719C85.8171 18.2358 85.7819 18.1015 85.7126 17.9843C85.6433 17.8671 85.5427 17.7716 85.422 17.7086ZM56.9957 6.96393C54.8992 4.44506 51.7565 2.98663 48.6121 2.98663H17.5654C14.2908 2.98663 11.4084 4.71038 9.70567 7.62723C9.2549 8.4144 9.01775 9.30574 9.01775 10.2128C9.01775 11.1199 9.2549 12.0113 9.70567 12.7985C10.6225 14.3895 12.3253 15.45 14.159 15.45H60.0083C60.7942 15.45 61.3181 15.052 61.7111 14.3895C61.973 13.7262 61.973 12.9311 61.4491 12.4005L56.9957 6.96393ZM14.1599 14.3887C12.7191 14.3887 11.2774 13.5936 10.6234 12.267C9.83749 10.9421 9.83749 9.35013 10.6234 8.15703C12.0642 5.63816 14.6846 4.04624 17.5662 4.04624H19.6619L17.8282 14.256H14.159L14.1599 14.3887ZM18.7442 14.3887L20.5796 4.3124V4.04708H35.2512L36.692 14.3887H18.745H18.7442ZM37.608 14.3887L36.1672 4.04792H48.6121C50.0529 4.04792 51.3627 4.31324 52.6734 4.84304L55.6859 14.2569H37.6088V14.3895L37.608 14.3887ZM60.7942 13.9907C60.6632 14.256 60.4012 14.5214 60.0083 14.5214H56.6028L53.8505 5.77082C54.7682 6.30146 55.5533 6.96393 56.209 7.89255L60.6624 13.1956C60.9243 13.3283 60.9252 13.5936 60.7942 13.9907Z" fill="#081630"/>
<path d="M56.9957 6.96393C54.8992 4.44506 51.7565 2.98663 48.6121 2.98663H17.5654C14.2908 2.98663 11.4084 4.71038 9.70567 7.62723C9.2549 8.4144 9.01775 9.30574 9.01775 10.2128C9.01775 11.1199 9.2549 12.0113 9.70567 12.7985C10.6225 14.3895 12.3253 15.45 14.159 15.45H60.0083C60.7942 15.45 61.3181 15.052 61.7111 14.3895C61.973 13.7262 61.973 12.9311 61.4491 12.4005L56.9957 6.96393ZM56.9957 6.96393L56.9949 6.96477M42.8489 17.8354H40.2285C39.9665 17.8354 39.7045 18.1007 39.7045 18.3652C39.7045 18.6305 39.9665 18.8958 40.2285 18.8958H42.8481C43.1109 18.8958 43.3729 18.6305 43.3729 18.3652C43.3729 18.1007 43.1109 17.8354 42.8489 17.8354ZM77.2995 27.381C77.1685 27.2484 77.0375 26.983 76.9066 26.8512C75.9897 25.6573 74.548 24.8613 72.9771 24.8613C71.4053 24.8613 69.9629 25.6573 69.0477 26.8512C68.9159 26.983 68.7849 27.2492 68.6531 27.381C68.5221 27.5129 68.5229 27.779 68.3919 27.9117C68.13 28.575 67.868 29.2366 67.868 30.0326C67.868 30.8294 68.13 31.6236 68.3919 32.2869C68.5229 32.4196 68.5229 32.6849 68.6539 32.8167C68.784 32.9494 68.9159 33.2147 69.0468 33.3474C69.9637 34.5405 71.4045 35.203 72.9763 35.203C74.5489 35.203 75.9897 34.4078 76.9066 33.3474C77.0688 33.1959 77.2019 33.0161 77.2995 32.8167C77.4305 32.6841 77.4305 32.4188 77.5615 32.2869C77.8234 31.6236 78.0854 30.8285 78.0854 30.0326C78.0854 29.2374 77.9544 28.5741 77.5615 27.9117C77.5615 27.6464 77.4305 27.5137 77.2995 27.381ZM76.3826 32.2869C76.2516 32.4196 76.1207 32.6849 75.9897 32.8167L75.4658 33.3474C74.8108 33.8772 73.8931 34.1425 72.9771 34.1425C72.0602 34.1425 71.2735 33.8772 70.4876 33.3474C70.2257 33.2147 70.0947 33.0821 69.9637 32.8167C69.8327 32.6841 69.7017 32.5523 69.5708 32.2869C69.1778 31.6236 68.9159 30.8285 68.9159 30.0326C68.9159 29.2374 69.1778 28.5741 69.5708 27.9117C69.7017 27.7782 69.8327 27.5137 69.9637 27.381L70.4876 26.8512C71.1425 26.3206 72.0594 25.9226 72.9771 25.9226C73.894 25.9226 74.8108 26.3206 75.4658 26.8504C75.5959 26.9831 75.8579 27.1157 75.9897 27.381C76.1207 27.5129 76.2516 27.6464 76.3826 27.9117C76.7756 28.575 77.0375 29.2366 77.0375 30.0326C77.0375 30.8294 76.7756 31.6236 76.3826 32.2869ZM22.9381 27.381C22.8071 27.2484 22.6762 26.983 22.5452 26.8512C21.6275 25.6573 20.1858 24.8613 18.6149 24.8613C17.0431 24.8613 15.6023 25.6573 14.6855 26.8512C14.5537 26.983 14.4227 27.2492 14.2917 27.381C14.1607 27.5129 14.1607 27.779 14.0297 27.9117C13.7678 28.575 13.5058 29.2366 13.5058 30.0326C13.5058 30.8294 13.7678 31.6236 14.0297 32.2869C14.1615 32.4196 14.1615 32.6849 14.2917 32.8167C14.4227 32.9494 14.5537 33.2147 14.6846 33.3474C15.6023 34.5405 17.044 35.203 18.6149 35.203C20.1867 35.203 21.6275 34.4078 22.5443 33.3474C22.6753 33.2147 22.8071 33.0821 22.9381 32.8167C23.0691 32.6841 23.0691 32.4188 23.2001 32.2869C23.462 31.6236 23.724 30.8285 23.724 30.0326C23.724 29.2374 23.5922 28.5741 23.2001 27.9117C23.0691 27.6464 23.0691 27.5137 22.9381 27.381ZM22.0213 32.2869C21.8903 32.4196 21.7593 32.6849 21.6275 32.8167L21.1035 33.3474C20.4486 33.8772 19.5318 34.1425 18.6149 34.1425C17.698 34.1425 16.9122 33.8772 16.1263 33.3474C15.8913 33.2425 15.7042 33.0531 15.6023 32.8167C15.4399 32.6656 15.3065 32.486 15.2086 32.2869C14.8156 31.6236 14.5537 30.8285 14.5537 30.0326C14.5537 29.2374 14.8156 28.5741 15.2086 27.9117C15.3404 27.7782 15.4714 27.5137 15.6023 27.381L16.1263 26.8512C16.7812 26.3206 17.698 25.9226 18.6149 25.9226C19.5318 25.9226 20.4495 26.3206 21.1035 26.8504C21.2345 26.9831 21.4973 27.1157 21.6275 27.381C21.7585 27.5129 21.8894 27.6464 22.0213 27.9117C22.4142 28.575 22.6762 29.2366 22.6762 30.0326C22.6762 30.8294 22.4142 31.6236 22.0213 32.2869ZM22.0204 17.8354H19.4008C19.138 17.8354 18.876 18.1007 18.876 18.3652C18.876 18.6305 19.138 18.8958 19.4 18.8958H22.0196C22.2824 18.8958 22.5443 18.6305 22.5443 18.3652C22.5443 18.1007 22.2824 17.8354 22.0204 17.8354ZM85.422 17.7086C85.2864 17.7063 85.1529 17.7424 85.0369 17.8127C84.9209 17.8829 84.8271 17.9845 84.7663 18.1057L83.9804 22.2165C83.9775 22.3527 84.0128 22.487 84.0822 22.6042C84.1516 22.7214 84.2525 22.8169 84.3733 22.8798H84.5043C84.7663 22.8798 84.8972 22.7472 85.0282 22.4827L85.8141 18.3719C85.8171 18.2358 85.7819 18.1015 85.7126 17.9843C85.6433 17.8671 85.5427 17.7716 85.422 17.7086ZM14.1599 14.3887C12.7191 14.3887 11.2774 13.5936 10.6234 12.267C9.83749 10.9421 9.83749 9.35013 10.6234 8.15703C12.0642 5.63816 14.6846 4.04624 17.5662 4.04624H19.6619L17.8282 14.256H14.159L14.1599 14.3887ZM18.7442 14.3887L20.5796 4.3124V4.04708H35.2512L36.692 14.3887H18.745H18.7442ZM37.608 14.3887L36.1672 4.04792H48.6121C50.0529 4.04792 51.3627 4.31324 52.6734 4.84304L55.6859 14.2569H37.6088V14.3895L37.608 14.3887ZM60.7942 13.9907C60.6632 14.256 60.4012 14.5214 60.0083 14.5214H56.6028L53.8505 5.77082C54.7682 6.30146 55.5533 6.96393 56.209 7.89255L60.6624 13.1956C60.9243 13.3283 60.9252 13.5936 60.7942 13.9907Z" stroke="#081630" stroke-width="0.295066"/>
</g>
<defs>
<clipPath id="clip0_47_5348">
<rect width="88.729" height="39.3421" fill="white" transform="scale(1.00305)"/>
</clipPath>
</defs>
</svg>
