<svg width="92" height="38" viewBox="0 0 92 38" fill="none" xmlns="http://www.w3.org/2000/svg">
<g clip-path="url(#clip0_47_5376)">
<path d="M87.2702 15.6947L84.1699 14.5793C80.5738 13.2139 76.9776 11.7265 73.5044 9.99067L64.0813 5.40207C57.8807 2.42632 51.0597 0.814282 44.2394 0.814282H8.15509C6.66681 0.814282 5.30309 1.43467 4.18688 2.42632C0.961991 5.65039 0.714486 12.9672 0.838239 15.8192V22.5149C0.838239 27.8476 5.05396 32.0633 10.3867 32.0633H11.3783C12.7429 34.9153 15.5949 37.0232 18.9427 37.0232C22.2913 37.0232 25.2671 35.0391 26.5071 32.0633H66.9341C68.2979 34.9153 71.1499 37.0232 74.4977 37.0232C77.8463 37.0232 80.8229 35.0391 82.0628 32.0633H82.3104C87.5193 32.0633 91.8588 27.7239 91.8588 22.5149C91.8588 19.5391 89.9985 16.8109 87.2702 15.6947ZM10.2621 31.1963C8.15346 31.1963 6.17017 30.3276 4.68188 29.0876H10.635C10.635 29.8317 10.7588 30.5759 11.0071 31.1963H10.2629H10.2621ZM26.2596 28.9638C26.2596 29.7072 26.1358 30.4521 25.8875 31.0725C25.7629 31.4438 25.6392 31.6913 25.5154 32.0642C24.8853 33.2616 23.94 34.264 22.7816 34.9633C21.6232 35.6625 20.2958 36.0319 18.9427 36.0316C16.0907 36.0316 13.61 34.4195 12.4946 32.0642C12.3708 31.8158 12.2471 31.4438 12.1225 31.0717C11.875 30.4521 11.7512 29.708 11.7512 28.9638V28.7155C11.7512 28.4672 11.7512 28.2189 11.875 28.0959C12.2471 24.3752 15.3474 21.3995 19.1918 21.3995C23.0363 21.3995 26.1366 24.3752 26.5079 28.0959C26.5079 28.3434 26.6316 28.5926 26.6316 28.7155C26.3833 28.8393 26.3833 28.8393 26.2596 28.9638ZM27.0029 31.1954C27.2512 30.4521 27.3749 29.8317 27.3749 29.0876H66.1884C66.1884 29.8317 66.3129 30.5759 66.5604 31.1963L27.0029 31.1954ZM81.9375 28.9638C81.9375 29.7072 81.8137 30.4521 81.5654 31.0725C81.4416 31.4438 81.3179 31.6913 81.1941 32.0642C79.9542 34.4203 77.4734 36.0316 74.746 36.0316C73.3929 36.0319 72.0655 35.6625 70.9071 34.9633C69.7487 34.264 68.8034 33.2616 68.1733 32.0642C68.0487 31.8158 67.925 31.4438 67.8012 31.0717C67.5529 30.4521 67.4291 29.708 67.4291 28.9638V28.7155C67.4291 28.4672 67.4291 28.2189 67.5529 28.0959C67.925 24.3752 71.0253 21.3995 74.8698 21.3995C78.7142 21.3995 81.8137 24.3752 82.1858 28.0959C82.1858 28.3434 82.3095 28.5926 82.3095 28.7155C81.9375 28.8393 81.9375 28.8393 81.9375 28.9638ZM82.5579 31.1954C82.8062 30.4521 82.9299 29.8317 82.9299 29.0876H88.1381C86.5261 30.3276 84.6657 31.0709 82.5579 31.1954ZM89.0068 28.0959H82.9299C82.5579 23.7557 78.9617 20.4078 74.6214 20.4078C70.282 20.4078 66.685 23.7557 66.3129 28.0959H27.3749C27.0029 23.7557 23.4067 20.4078 19.0665 20.4078C14.727 20.4078 11.13 23.7557 10.758 28.0959H3.93774C2.69778 26.6077 1.95445 24.6236 1.95445 22.5157V21.2757H4.43438C4.68189 21.2757 4.93102 21.0274 4.93102 20.7791C4.93102 20.5316 4.68189 20.2825 4.43438 20.2825H1.95364V18.795H6.16935C6.41767 18.795 6.66599 18.5467 6.66599 18.2984C6.66599 18.0508 6.41767 17.8017 6.16935 17.8017H1.70613V15.6947C1.70613 12.8427 1.82988 5.89789 4.80564 2.92214C5.67435 1.92968 6.79056 1.55761 8.02971 1.55761H44.1165C50.8122 1.55761 57.5094 3.16964 63.5855 6.02164L73.0102 10.6102C76.4818 12.346 80.2025 13.8343 83.7986 15.198L86.899 16.3142C88.2627 16.8109 89.2543 17.8025 89.9993 19.0425H85.659C85.4107 19.0425 85.1623 19.2908 85.1623 19.5391C85.1623 19.7866 85.4107 20.0358 85.659 20.0358H90.4943C90.7426 20.7791 90.8672 21.5232 90.8672 22.2666C90.9909 24.6236 90.2468 26.4847 89.0068 28.0959Z" fill="#081630" stroke="#081630" stroke-width="0.295066"/>
<path d="M74.4967 23.8809C72.1406 23.8809 70.1573 25.6175 69.7844 27.9728C69.7844 28.2211 69.6606 28.4695 69.6606 28.5932V28.8415C69.6606 29.5849 69.909 30.329 70.2802 30.9494C70.5285 31.3215 70.7769 31.569 71.0244 31.941C71.8922 32.8089 73.133 33.3056 74.3722 33.3056C75.7367 33.3056 76.8529 32.8089 77.7216 31.941C77.9683 31.6927 78.2166 31.3215 78.465 30.9494C78.837 30.329 79.0845 29.5857 79.0845 28.8407V28.5932C79.0845 28.3449 79.0845 28.0966 78.9616 27.9728C78.9616 25.7412 76.9767 23.8809 74.4967 23.8809ZM78.3412 28.9653C78.3412 29.755 78.0294 30.5122 77.4733 31.074C77.1004 31.4452 76.7284 31.8173 76.2333 32.0656C75.7367 32.3139 75.1171 32.5622 74.4967 32.5622C73.8772 32.5622 73.2568 32.4377 72.761 32.0656C72.2643 31.8173 71.8922 31.4452 71.521 31.074C71.0244 30.4536 70.6523 29.7102 70.6523 28.9653V28.7178C70.6523 28.4695 70.6523 28.2211 70.7769 28.0974C71.1489 26.3608 72.6364 24.9971 74.4976 24.9971C76.3571 24.9971 77.9683 26.3616 78.2166 28.0974C78.2166 28.3457 78.3412 28.594 78.3412 28.717V28.9653ZM50.1933 16.9361H47.7133C47.4658 16.9361 47.2167 17.1844 47.2167 17.4327C47.2167 17.6802 47.4658 17.9294 47.7133 17.9294H50.1941C50.4416 17.9294 50.6899 17.6802 50.6899 17.4327C50.6899 17.1844 50.4416 16.9361 50.1933 16.9361ZM27.6231 16.9361H25.1424C24.8949 16.9361 24.6458 17.1844 24.6458 17.4327C24.6458 17.6802 24.8949 17.9294 25.1424 17.9294H27.6231C27.8707 17.9294 28.1198 17.6802 28.1198 17.4327C28.1198 17.1844 27.8707 16.9361 27.6231 16.9361ZM18.9418 23.8809C16.5856 23.8809 14.6015 25.6175 14.2286 27.9728C14.2286 28.2211 14.1048 28.4695 14.1048 28.5932V28.8415C14.1048 29.5849 14.3532 30.329 14.7252 30.9494C14.9735 31.3215 15.2219 31.569 15.4686 31.941C16.3373 32.8089 17.5772 33.3056 18.8172 33.3056C20.1817 33.3056 21.2971 32.8089 22.165 31.941C22.4133 31.6927 22.6617 31.3215 22.9092 30.9494C23.2812 30.329 23.5287 29.5857 23.5287 28.8407V28.5932C23.5287 28.3449 23.5287 28.0966 23.405 27.9728C23.405 25.7412 21.4217 23.8809 18.9409 23.8809H18.9418ZM22.7862 28.9653C22.7862 29.834 22.4142 30.5773 21.9175 31.074C21.5463 31.4452 21.1742 31.8173 20.6776 32.0656C20.1809 32.3139 19.5622 32.5622 18.9418 32.5622C18.3214 32.5622 17.7018 32.4377 17.2052 32.0656C16.7085 31.8173 16.3373 31.4452 15.9652 31.074C15.4686 30.4536 15.0973 29.7102 15.0973 28.9653V28.7178C15.0973 28.4695 15.0973 28.2211 15.2211 28.0974C15.5931 26.3608 17.0814 24.9971 18.9418 24.9971C20.8013 24.9971 22.4133 26.3616 22.6617 28.0974C22.6617 28.3457 22.7854 28.594 22.7854 28.717V28.9653H22.7862ZM75.2401 14.0816L64.9475 8.62515C62.3438 7.26224 60.2359 6.26897 58.251 5.65021C53.2911 4.03817 48.2067 3.17028 42.9985 3.17028H10.0129C6.7888 3.17028 4.18431 5.89771 4.18431 9.24635C4.18431 12.9662 7.03631 15.9428 10.6325 15.9428H74.7443C75.2401 15.9428 75.613 15.6945 75.7367 15.1987C75.8596 14.8266 75.6121 14.3308 75.2401 14.0825V14.0816ZM10.5087 15.0733C7.53295 14.9495 5.17596 12.4696 5.17596 9.36929C5.17596 6.51729 7.40838 4.28486 10.1366 4.28486H10.5087V15.0733ZM20.43 15.0733H11.3766V4.16111H20.43V15.0733ZM23.1575 15.0733H21.4217V4.16111H23.1583L23.1575 15.0733ZM45.231 15.0733H24.0254V4.16111H42.9985C43.7427 4.16111 44.4868 4.16111 45.2302 4.28486L45.231 15.0733ZM46.2226 15.0733V4.28568C50.1908 4.53318 54.159 5.27732 58.0035 6.64185C59.9876 7.26143 62.0955 8.25389 64.5754 9.61761L74.868 15.0741L46.2226 15.0733Z" fill="#081630" stroke="#081630" stroke-width="0.295066"/>
</g>
<defs>
<clipPath id="clip0_47_5376">
<rect width="91.8125" height="37.375" fill="white" transform="scale(1.00204)"/>
</clipPath>
</defs>
</svg>
