<svg width="17" height="17" viewBox="0 0 17 17" fill="none" xmlns="http://www.w3.org/2000/svg">
<g clip-path="url(#clip0_0_35)">
<path fill-rule="evenodd" clip-rule="evenodd" d="M7.83277 0.731982C11.6113 0.41686 14.7942 3.25977 14.8738 6.92537L14.874 6.94075C14.874 8.22205 14.4727 9.41956 13.7613 10.4479L13.7542 10.458L10.159 15.467C10.1518 15.4769 10.1444 15.4867 10.1368 15.4963C9.3104 16.5301 7.68509 16.5937 6.891 15.4639L3.29458 10.4532C2.3571 9.1241 1.86447 7.44603 2.26286 5.67014C2.75409 3.00726 5.07593 1.04696 7.81115 0.73412C7.81834 0.733297 7.82555 0.732584 7.83277 0.731982ZM7.96134 2.14286C5.77213 2.39769 4.01408 3.95615 3.65393 5.93857C3.65209 5.94869 3.65003 5.95878 3.64775 5.96882C3.34758 7.29057 3.7 8.56898 4.45062 9.63433L8.04915 14.648C8.24091 14.9221 8.71919 14.9863 9.02042 14.6237L12.5996 9.63707C13.1535 8.83443 13.4558 7.91989 13.4573 6.94844C13.3918 4.1305 10.9427 1.9001 7.96134 2.14286Z" fill="#081630"/>
<path fill-rule="evenodd" clip-rule="evenodd" d="M8.50054 5.59575C7.75726 5.59575 7.15471 6.1983 7.15471 6.94158C7.15471 7.68487 7.75726 8.28742 8.50054 8.28742C9.24382 8.28742 9.84637 7.68487 9.84637 6.94158C9.84637 6.1983 9.24382 5.59575 8.50054 5.59575ZM5.73804 6.94158C5.73804 5.41589 6.97485 4.17908 8.50054 4.17908C10.0262 4.17908 11.263 5.41589 11.263 6.94158C11.263 8.46727 10.0262 9.70408 8.50054 9.70408C6.97485 9.70408 5.73804 8.46727 5.73804 6.94158Z" fill="#081630"/>
<path fill-rule="evenodd" clip-rule="evenodd" d="M8.50054 5.59575C7.75726 5.59575 7.15471 6.1983 7.15471 6.94158C7.15471 7.68487 7.75726 8.28742 8.50054 8.28742C9.24382 8.28742 9.84637 7.68487 9.84637 6.94158C9.84637 6.1983 9.24382 5.59575 8.50054 5.59575ZM5.73804 6.94158C5.73804 5.41589 6.97485 4.17908 8.50054 4.17908C10.0262 4.17908 11.263 5.41589 11.263 6.94158C11.263 8.46727 10.0262 9.70408 8.50054 9.70408C6.97485 9.70408 5.73804 8.46727 5.73804 6.94158Z" fill="#081630"/>
<path fill-rule="evenodd" clip-rule="evenodd" d="M8.50054 5.59575C7.75726 5.59575 7.15471 6.1983 7.15471 6.94158C7.15471 7.68487 7.75726 8.28742 8.50054 8.28742C9.24382 8.28742 9.84637 7.68487 9.84637 6.94158C9.84637 6.1983 9.24382 5.59575 8.50054 5.59575ZM5.73804 6.94158C5.73804 5.41589 6.97485 4.17908 8.50054 4.17908C10.0262 4.17908 11.263 5.41589 11.263 6.94158C11.263 8.46727 10.0262 9.70408 8.50054 9.70408C6.97485 9.70408 5.73804 8.46727 5.73804 6.94158Z" fill="#081630"/>
</g>
<defs>
<clipPath id="clip0_0_35">
<rect width="16.775" height="16.775" fill="white" transform="scale(1.01341)"/>
</clipPath>
</defs>
</svg>
