<svg width="101" height="40" viewBox="0 0 101 40" fill="none" xmlns="http://www.w3.org/2000/svg">
<path d="M92.6002 14.014L66.9241 13.5886C65.0806 13.5886 63.3784 13.0212 61.8182 11.8864L55.1506 6.92099C49.9035 2.94915 43.3779 0.82158 36.7103 0.82158C30.8934 0.82158 25.0773 2.5238 20.1127 5.64494L11.6024 11.0357C11.3183 11.1769 11.035 11.319 10.7509 11.319L6.92108 11.4611C5.21886 11.4611 3.80075 12.0276 2.66594 13.1633C1.52949 14.2981 0.820846 15.717 0.820846 17.4184V22.5259C0.820846 28.4832 5.64421 33.4478 11.7436 33.4478H12.8793C14.4394 36.711 17.7018 39.1219 21.5316 39.1219C25.3614 39.1219 28.7658 36.8531 30.1847 33.4478H71.6062C73.1664 36.711 76.4287 39.1219 80.2593 39.1219C84.0891 39.1219 87.4936 36.8531 88.9117 33.4478H89.1958C95.154 33.4478 100.119 28.6253 100.119 22.5251C100.686 17.7017 97.1395 14.156 92.6002 14.014ZM12.7364 32.0297H12.0277C10.1907 32.0236 8.39232 31.5017 6.83737 30.5235C5.28242 29.5454 4.03339 28.1502 3.23253 26.4969H12.8793C12.5951 27.3484 12.4539 28.3412 12.4539 29.3339C12.4539 30.1855 12.5951 31.0353 12.7372 32.0289L12.7364 32.0297ZM29.9006 32.0297C29.7594 32.4543 29.6173 32.7384 29.4753 33.1646C28.0563 35.8595 25.2201 37.7038 22.099 37.7038C20.5512 37.7038 19.0328 37.281 17.7078 36.4811C16.3827 35.6811 15.3014 34.5343 14.5806 33.1646C14.4394 32.8804 14.2965 32.4551 14.1553 32.0289C13.8712 31.1782 13.5879 30.1855 13.5879 29.1927C13.5879 28.1991 13.7291 27.2056 14.1553 26.3557C14.2965 25.9303 14.4394 25.647 14.5806 25.2209C15.9996 22.5251 18.8366 20.6808 21.9569 20.6808C25.0773 20.6808 27.9143 22.5251 29.3332 25.2209C29.4744 25.5042 29.6173 25.9295 29.7586 26.3557C30.0427 27.2072 30.326 28.2 30.326 29.1927C30.326 30.1855 30.1847 31.037 29.9006 32.0297ZM71.7474 32.0297H31.0354C31.3195 31.1782 31.4608 30.1855 31.4608 29.1927C31.4608 28.1991 31.3195 27.2056 31.0363 26.3557H71.7483C71.4641 27.2072 71.3221 28.2 71.3221 29.1927C71.3221 30.1855 71.4641 31.037 71.7474 32.0297ZM88.7704 32.0297C88.6284 32.4543 88.4863 32.7384 88.3443 33.1646C86.9262 35.8595 84.0883 37.7038 80.968 37.7038C77.7056 37.7038 74.8686 35.8595 73.5917 33.1646C73.4505 32.8804 73.3076 32.4551 73.1664 32.0289C72.8831 31.1782 72.599 30.1855 72.599 29.1927C72.599 28.1991 72.7402 27.2056 73.1664 26.3557C73.3076 25.9303 73.4505 25.647 73.5917 25.2209C75.0106 22.5251 77.8477 20.6808 80.968 20.6808C84.2312 20.6808 86.9262 22.5251 88.3443 25.2209C88.4863 25.5042 88.6284 25.9295 88.7704 26.3557C89.0537 27.2072 89.3378 28.2 89.3378 29.1927C89.1958 30.1855 89.0537 31.037 88.7704 32.0297ZM89.9044 31.8877C90.1885 31.037 90.3306 30.0434 90.3306 29.0507C90.3306 28.0579 90.1885 27.0651 89.9044 26.2144H98.5584C96.9982 29.6189 93.735 31.8877 89.9044 31.8877ZM89.4791 25.22C87.9189 21.9577 84.6565 19.546 80.8268 19.546C76.997 19.546 73.5917 21.8156 72.1728 25.22H30.6101C29.0499 21.9577 25.7867 19.546 21.9569 19.546C18.1271 19.546 14.7227 21.8156 13.3038 25.22H2.808C2.51778 24.3515 2.37403 23.4408 2.38265 22.5251H5.21968C5.36676 22.5147 5.50516 22.4517 5.60941 22.3474C5.71367 22.2431 5.77676 22.1047 5.78709 21.9577C5.77659 21.8106 5.71344 21.6723 5.60922 21.5681C5.505 21.4639 5.3667 21.4008 5.21968 21.3903H2.38101V17.8429H5.21804C5.36498 17.8326 5.50328 17.7697 5.60751 17.6656C5.71175 17.5615 5.77493 17.4233 5.78544 17.2764C5.77514 17.1292 5.71208 16.9907 5.60784 16.8863C5.5036 16.7819 5.36519 16.7186 5.21804 16.7081H2.52306C2.66512 15.5733 3.09129 14.4393 3.94199 13.5878C4.79351 12.7363 6.07038 12.3109 7.20519 12.3109H7.34643L11.177 12.1697C11.6801 12.1612 12.1711 12.014 12.596 11.7444L21.1054 6.35358C25.9288 3.3745 31.4608 1.6731 36.9936 1.6731C43.3771 1.6731 49.6178 3.80067 54.7253 7.48922L61.3929 12.4538C63.0951 13.7299 65.0798 14.2973 67.067 14.4401L92.7423 14.8655C95.2952 15.0067 97.4236 16.2836 98.5584 18.2691H93.0264C92.879 18.2791 92.7402 18.3422 92.6357 18.4467C92.5312 18.5511 92.4682 18.6899 92.4582 18.8373C92.4692 18.9842 92.5327 19.1222 92.637 19.2263C92.7413 19.3303 92.8795 19.3933 93.0264 19.4039H99.1258C99.4099 20.2563 99.6924 21.107 99.6924 22.0997C99.6924 23.2354 99.5512 24.2281 99.1258 25.22H89.4791Z" fill="#081630" stroke="#081630" stroke-width="0.295066"/>
<path d="M84.6602 25.2216C83.6675 24.228 82.3906 23.6614 80.8296 23.6614C79.2686 23.6614 77.9926 24.228 76.9998 25.2216C76.7157 25.5049 76.4324 25.9302 76.1483 26.3564C75.5908 27.1974 75.2945 28.1844 75.2968 29.1934C75.2968 30.1862 75.5809 31.1789 76.1483 32.0304C76.4324 32.455 76.7157 32.7391 76.9998 33.1653C77.9926 34.158 79.4115 34.7254 80.8296 34.7254C82.2477 34.7254 83.6675 34.158 84.6602 33.1653C84.9435 32.8811 85.2276 32.4558 85.5109 32.0296C85.9363 31.1789 86.3624 30.3274 86.3624 29.1934C86.3647 28.1844 86.0684 27.1974 85.5109 26.3564C85.2276 25.931 84.9435 25.6469 84.6602 25.2216ZM84.092 32.0304C83.6675 32.455 83.2413 32.8811 82.6739 33.1653C82.1057 33.4486 81.397 33.7318 80.6876 33.7318C79.9789 33.7318 79.2695 33.5914 78.7021 33.1653C78.1355 32.8811 77.7085 32.4558 77.2839 32.0296C76.6425 31.2232 76.2924 30.2238 76.2904 29.1934C76.2904 28.0578 76.7157 27.2063 77.2839 26.3564C77.7085 25.931 78.1346 25.5049 78.7021 25.2216C79.2686 24.9375 79.9789 24.7962 80.6876 24.7962C81.397 24.7962 81.9644 24.9375 82.6739 25.2216C83.2413 25.5049 83.6675 25.9302 84.092 26.3564C84.8015 27.065 85.0848 28.0586 85.0848 29.1934C85.2276 30.1862 84.8015 31.1789 84.092 32.0304ZM37.1393 16.4239H34.3023C34.1553 16.4344 34.017 16.4975 33.9128 16.6018C33.8086 16.706 33.7454 16.8443 33.7349 16.9913C33.7452 17.1384 33.8083 17.2768 33.9126 17.381C34.0168 17.4853 34.1552 17.5484 34.3023 17.5587H37.1393C37.2861 17.5482 37.4242 17.4852 37.5283 17.3811C37.6324 17.277 37.6954 17.1389 37.7059 16.9921C37.6958 16.845 37.6329 16.7066 37.5288 16.6021C37.4247 16.4977 37.2864 16.4344 37.1393 16.4239ZM25.7904 25.2216C24.7968 24.228 23.5208 23.6614 21.9606 23.6614C20.5417 23.6614 19.1236 24.228 18.1308 25.2216C17.8475 25.5049 17.5634 25.9302 17.2793 26.3564C16.7221 27.1974 16.4261 28.1845 16.4286 29.1934C16.4262 30.2023 16.7222 31.1893 17.2793 32.0304C17.5634 32.455 17.8475 32.7391 18.1308 33.1653C19.1244 34.158 20.5425 34.7254 21.9614 34.7254C23.5216 34.7254 24.7985 34.158 25.792 33.1653C26.0753 32.8811 26.3586 32.4558 26.6427 32.0296C27.0681 31.1789 27.4943 30.3274 27.4943 29.1934C27.4966 28.1844 27.2003 27.1973 26.6427 26.3564C26.3595 25.931 26.0762 25.6469 25.792 25.2216H25.7904ZM25.223 32.0304C24.7976 32.455 24.3715 32.8811 23.8041 33.1653C23.2367 33.4486 22.5272 33.7318 21.8186 33.7318C21.1091 33.7318 20.3996 33.5914 19.833 33.1653C19.2648 32.8811 18.8395 32.4558 18.4141 32.0296C17.7727 31.2232 17.4226 30.2238 17.4205 29.1934C17.4205 28.0578 17.8459 27.2063 18.4141 26.3564C18.8395 25.931 19.2648 25.5049 19.833 25.2216C20.3996 24.9375 21.1091 24.7962 21.8194 24.7962C22.5288 24.7962 23.0954 24.9375 23.8049 25.2216C24.3715 25.5049 24.7976 25.9302 25.223 26.3564C25.9325 27.065 26.2166 28.0586 26.2166 29.1934C26.3578 30.1862 25.9325 31.1789 25.223 32.0304ZM53.8766 9.05091C51.3245 6.92252 48.3454 5.5036 45.0822 4.51166C41.819 3.51808 38.5575 3.23479 35.1522 3.51808L33.3079 3.66014C30.1876 3.94343 27.2085 5.2203 24.7968 7.34787C23.6612 8.34145 23.3779 9.75955 23.8033 11.1785C24.2302 12.5974 25.5063 13.4481 26.9244 13.5902L57.4231 15.1503H57.5643C58.1326 15.1503 58.5579 14.867 58.7 14.2988C58.842 13.7322 58.7 13.164 58.2746 12.8807L53.8766 9.05091ZM27.2093 12.3133C25.9325 12.3133 25.223 11.4626 25.0809 10.6111C24.7976 9.90161 24.7976 8.7668 25.7904 7.91528C27.2093 6.63923 28.9107 5.64647 30.755 5.07907L32.0311 12.4553L27.2093 12.3133ZM57.708 13.8735L33.0246 12.5974L31.6065 4.93701C32.1731 4.79578 32.8826 4.65372 33.45 4.65372L35.2943 4.51166C36.0037 4.51166 36.7132 4.37043 37.4218 4.37043C39.9756 4.37043 42.3872 4.79577 44.7981 5.50524C47.9184 6.49881 50.7563 7.91692 53.1671 9.90243L57.8476 13.591V13.7322L57.708 13.8735Z" fill="#081630" stroke="#081630" stroke-width="0.295066"/>
</svg>
