<svg width="70" height="36" viewBox="0 0 70 36" fill="none" xmlns="http://www.w3.org/2000/svg">
<g clip-path="url(#clip0_47_5277)">
<path d="M35 35.8362C54.3205 35.8362 70 27.7877 70 17.9181C70 8.04845 54.3792 0 35 0C15.6795 0 0 8.04845 0 17.9181C0 27.7877 15.6208 35.8362 35 35.8362ZM41.5772 27.024C40.9899 28.3752 39.9916 31.1951 37.7013 32.4288C36.9966 32.7813 36.1745 32.9575 35.3523 32.9575C35.1762 32.9575 35.0587 32.9575 35 32.9575C29.0688 33.0163 23.1963 32.1938 17.5 30.5489L17.3238 30.4901C16.854 30.3139 16.6191 30.1376 16.6191 29.8439C16.6191 29.7264 16.6778 29.6089 16.6778 29.5501C16.7366 29.4327 16.7953 29.3739 16.854 29.3152L17.1476 29.0214C18.2634 28.0227 21.7869 25.4965 28.4228 23.0291C31.1242 21.9129 33.8842 21.0905 36.703 20.3855C38.5235 19.9743 45.1007 18.9755 41.5772 27.024ZM59.3121 8.98841C59.3708 8.87092 59.4295 8.75342 59.547 8.69468C59.6644 8.63593 59.7819 8.57718 59.8993 8.57718C60.1342 8.57718 60.4278 8.63593 60.604 8.81217C64.7147 11.3383 67.1812 14.5107 67.1812 17.9181C67.1812 24.0866 59.2533 29.4327 47.8607 31.7238C47.156 31.9001 46.6275 31.8413 46.5101 31.7238C46.3339 31.6063 46.3339 31.4301 46.5101 31.1951C46.5688 31.0188 46.6862 30.9013 46.8037 30.7839C52.9698 23.4991 57.7265 12.7483 59.0184 9.63464C59.1359 9.3409 59.1946 9.10591 59.3121 8.98841ZM28.5403 8.75342C29.1275 7.40222 30.1258 4.52358 32.4161 3.34862C33.1208 2.99614 33.9429 2.81989 34.7651 2.81989C34.9413 2.81989 35.0587 2.81989 35.1174 2.81989C41.0486 2.76115 46.9211 3.58362 52.6174 5.22855L52.7936 5.2873C53.2634 5.46355 53.4983 5.63979 53.4983 5.93353C53.4983 6.05102 53.4396 6.16852 53.4396 6.22727C53.3809 6.34476 53.3221 6.40351 53.2634 6.46226L52.8523 6.81475C51.7366 7.81346 48.2718 10.3396 41.6359 12.8658C38.9346 13.982 36.1745 14.8632 33.3557 15.5094C31.6527 15.8619 25.0755 16.8606 28.5403 8.75342ZM22.198 4.11235C22.9614 3.99485 23.4312 3.99485 23.6074 4.11235C23.6661 4.17109 23.6661 4.28859 23.6661 4.40609C23.6661 4.52358 23.6074 4.58233 23.6074 4.69982C23.4899 4.87607 23.4312 4.99356 23.3138 5.11106C17.0889 12.3958 12.3322 23.1466 11.0403 26.2603C10.9228 26.4953 10.8641 26.6715 10.7466 26.8477C10.6879 26.9652 10.6292 27.0827 10.5117 27.1415C10.3943 27.2002 10.2768 27.259 10.1594 27.259C9.92449 27.259 9.63087 27.2002 9.4547 27.024C5.34396 24.4978 2.87752 21.3255 2.87752 17.9181C2.87752 11.7496 10.8054 6.46226 22.198 4.11235Z" fill="#081630"/>
</g>
<defs>
<clipPath id="clip0_47_5277">
<rect width="69.1634" height="35.4079" fill="white" transform="scale(1.0121)"/>
</clipPath>
</defs>
</svg>
