<svg width="68" height="40" viewBox="0 0 68 40" fill="none" xmlns="http://www.w3.org/2000/svg">
<g clip-path="url(#clip0_47_5404)">
<path d="M66.7748 27.8597L65.4463 20.0257C65.1809 18.6972 64.1195 17.5022 62.791 17.2368L52.0354 14.8469C51.5038 14.7142 50.9731 14.4488 50.5742 14.05L41.6778 4.4885C39.5533 2.23206 36.6317 0.903571 33.4449 0.903571H17.1116C10.7379 0.903571 5.29289 5.41893 4.09791 11.7919L0.912697 29.1874C0.647331 30.3824 1.04538 31.5782 1.84148 32.5078C2.23792 32.9643 2.72736 33.3307 3.277 33.5826C3.82663 33.8344 4.42376 33.9659 5.02835 33.9681H5.82445C7.15377 37.2885 10.3398 39.6776 14.1918 39.6776C17.9094 39.6776 21.2289 37.2877 22.5566 33.9681H44.8639C46.1924 37.2885 49.3784 39.6776 53.2295 39.6776C56.9471 39.6776 60.2667 37.2877 61.5952 33.9681H62.7893C63.9851 33.9681 65.0474 33.5701 65.8444 32.6405C66.6405 31.8427 67.1712 30.7813 67.1712 29.5863L66.7731 27.8597H66.7748ZM5.02752 33.0385C4.09874 33.0385 3.30265 32.6405 2.63757 31.9771C2.10684 31.3128 1.84148 30.3832 1.97416 29.4536L2.10684 28.6575H5.4264C5.29372 29.3209 5.16104 30.117 5.16104 30.7813C5.16104 31.5774 5.29372 32.2424 5.4264 33.0394H5.02835L5.02752 33.0385ZM21.627 33.0385C21.627 33.1712 21.4943 33.4366 21.4943 33.5701C21.4943 33.7036 21.3616 33.9681 21.2289 34.1016C20.0348 36.8905 17.246 38.7489 14.0582 38.7489C10.8714 38.7489 8.08255 36.8905 6.88757 34.1016C6.75489 33.969 6.75489 33.7036 6.62221 33.5709C6.62221 33.4382 6.48952 33.1729 6.48952 33.0385C6.22416 32.3751 6.09147 31.5782 6.09147 30.7813C6.08242 30.0537 6.21771 29.3316 6.48952 28.6567C6.48952 28.524 6.62221 28.2586 6.62221 28.1259C6.62221 27.9924 6.75489 27.7279 6.75489 27.5944C7.94986 24.8056 10.7387 22.8137 13.9256 22.8137C17.1124 22.8137 19.9013 24.8056 21.0962 27.5944C21.2289 27.7271 21.2289 27.9924 21.2289 28.1251C21.2289 28.2578 21.3616 28.5232 21.3616 28.6567C21.4943 29.3209 21.7597 30.1178 21.7597 30.7813C21.8923 31.5774 21.7597 32.2416 21.627 33.0385ZM22.6884 33.0385C22.8211 32.3751 22.9538 31.5782 22.9538 30.7813C22.9538 29.9852 22.8211 29.3201 22.6884 28.6567H44.334C44.2013 29.3209 44.0686 30.1178 44.0686 30.7813C44.0686 31.5774 44.2013 32.2424 44.334 33.0394H22.6893L22.6884 33.0385ZM60.5329 33.0385C60.5329 33.1712 60.4002 33.4366 60.4002 33.5701C60.4002 33.7036 60.2675 33.9681 60.1349 34.1016C58.9407 36.8905 56.1519 38.7489 52.9642 38.7489C49.7773 38.7489 46.9893 36.8905 45.7943 34.1016C45.6616 33.969 45.6616 33.7036 45.529 33.5709C45.529 33.4382 45.3963 33.1729 45.3963 33.0385C45.1309 32.3751 44.9982 31.5782 44.9982 30.7813C44.9892 30.0537 45.1245 29.3316 45.3963 28.6567C45.3963 28.524 45.529 28.2586 45.529 28.1259C45.529 27.9924 45.6616 27.7279 45.6616 27.5944C46.8558 24.8056 49.6446 22.8137 52.8323 22.8137C56.0192 22.8137 58.8072 24.8056 60.0022 27.5944C60.1349 27.7271 60.1349 27.9924 60.1349 28.1251C60.1349 28.2578 60.2675 28.5232 60.2675 28.6567C60.4002 29.3209 60.6664 30.1178 60.6664 30.7813C60.9318 31.5774 60.7991 32.2424 60.5337 33.0394L60.5329 33.0385ZM52.9642 21.8849C49.1139 21.8849 45.927 24.2748 44.5985 27.5944H22.2904C20.9619 24.274 17.7759 21.884 13.9247 21.884C10.0728 21.884 6.88674 24.2748 5.55908 27.5944H2.10684L3.30099 20.8218H6.2225C6.48786 20.8218 6.75323 20.5564 6.75323 20.2902C6.75323 20.0248 6.48786 19.7595 6.2225 19.7595H3.56635L3.83172 18.1656H6.48786C6.75323 18.1656 7.0186 17.9002 7.0186 17.6349C7.0186 17.3695 6.75323 17.1033 6.48786 17.1033H3.9644L4.89401 11.7919C5.9563 5.94884 11.0024 1.83152 16.8454 1.83152H33.1778C35.9667 1.83152 38.7547 3.0265 40.6139 5.01923L49.5103 14.5799C50.0418 15.1106 50.7052 15.5086 51.5022 15.6413L62.2586 18.0321C63.1874 18.1648 63.8508 18.829 63.9843 19.7586H60.0013C59.736 19.7586 59.4698 20.024 59.4698 20.2894C59.4698 20.5564 59.7351 20.8218 60.0005 20.8218H64.1178L65.312 27.4609H60.9301C60.0013 24.2732 56.8136 21.884 52.9633 21.884H52.965L52.9642 21.8849ZM65.7117 29.719C65.7117 30.6486 65.3136 31.4455 64.7829 32.1097C64.1195 32.7732 63.3226 33.0385 62.3929 33.0385H61.596C61.7287 32.3751 61.8614 31.5782 61.8614 30.7813C61.8614 29.9852 61.7287 29.3201 61.596 28.6567H65.7117V29.719Z" fill="#081630" stroke="#081630" stroke-width="0.295066"/>
<path d="M23.0883 17.2388H20.4338C20.1684 17.2388 19.9022 17.5042 19.9022 17.7696C19.9022 18.0366 20.1676 18.3019 20.433 18.3019H23.0891C23.3545 18.3019 23.6207 18.0366 23.6207 17.7704C23.6207 17.5042 23.3553 17.2388 23.0899 17.2388H23.0883ZM57.3445 28.1255C57.2118 27.9928 57.0791 27.7274 56.9464 27.5947C56.0177 26.3997 54.5565 25.6028 52.9626 25.6028C51.3688 25.6028 49.9093 26.3989 48.9797 27.5939C48.847 27.7266 48.7135 27.9928 48.5808 28.1255C48.4481 28.2581 48.4481 28.5235 48.3154 28.657C48.0501 29.3213 47.7847 29.9855 47.7847 30.7816C47.7847 31.5777 48.0501 32.3754 48.3154 33.0389C48.4481 33.1715 48.4481 33.4369 48.5808 33.5704C48.7135 33.7039 48.8462 33.9685 48.9788 34.102C49.9093 35.2961 51.3696 35.9612 52.9626 35.9612C54.5565 35.9612 56.0168 35.1643 56.9464 34.102C57.0791 33.9693 57.2118 33.8366 57.3445 33.5713C57.4772 33.4386 57.4772 33.1732 57.6107 33.0389C57.8761 32.3754 58.1414 31.5785 58.1414 30.7816C58.1414 29.9847 58.0087 29.3204 57.6107 28.657C57.6107 28.3916 57.478 28.259 57.3453 28.1263L57.3445 28.1255ZM56.4157 33.0389C56.283 33.1715 56.1503 33.4369 56.0177 33.5704L55.4861 34.102C54.8219 34.6327 53.8923 34.8981 52.9626 34.8981C52.0339 34.8981 51.2369 34.6327 50.44 34.102C50.203 33.9976 50.0137 33.8082 49.9093 33.5713C49.7766 33.4386 49.6431 33.3059 49.5104 33.0389C49.1123 32.3754 48.847 31.5785 48.847 30.7816C48.847 29.9847 49.1123 29.3204 49.5104 28.657C49.6431 28.5243 49.7758 28.259 49.9084 28.1263L50.4392 27.5939C51.1034 27.0632 52.033 26.6651 52.9626 26.6651C53.8923 26.6651 54.8219 27.0632 55.4861 27.5939C55.6188 27.7266 55.8842 27.8593 56.0168 28.1255C56.1495 28.2581 56.2822 28.3908 56.4149 28.657C56.8138 29.3213 57.0791 29.9855 57.0791 30.7816C57.0791 31.5777 56.8138 32.3754 56.4157 33.0389ZM18.4402 28.1255C18.3075 27.9928 18.1749 27.7274 18.0422 27.5947C17.1126 26.3997 15.6514 25.6028 14.0575 25.6028C12.4645 25.6028 11.0042 26.3989 10.0746 27.5939C9.94189 27.7266 9.80921 27.9928 9.67652 28.1255C9.54384 28.2581 9.54384 28.5235 9.41116 28.657C9.14579 29.3213 8.8796 29.9855 8.8796 30.7816C8.8796 31.5777 9.14496 32.3754 9.41033 33.0389C9.54301 33.1715 9.54301 33.4369 9.67569 33.5704C9.80838 33.7039 9.94106 33.9685 10.0737 34.102C11.0042 35.2961 12.4645 35.9612 14.0575 35.9612C15.6506 35.9612 17.1126 35.1643 18.0422 34.102C18.1749 33.9693 18.3075 33.8366 18.4402 33.5713C18.5729 33.4386 18.5729 33.1732 18.7056 33.0389C18.971 32.3754 19.2372 31.5785 19.2372 30.7816C19.2372 29.9847 19.1045 29.3204 18.7064 28.657C18.5737 28.3916 18.4411 28.259 18.4411 28.1263L18.4402 28.1255ZM17.5114 33.0389C17.3788 33.1715 17.2461 33.4369 17.1134 33.5704L16.5818 34.102C15.9176 34.6327 14.988 34.8981 14.0584 34.8981C13.1296 34.8981 12.3318 34.6327 11.5357 34.102C11.2984 33.9978 11.1088 33.8084 11.0042 33.5713C10.8715 33.4386 10.7388 33.3059 10.6061 33.0389C10.2073 32.3754 9.94189 31.5785 9.94189 30.7816C9.94189 29.9847 10.2073 29.3204 10.6053 28.657C10.738 28.5243 10.8707 28.259 11.0034 28.1263L11.5357 27.5939C12.1992 27.0632 13.1288 26.6651 14.0584 26.6651C14.9872 26.6651 15.9176 27.0632 16.5818 27.5939C16.7145 27.7266 16.9799 27.8593 17.1126 28.1255C17.2452 28.2581 17.3779 28.3908 17.5106 28.657C17.9095 29.3213 18.1749 29.9855 18.1749 30.7816C18.1749 31.5777 17.9095 32.3754 17.5114 33.0389ZM46.7224 14.1838L39.9506 6.34971C38.2241 4.35781 35.7014 3.162 33.0453 3.162H18.5712C15.3844 3.162 12.4629 5.02122 11.1352 8.07542L9.80755 11.1296C9.40867 11.9257 9.54218 12.9888 9.94023 13.7858C10.471 14.5818 11.2671 15.1134 12.1975 15.1134L45.7928 16.1757C46.1908 16.1757 46.5897 15.9103 46.8551 15.5123C46.9878 15.1142 46.9878 14.5818 46.7224 14.1838ZM12.1975 14.0511C11.5341 14.0511 11.0034 13.7858 10.7363 13.2542C10.471 12.7226 10.3383 12.0592 10.6036 11.5277L11.9321 8.47429C12.7282 6.61507 14.3229 5.15391 16.1813 4.62317L17.6425 14.3173L12.1983 14.0519L12.1975 14.0511ZM45.7928 15.1126L18.7039 14.3165L17.2428 4.35698C17.6416 4.2243 18.0397 4.2243 18.4377 4.2243H32.9118C35.3017 4.2243 37.559 5.28659 39.1528 7.01312L45.9246 14.8472L45.7928 15.1126Z" fill="#081630" stroke="#081630" stroke-width="0.295066"/>
</g>
<defs>
<clipPath id="clip0_47_5404">
<rect width="67.2094" height="39.3421" fill="white" transform="scale(1.01176)"/>
</clipPath>
</defs>
</svg>
